<svg id="visual" viewBox="0 0 450 550" width="900" height="900" xmlns="http://www.w3.org/2000/svg" xmlns:xlink="http://www.w3.org/1999/xlink" version="1.1"><g transform="translate(200 280)"><path d="M147 -205.7C187.4 -173 215 -125.9 214 -80.9C213 -35.8 183.6 7.1 170.7 58.2C157.8 109.2 161.6 168.4 135.9 201.2C110.2 234 55.1 240.5 8.4 228.9C-38.2 217.3 -76.4 187.5 -98.7 153.6C-121 119.7 -127.4 81.6 -141.6 44.4C-155.7 7.3 -177.7 -28.8 -179.6 -69.3C-181.5 -109.9 -163.4 -154.8 -130.1 -189.9C-96.8 -224.9 -48.4 -249.9 2.4 -253.3C53.3 -256.7 106.6 -238.4 147 -205.7" fill="#00a2ff"></path></g></svg>