<svg id="visual" viewBox="0 0 450 900" width="450" height="900" xmlns="http://www.w3.org/2000/svg" xmlns:xlink="http://www.w3.org/1999/xlink" version="1.1"><g transform="translate(240.1005248719316 451.2638151944079)"><path d="M110.1 -162.6C144.2 -126.8 174.3 -96.6 183.7 -61.2C193.1 -25.9 181.7 14.7 160.7 43.9C139.7 73 109.3 90.7 80.9 127.8C52.5 164.9 26.3 221.5 -4 227C-34.3 232.5 -68.6 187.1 -98.5 150.5C-128.5 113.9 -154.1 86.1 -179.5 48.7C-204.8 11.3 -229.8 -35.7 -210.2 -59.7C-190.6 -83.7 -126.3 -84.5 -83.8 -117.6C-41.3 -150.6 -20.7 -215.9 8.7 -227.9C38 -239.8 76 -198.4 110.1 -162.6" fill="#ff0083"></path></g></svg>