<svg id="visual" viewBox="0 0 450 900" width="450" height="900" xmlns="http://www.w3.org/2000/svg" xmlns:xlink="http://www.w3.org/1999/xlink" version="1.1"><g transform="translate(217.60127728176428 437.5438587757935)"><path d="M140.9 -165.6C184.7 -162.2 223.6 -123.7 222.3 -82.8C221 -41.9 179.4 1.4 163.2 53.6C147 105.7 156.2 166.6 133.2 184.5C110.2 202.4 55.1 177.2 7.4 167C-40.4 156.9 -80.7 161.8 -123.2 150.2C-165.7 138.7 -210.3 110.8 -207.4 77.4C-204.5 44 -154.1 5.2 -126.3 -28.9C-98.5 -62.9 -93.3 -92.1 -76.1 -104.1C-58.8 -116.1 -29.4 -110.8 9.6 -124C48.6 -137.2 97.2 -168.9 140.9 -165.6" fill="#c900ff"></path></g></svg>