<svg id="visual" viewBox="0 0 450 450" width="900" height="900" xmlns="http://www.w3.org/2000/svg" xmlns:xlink="http://www.w3.org/1999/xlink" version="1.1"><g transform="translate(200 220)"><path d="M126.5 -154.4C171.1 -141.7 219.3 -114.3 233.4 -74.9C247.4 -35.5 227.4 15.9 208.9 66.3C190.3 116.6 173.3 165.9 138.8 187C104.2 208.1 52.1 201.1 15.7 179.4C-20.7 157.8 -41.3 121.6 -74.8 100.1C-108.2 78.6 -154.4 71.9 -175 47.6C-195.6 23.4 -190.5 -18.4 -183.6 -65.8C-176.7 -113.3 -168 -166.2 -137.1 -183.4C-106.2 -200.5 -53.1 -181.7 -6.1 -173.4C40.9 -165 81.9 -167.1 126.5 -154.4" fill="#00ffd1"></path></g></svg>