<svg id="visual" viewBox="0 0 450 450" width="900" height="900" xmlns="http://www.w3.org/2000/svg" xmlns:xlink="http://www.w3.org/1999/xlink" version="1.1"><g transform="translate(230 210)"><path d="M83.9 -114.1C102 -102.4 105.2 -68.8 124.1 -34.7C143 -0.5 177.5 34.2 172.5 58C167.4 81.8 122.8 94.7 87.5 122.9C52.1 151.1 26.1 194.5 -9.8 208C-45.7 221.5 -91.3 205 -126.2 176.7C-161 148.3 -185.1 108.2 -188.3 68.3C-191.5 28.4 -173.7 -11.1 -166.4 -60.4C-159.1 -109.6 -162.2 -168.6 -136.2 -177.7C-110.2 -186.9 -55.1 -146.2 -11.1 -130.9C32.9 -115.6 65.8 -125.8 83.9 -114.1" fill="#d800ff"></path></g></svg>