<svg width="158" height="159" viewBox="0 0 158 159" fill="none" xmlns="http://www.w3.org/2000/svg">
<path d="M86.7537 127.145H78.7537V158.145L86.7537 127.145Z" fill="white"/>
<path d="M70.7537 127.145H78.7537V158.145L70.7537 127.145Z" fill="white"/>
<path d="M70.7537 30.915H78.7537V0.915L70.7537 30.915Z" fill="white"/>
<path d="M86.7537 30.915H78.7537V0.915L86.7537 30.915Z" fill="white"/>
<path d="M127.119 71.28V79.28H157.119L127.119 71.28Z" fill="white"/>
<path d="M127.119 87.28V79.28H157.119L127.119 87.28Z" fill="white"/>
<path d="M30.8887 88.78V78.78L1 79.5L30.8887 88.78Z" fill="white"/>
<path d="M30.3887 70V78.78L1 79.5L30.3887 70Z" fill="white"/>
<path d="M78.5337 141C112.499 141 140.034 113.466 140.034 79.5C140.034 45.5345 112.499 18 78.5337 18C44.5682 18 17.0337 45.5345 17.0337 79.5C17.0337 113.466 44.5682 141 78.5337 141Z" fill="white"/>
<path d="M78.7537 132.73C108.273 132.73 132.204 108.8 132.204 79.28C132.204 49.7604 108.273 25.83 78.7537 25.83C49.234 25.83 25.3037 49.7604 25.3037 79.28C25.3037 108.8 49.234 132.73 78.7537 132.73Z" fill="white"/>
<path d="M17.2737 64.78C17.1284 64.8573 16.968 64.9017 16.8037 64.91C16.601 64.9303 16.3963 64.9064 16.2037 64.84C16.0226 64.7909 15.848 64.7204 15.6837 64.63C15.5076 64.5369 15.3373 64.4334 15.1737 64.32L3.71366 55L2.49366 59.12C2.49366 59.31 2.39366 59.51 2.34366 59.73C2.29927 59.9168 2.27579 60.108 2.27366 60.3L0.423662 59.75C0.352142 59.7458 0.282656 59.7246 0.220985 59.6881C0.159314 59.6517 0.107239 59.601 0.0690928 59.5404C0.0309463 59.4797 0.00783045 59.4109 0.00166793 59.3395C-0.00449458 59.2681 0.00647433 59.1963 0.0336623 59.13L2.25366 51.69C2.37388 51.6388 2.50298 51.6116 2.63366 51.61C2.79664 51.627 2.95746 51.6605 3.11366 51.71C3.4955 51.8248 3.85189 52.0115 4.16366 52.26L15.7337 61.71L17.0337 57.55C17.1202 57.2643 17.1903 56.9738 17.2437 56.68C17.2831 56.4181 17.2831 56.1519 17.2437 55.89L19.2437 56.49C19.3661 56.5218 19.4771 56.5877 19.5637 56.68C19.5929 56.7462 19.608 56.8177 19.608 56.89C19.608 56.9623 19.5929 57.0338 19.5637 57.1L17.2737 64.78Z" fill="white"/>
<path d="M21.9037 52.51C21.5974 53.2665 21.1056 53.9337 20.4737 54.45C19.9777 54.8222 19.3611 54.9969 18.7437 54.94C18.0063 54.8582 17.2889 54.6484 16.6237 54.32L8.76366 50.62C8.70295 50.6015 8.64674 50.5706 8.59855 50.5293C8.55037 50.488 8.51125 50.4372 8.48366 50.38C8.49767 50.1455 8.5625 49.9169 8.67366 49.71C8.82366 49.35 9.09366 48.71 9.48366 47.93L17.9537 51.93C18.2152 52.0596 18.4902 52.1602 18.7737 52.23C18.9785 52.2855 19.1967 52.2604 19.3837 52.16C19.5926 52.0096 19.7526 51.8009 19.8437 51.56C19.9297 51.3818 19.9936 51.1938 20.0337 51C20.0736 50.7784 20.0736 50.5516 20.0337 50.33L10.9237 46C10.8069 45.9564 10.7106 45.8709 10.6537 45.76C10.6609 45.5365 10.7191 45.3176 10.8237 45.12C10.9637 44.79 11.2237 44.21 11.6037 43.4L22.6737 48.6C22.7057 49.2056 22.6688 49.8128 22.5637 50.41C22.4394 51.1366 22.2174 51.843 21.9037 52.51Z" fill="white"/>
<path d="M23.9137 47.84L13.6337 41C13.7032 40.6028 13.8035 40.2116 13.9337 39.83C14.0803 39.37 14.2603 38.9 14.4737 38.42C14.6648 37.985 14.8923 37.5668 15.1537 37.17C15.5357 36.5473 16.0269 35.9985 16.6037 35.55C17.0399 35.2259 17.5844 35.0826 18.1237 35.15C18.8186 35.2784 19.4731 35.5697 20.0337 36L27.8137 41.17C27.9537 41.26 28.0337 41.36 28.0337 41.47C27.9828 41.7043 27.8841 41.9256 27.7437 42.12C27.5437 42.44 27.2037 42.98 26.7437 43.72L19.2437 38.72C18.8284 38.3795 18.3438 38.1338 17.8237 38C17.5137 38 17.2437 38.12 16.9937 38.49C16.8734 38.6813 16.7761 38.886 16.7037 39.1C16.6181 39.3127 16.5772 39.5408 16.5837 39.77L24.9637 45.33C25.0204 45.3593 25.0702 45.4003 25.1099 45.4503C25.1495 45.5003 25.1781 45.5581 25.1937 45.62C25.1485 45.8483 25.0528 46.0635 24.9137 46.25C24.7237 46.61 24.3937 47.13 23.9137 47.84Z" fill="white"/>
<path d="M31.1537 38.38C30.7512 38.838 30.2906 39.2414 29.7837 39.58C29.4074 39.8265 28.9912 40.0058 28.5537 40.11L15.6837 28.54C15.4479 28.3602 15.2789 28.1068 15.2037 27.82C15.1996 27.6805 15.2231 27.5415 15.2729 27.4111C15.3226 27.2806 15.3977 27.1613 15.4937 27.06C15.7137 26.76 16.0737 26.33 16.5637 25.78L21.4937 30.21C21.4891 29.7934 21.5744 29.3807 21.7437 29C21.9288 28.5834 22.1785 28.1987 22.4837 27.86C22.8898 27.4083 23.4355 27.1055 24.0337 27C24.6839 26.9145 25.3443 27.0445 25.9137 27.37C26.8188 27.8586 27.6559 28.4638 28.4037 29.17C29.3399 29.9876 30.1971 30.8916 30.9637 31.87C31.4854 32.5387 31.9003 33.2842 32.1937 34.08C32.4057 34.6514 32.4844 35.2636 32.4237 35.87C32.3732 36.3635 32.2272 36.8424 31.9937 37.28C31.7562 37.6772 31.4744 38.0463 31.1537 38.38ZM29.6837 36.53C29.8 36.3839 29.8697 36.2062 29.8837 36.02C29.8954 35.7034 29.823 35.3894 29.6737 35.11C29.4126 34.6048 29.0938 34.1317 28.7237 33.7C28.1067 32.9854 27.4383 32.3169 26.7237 31.7C26.2382 31.2468 25.7128 30.8384 25.1537 30.48C24.8438 30.2604 24.4818 30.1259 24.1037 30.09C23.9737 30.0866 23.8446 30.1117 23.7254 30.1635C23.6062 30.2153 23.4998 30.2926 23.4137 30.39C23.2667 30.5512 23.1544 30.7409 23.0839 30.9474C23.0133 31.1538 22.986 31.3726 23.0037 31.59L29.0337 37C29.1533 36.9809 29.2685 36.9403 29.3737 36.88C29.4963 36.782 29.6012 36.6636 29.6837 36.53Z" fill="white"/>
<path d="M38.0337 31.71C37.6132 32.076 37.1328 32.3669 36.6137 32.57C36.1074 32.7526 35.5603 32.7906 35.0337 32.68C34.3607 32.5185 33.7299 32.215 33.1837 31.79C32.3789 31.168 31.6505 30.4531 31.0137 29.66C30.1608 28.6923 29.4287 27.6245 28.8337 26.48C28.45 25.7527 28.2283 24.951 28.1837 24.13C28.1644 23.5189 28.3205 22.9151 28.6337 22.39C28.9479 21.8913 29.3395 21.4457 29.7937 21.07C30.1223 20.7591 30.517 20.5266 30.9482 20.3897C31.3794 20.2529 31.8359 20.2154 32.2837 20.28C33.3833 20.5729 34.3457 21.2416 35.0037 22.17C35.3837 22.64 35.7737 23.17 36.1537 23.65C36.4951 24.1095 36.7899 24.602 37.0337 25.12C36.6595 25.6046 36.2518 26.0624 35.8137 26.49C35.3337 26.96 34.8137 27.41 34.3837 27.84C33.9537 28.27 33.3837 28.74 32.7437 29.26L31.4137 27.61C31.8437 27.28 32.2037 26.98 32.5137 26.72C32.8177 26.4655 33.1081 26.1951 33.3837 25.91C33.6095 25.6782 33.8106 25.4235 33.9837 25.15C33.8873 24.9451 33.77 24.7508 33.6337 24.57C33.4637 24.35 33.3237 24.16 33.1837 24C32.848 23.5271 32.415 23.1315 31.9137 22.84C31.7758 22.8048 31.632 22.7995 31.4918 22.8244C31.3517 22.8492 31.2185 22.9037 31.1012 22.9842C30.9838 23.0646 30.8849 23.1692 30.8112 23.2909C30.7375 23.4127 30.6906 23.5487 30.6737 23.69C30.6497 24.0341 30.7151 24.3786 30.8637 24.69C31.0591 25.1497 31.3003 25.5886 31.5837 26C31.9337 26.51 32.4037 27.12 32.9737 27.8C33.3363 28.2258 33.7272 28.6267 34.1437 29C34.4384 29.2761 34.7762 29.5024 35.1437 29.67C35.4078 29.7967 35.7047 29.8387 35.9937 29.79C36.3129 29.7129 36.6083 29.5583 36.8537 29.34C37.2361 29.025 37.5727 28.6581 37.8537 28.25C38.1241 27.8377 38.3583 27.4028 38.5537 26.95C38.8073 27.1059 39.0422 27.2904 39.2537 27.5C39.4937 27.74 39.6937 27.95 39.8637 28.15C39.9753 28.2883 40.048 28.4539 40.0744 28.6296C40.1007 28.8054 40.0798 28.985 40.0137 29.15C39.87 29.6098 39.6391 30.0376 39.3337 30.41C38.9508 30.891 38.5147 31.3271 38.0337 31.71Z" fill="white"/>
<path d="M41.6737 28.54L31.6737 13.74C31.4878 13.5114 31.3886 13.2246 31.3937 12.93C31.4765 12.6522 31.6532 12.4118 31.8937 12.25C32.3162 11.8943 32.7568 11.5605 33.2137 11.25L43.5937 26.65C43.6716 26.7494 43.7107 26.8738 43.7037 27C43.5781 27.1918 43.4106 27.3526 43.2137 27.47C42.9237 27.69 42.4037 28.05 41.6737 28.54Z" fill="white"/>
<path d="M48.4237 24.7C47.9213 25.0299 47.3225 25.1814 46.7237 25.13C46.2256 25.031 45.779 24.758 45.4637 24.36C45.0387 23.849 44.6668 23.2962 44.3537 22.71L40.8737 16.36L39.4437 17.14C39.1237 16.55 38.8937 16.14 38.7537 15.83C38.6412 15.6428 38.5824 15.4284 38.5837 15.21C38.6005 15.1431 38.6328 15.0811 38.6779 15.029C38.7231 14.9769 38.7799 14.9361 38.8437 14.91L39.7937 14.39L37.9737 11.05C37.9074 10.9589 37.8638 10.8534 37.8464 10.7421C37.829 10.6308 37.8384 10.517 37.8737 10.41C38.0185 10.1753 38.2218 9.98235 38.4637 9.85C38.7837 9.65 39.2537 9.38 39.8737 9.04L42.1137 13.12L44.1137 12.03C44.4437 12.62 44.6737 13.03 44.8237 13.34C44.9581 13.534 45.0313 13.7639 45.0337 14C45.0169 14.0669 44.9846 14.1289 44.9394 14.181C44.8943 14.2331 44.8375 14.2739 44.7737 14.3L43.2337 15.14L46.6837 21.45C46.8037 21.66 46.9237 21.87 47.0537 22.08C47.1567 22.2535 47.3054 22.3954 47.4837 22.49C47.5758 22.5243 47.6748 22.5358 47.7723 22.5237C47.8698 22.5115 47.9629 22.4759 48.0437 22.42C48.2477 22.3079 48.4389 22.1738 48.6137 22.02C48.7981 21.8445 48.9594 21.6462 49.0937 21.43L49.4637 21.89C49.605 22.0824 49.7352 22.2827 49.8537 22.49C49.9416 22.6268 49.9949 22.783 50.0088 22.9451C50.0228 23.1072 49.997 23.2702 49.9337 23.42C49.7933 23.7209 49.5802 23.9821 49.3137 24.18C49.0363 24.3844 48.7379 24.5587 48.4237 24.7Z" fill="white"/>
<path d="M51.0337 23C50.6274 22.7743 50.3048 22.4236 50.1137 22C50.0578 21.8505 50.0144 21.6966 49.9837 21.54C49.9834 21.3588 50.0002 21.178 50.0337 21L50.7437 11.58L48.6237 12.43C48.2937 12.56 47.9737 12.7 47.6237 12.85C47.2737 13 47.0637 13.14 46.8537 13.26C46.7207 13.056 46.6037 12.842 46.5037 12.62C46.4337 12.43 46.3737 12.27 46.3237 12.16C46.1889 11.8947 46.1367 11.5952 46.1737 11.3C46.2147 11.1854 46.2823 11.0821 46.3709 10.9987C46.4596 10.9152 46.5668 10.854 46.6837 10.82L52.3937 8.53C52.6272 8.68039 52.8114 8.89595 52.9237 9.15C52.9756 9.30677 53.0157 9.46722 53.0437 9.63C53.0882 9.89762 53.1083 10.1687 53.1037 10.44L52.5837 19.77L54.1437 19.14C54.6175 18.9575 55.0757 18.7368 55.5137 18.48C55.7807 18.3127 56.0348 18.1255 56.2737 17.92C56.3846 18.078 56.4816 18.2453 56.5637 18.42C56.6637 18.64 56.7437 18.81 56.7937 18.94C56.958 19.3254 57.0397 19.741 57.0337 20.16C57.0337 20.46 56.8037 20.7 56.4037 20.86L51.0337 23Z" fill="white"/>
<path d="M78.5536 124.62C103.699 124.62 124.084 104.236 124.084 79.09C124.084 53.9445 103.699 33.56 78.5536 33.56C53.4081 33.56 33.0237 53.9445 33.0237 79.09C33.0237 104.236 53.4081 124.62 78.5536 124.62Z" fill="#E0E8BF"/>
<path d="M100.204 76.13L97.1037 72.27L94.3937 66.85L93.6237 62.59L92.4637 59.5L88.5937 55.24L82.0337 52.15L78.1637 48.66L77.2237 47.5L75.4337 46.34H73.2237L71.9537 45L71.1837 44L69.2437 45L65.3837 47.13L60.9737 45C61.1237 45.19 55.7037 47.51 55.7037 47.51L53.0337 49.82L51.8737 50.6L46.8737 49.44L44.7837 48.63C43.4316 50.1089 42.1789 51.6757 41.0337 53.32L41.4237 55.63L40.3337 59.31L38.3337 61.43L37.1337 63.75L39.6537 64.89V67.72L42.9337 70.72L43.3537 72.85L44.2937 73.92H47.3937L52.6137 77.68L57.6137 76.91L61.0937 80.39L63.0337 82.32L65.7637 85C66.1537 85.39 69.2437 87.71 69.2437 87.71L73.5037 86.55L74.6637 88.1L78.5337 89.26L81.6337 88.87L82.7937 87.71L85.1137 88.49L92.1137 88.87L93.6237 87H97.4937C97.4937 87 100.204 87.38 100.584 87.77C101.401 88.3434 102.257 88.8612 103.144 89.32H105.904L106.784 88.16L100.584 81.16L100.204 76.13Z" fill="#F2F2F2"/>
<path d="M46.3636 46.89C45.3636 47.89 44.3636 49.02 43.3636 50.14L44.3636 50.4C44.8787 51.014 45.3216 51.6851 45.6836 52.4C45.6836 52.73 46.3336 56.68 46.3336 56.68H47.1436L47.6536 55.36V52.76L48.3136 50.4L49.6236 49.09L50.9436 49.74H53.9436L54.5936 48.1L55.5936 49.42L56.9036 48.76L57.9036 47.44L59.2236 47.77L60.4436 46.43L61.1936 48.43V50.07H62.1936L62.5236 47.44L63.6736 46.17L65.7936 46.79L66.1436 50.73V58.65L66.4736 59.65V60.52L66.9636 60.85L67.4536 59.65V56.29L67.7836 55.66V54.66L68.4436 54V55L69.1036 57.61V58.77L68.7736 60.24L69.1036 61.24V62.38L68.7736 63.82L69.1036 64.39L69.4336 65.46L69.1036 66.12L69.7636 66.78V67.51L70.0836 68.42L70.7436 68.75L71.1736 69.56L71.2336 70.7L72.0636 71.38L73.3736 71.05L73.7036 69.41V66.66L74.3636 64.54L74.6936 62.54L75.3436 60.54L75.6736 57.54L76.3336 55.54L77.3336 54.23L77.6636 52.58L78.3136 51.93H78.9736L79.3036 53.57L79.6236 55L79.2936 57.31L79.6236 58.18L80.2836 57.96L80.9336 56.32L80.6036 54L81.2636 51.7L81.5936 51.04L84.2236 50.04L85.5436 50.37L86.1936 51.37L87.5136 50.05L88.8236 49.72L89.4836 50.72L90.4836 50.39L92.7836 49.39L93.1136 50.04L95.4136 50.37L96.0736 50.04L98.0736 48.4L99.3836 46.76L101.034 45.47L103.574 41C94.8152 35.2514 84.3426 32.6984 73.9212 33.7713C63.4998 34.8442 53.7671 39.4775 46.3636 46.89Z" fill="#9EAA6B"/>
<path d="M110.754 111.29C112.186 109.852 113.522 108.322 114.754 106.71L114.234 106.14L111.504 107.93L109.854 108.93L108.854 109.26L106.544 110.57L104.904 110.24L103.264 113.24L100.824 115.87H96.3837L93.0337 115.16L92.0937 114.16L82.5637 113.16L81.2437 111.85V108.85L80.9137 104.57L80.2637 103.23V101.69L79.2637 98.69L78.2637 97.37L77.6137 96.37L77.0337 94.79V93.79L75.7137 91.79L75.3837 91.05L75.0337 89.66L75.3437 87.96V83.96L75.0337 81.46L74.7037 80.65L75.0337 79.57V78L74.0337 75.7L72.7137 73.7L71.7137 74.03L70.7137 75.5V85.91L70.0537 86.91V92.14L69.4037 92.47L68.1137 93.8L67.1137 94.8L66.8037 98.51L67.4337 101.38L66.8037 103.19V106.19L63.6537 106.61L62.1737 106.01L60.5337 104.01L57.2437 102.01L55.6037 99.71L54.9437 96.71C54.9437 96.71 53.9437 93.43 53.9437 93.1C53.9437 92.77 51.6337 91.78 51.6337 91.78L50.3237 89.48L50.0337 87.88L48.3937 85.25L47.2237 84.58V78.66L46.7437 75.72L46.0937 72.72L44.7737 73.05L43.7737 75.26V77.48L42.7737 78.96L43.7737 80.03V83.6L42.7737 86.23L41.4537 87.55L40.1137 87.09V84.51C39.5649 83.7444 39.1397 82.8974 38.8537 82C38.8537 81.34 38.2037 82.33 38.2037 82.33L37.8737 83.97L36.5537 85.62L35.2437 85.95H33.5337C34.7967 94.278 38.3446 102.092 43.7831 108.525C49.2216 114.957 56.3374 119.755 64.3394 122.385C72.3415 125.015 80.9162 125.374 89.1102 123.422C97.3042 121.471 104.796 117.285 110.754 111.33V111.29Z" fill="#9EAA6B"/>
<path d="M122.354 66.62L122.284 66.83L121.094 74.61L118.334 80.61L116.774 82.07L115.624 80.71V77.92L114.864 76L114.094 75.16L112.544 77.25V82.8L112.144 86.07L110.584 89.71L108.644 92.27L107.854 96.27L106.684 99.55L105.134 98.82L103.584 100.65L102.794 103.2L100.794 109.75L98.0336 113L96.6736 109.8L95.3336 106.97H90.3336L81.3336 105.34L78.8636 102.94L75.8636 104.59L70.7936 104.17L70.3936 103.83L68.1736 101L69.1736 98.51L68.6536 96.24V95.87L68.8436 92.58L68.3236 90.43L64.0336 89.94L62.5836 91.48L60.6936 92.33L59.6936 94.58L58.6436 96.46L57.3536 100.55L57.8436 102.34L54.8436 103.98L53.7536 105.14L50.4436 109L47.1736 112.09C54.4109 118.97 63.7087 123.28 73.6358 124.357C83.5629 125.435 93.5689 123.219 102.114 118.053C110.658 112.886 117.268 105.054 120.925 95.7623C124.582 86.4708 125.084 76.2348 122.354 66.63V66.62Z" fill="#1A1A1A"/>
<path d="M78.5337 106.15L79.4137 103.68L80.6537 101.22L81.7037 98.57L83.4637 96.28L85.4037 93.29L85.7537 91.53V89.08V88.38V87.78L84.1737 88L83.2937 86.95L83.4637 85.71L83.6437 83.07L84.1737 80.43L85.2337 79.2L87.5237 77.96H87.9737V76.21L87.3437 75.67L86.9937 74.79L86.9037 73.92L86.6537 73.67L86.9937 72.5L87.9737 71.47H90.1137L91.2237 72.33L91.5737 73.56V74.49V75.42L91.0437 75.5L90.8637 76.2L90.6937 77.26L90.8637 77.96L92.4537 78.49L94.3937 79.9L94.9137 81.31L95.2737 83.6V85.82L94.9137 88.53L93.8637 89.24L94.2137 90.65L94.3937 92.06V94.52L94.2137 96.99L93.6837 99.28L93.5037 102.8L93.7837 105.97L93.8637 108.61L90.5137 108.44L90.3337 104.39L90.2537 98.02L89.8137 97.52L88.4437 98.02L85.5837 99.63L84.1737 101.57L82.9437 103.68L81.8837 107.03L81.1737 108.26L78.5337 106.15Z" fill="#1A1A1A"/>
<path d="M44.0937 49.33L44.3637 50.11L45.4137 50.76H46.1037L48.2037 50.42L49.9537 49.42L50.9537 50.42L51.2937 52.42L51.6337 54.71L51.9737 55.36L52.3237 57.36V58.44L52.6737 59.33H53.0337L53.7337 58.68V54.52L54.7837 52.69L55.1437 51.05L55.8437 50.05L56.5337 51.68L56.8737 53.98L57.5637 54.98H58.2637L58.6237 53.34L59.0337 50.38L60.4337 48.74L61.1437 45.46L62.8937 43.81L66.0337 43.14L68.1237 44.45L70.5637 42.8L78.2437 40.8L80.6837 41.45L82.7737 42.75L86.2437 45.69H87.6437L89.7337 45.35L91.4737 46.35L91.8237 47.35L94.6037 48.35L97.7437 48.67L100.874 51.28L101.874 53.57L101.514 58.16L101.854 59.95V62.41L102.194 63.41H103.194L103.894 61.41L104.604 59.41L106.004 59.08L106.344 59.73V66.6L106.694 68.6L107.034 70.6V71.48L107.734 71.26L108.094 69.62V66.9L108.454 63.96V61.71L108.834 60L109.894 57.7L110.254 55.08L111.644 54.74L113.034 57.06L113.364 61.98L113.704 64.27L114.394 65.58L115.784 65.25V62L116.134 59.69L117.194 57.69L119.304 59V60.36L120.194 60.59C117.188 53.8377 112.586 47.9178 106.782 43.3412C100.979 38.7645 94.1491 35.6684 86.8823 34.3199C79.6154 32.9715 72.1296 33.4112 65.0706 35.6011C58.0116 37.791 51.5913 41.6654 46.3637 46.89C45.5737 47.68 44.8137 48.5 44.0937 49.33Z" fill="#1A1A1A"/>
<path d="M78.5537 34.33C88.9091 34.33 98.9443 37.9205 106.949 44.4899C114.954 51.0593 120.433 60.2011 122.454 70.3576C124.474 80.5141 122.91 91.0568 118.029 100.19C113.147 109.322 105.25 116.48 95.6829 120.443C86.1158 124.406 75.4705 124.929 65.5609 121.923C55.6513 118.917 47.0906 112.568 41.3374 103.957C35.5842 95.3472 32.9944 85.0085 34.0094 74.7029C35.0244 64.3973 39.5813 54.7624 46.9037 47.44C51.0491 43.2689 55.9813 39.9623 61.4143 37.7119C66.8473 35.4614 72.673 34.3119 78.5537 34.33ZM78.5537 33.55C68.0177 33.5492 57.8074 37.2017 49.6626 43.8851C41.5177 50.5685 35.9422 59.8692 33.886 70.2026C31.8299 80.536 33.4203 91.2626 38.3863 100.555C43.3523 109.847 51.3867 117.13 61.1204 121.162C70.8541 125.195 81.6849 125.728 91.7674 122.67C101.85 119.612 110.56 113.153 116.414 104.393C122.268 95.6328 124.903 85.114 123.871 74.6287C122.839 64.1434 118.203 54.3404 110.754 46.89C106.53 42.6545 101.511 39.2955 95.9851 37.0061C90.4591 34.7168 84.5351 33.5422 78.5537 33.55Z" fill="#1A1A1A"/>
<path d="M73.3636 25.83H78.7536V6L73.3636 25.83Z" fill="#1A1A1A"/>
<path d="M84.1437 25.83H78.7537V6L84.1437 25.83Z" fill="#6E8C03"/>
<path d="M132.204 73.89V79.28H152.034L132.204 73.89Z" fill="#1A1A1A"/>
<path d="M132.204 84.67V79.28H152.034L132.204 84.67Z" fill="#6E8C03"/>
<path d="M84.1437 132.73H78.7537V152.56L84.1437 132.73Z" fill="#1A1A1A"/>
<path d="M73.3636 132.73H78.7536V152.56L73.3636 132.73Z" fill="#6E8C03"/>
<path d="M25.3037 84.67V79.28H5.47366L25.3037 84.67Z" fill="#1A1A1A"/>
<path d="M25.3037 73.89V79.28H5.47366L25.3037 73.89Z" fill="#6E8C03"/>
<path d="M78.7537 132.62C108.213 132.62 132.094 108.739 132.094 79.28C132.094 49.8211 108.213 25.94 78.7537 25.94C49.2948 25.94 25.4137 49.8211 25.4137 79.28C25.4137 108.739 49.2948 132.62 78.7537 132.62Z" stroke="#1A1A1A" stroke-width="9.69" stroke-miterlimit="10"/>
<path d="M78.7637 34.25C83.3421 34.25 87.0537 30.5384 87.0537 25.96C87.0537 21.3816 83.3421 17.67 78.7637 17.67C74.1852 17.67 70.4737 21.3816 70.4737 25.96C70.4737 30.5384 74.1852 34.25 78.7637 34.25Z" fill="white" stroke="#1A1A1A" stroke-width="1.95" stroke-miterlimit="10"/>
<path d="M82.0336 30.81C81.8636 30.81 81.7136 30.81 81.4236 30.43L77.2136 25.43V30.37C77.2136 30.64 77.0936 30.79 76.8936 30.79H75.5036C75.2936 30.79 75.1736 30.64 75.1736 30.37V20.86C75.1736 20.59 75.2336 20.43 75.4736 20.43C75.5586 20.4322 75.6421 20.453 75.7181 20.491C75.7942 20.5291 75.8609 20.5833 75.9136 20.65L80.2636 25.88V20.88C80.2636 20.61 80.3836 20.45 80.5836 20.45H81.9436C82.1536 20.45 82.2736 20.61 82.2736 20.88V30.4C82.2736 30.67 82.1836 30.81 82.0336 30.81Z" fill="#1A1A1A"/>
<path d="M1.88367 99.1C1.765 98.64 1.72777 98.1628 1.77367 97.69C1.82615 97.2328 2.00637 96.7996 2.29367 96.44C2.67732 95.9929 3.15096 95.6317 3.68367 95.38C4.46372 95.0028 5.28629 94.7208 6.13367 94.54C7.19927 94.2657 8.29348 94.118 9.39367 94.1C10.0823 94.0888 10.765 94.2288 11.3937 94.51C11.8666 94.7235 12.2665 95.0713 12.5437 95.51C12.8031 95.937 12.9922 96.4029 13.1037 96.89C13.2106 97.2599 13.2346 97.6488 13.1741 98.0291C13.1136 98.4093 12.9701 98.7715 12.7537 99.09C12.1107 99.8167 11.233 100.295 10.2737 100.44C9.76367 100.55 9.27367 100.66 8.70367 100.75C8.22178 100.834 7.73248 100.867 7.24367 100.85C7.01441 100.383 6.82377 99.8981 6.67367 99.4C6.49367 98.85 6.33367 98.32 6.19367 97.79C6.05367 97.26 5.93367 96.68 5.77367 96L7.54367 95.63C7.63367 96.07 7.72367 96.47 7.80367 96.8C7.87977 97.1379 7.97323 97.4717 8.08367 97.8C8.17038 98.0598 8.28788 98.3082 8.43367 98.54C8.62637 98.5621 8.82096 98.5621 9.01367 98.54L9.61367 98.42C10.1243 98.335 10.6095 98.1368 11.0337 97.84C11.1138 97.7488 11.1734 97.6415 11.2086 97.5253C11.2437 97.409 11.2536 97.2867 11.2375 97.1663C11.2214 97.046 11.1797 96.9305 11.1152 96.8277C11.0507 96.7248 10.9649 96.6369 10.8637 96.57C10.6194 96.4313 10.3445 96.3557 10.0637 96.35C9.62575 96.3277 9.18671 96.3511 8.75367 96.42C8.11108 96.5105 7.47357 96.634 6.84367 96.79C6.36809 96.8942 5.9003 97.0312 5.44367 97.2C5.13155 97.3073 4.83804 97.4625 4.57367 97.66C4.37284 97.812 4.22854 98.0267 4.16367 98.27C4.08855 98.5382 4.08855 98.8218 4.16367 99.09C4.25757 99.4961 4.40911 99.8868 4.61367 100.25C4.8276 100.601 5.06831 100.936 5.33367 101.25C5.1198 101.382 4.89168 101.489 4.65367 101.57C4.38367 101.66 4.13367 101.73 3.92367 101.78C3.78007 101.81 3.63118 101.803 3.49115 101.759C3.35112 101.715 3.22462 101.636 3.12367 101.53C2.82833 101.245 2.59067 100.905 2.42367 100.53C2.19518 100.073 2.01423 99.5939 1.88367 99.1Z" fill="white"/>
<path d="M4.10366 106.7C3.87676 106.112 3.75164 105.49 3.73366 104.86C3.72093 104.644 3.77834 104.43 3.89731 104.25C4.01628 104.07 4.19041 103.933 4.39366 103.86C4.5795 103.802 4.77033 103.762 4.96366 103.74C5.21247 103.705 5.46485 103.705 5.71366 103.74C5.67378 104.096 5.67378 104.454 5.71366 104.81C5.74309 105.151 5.8136 105.486 5.92366 105.81C6.02211 106.153 6.23805 106.45 6.53366 106.65C6.66346 106.724 6.80805 106.767 6.95686 106.777C7.10567 106.788 7.25491 106.765 7.39366 106.71C7.60191 106.633 7.79742 106.525 7.97366 106.39C8.20065 106.188 8.38141 105.939 8.50366 105.66L9.68366 103.13C9.88887 102.669 10.1808 102.251 10.5437 101.9C10.8313 101.63 11.1718 101.422 11.5437 101.29C11.9967 101.12 12.4872 101.075 12.9637 101.16C13.4672 101.266 13.921 101.537 14.2537 101.93C14.727 102.479 15.0842 103.119 15.3037 103.81C15.5256 104.368 15.654 104.96 15.6837 105.56C15.6982 105.88 15.6068 106.197 15.4237 106.46C15.299 106.621 15.1332 106.745 14.9437 106.82C14.5592 106.959 14.1381 106.959 13.7537 106.82C13.8168 106.491 13.8337 106.154 13.8037 105.82C13.7682 105.479 13.6909 105.143 13.5737 104.82C13.4822 104.503 13.3017 104.218 13.0537 104C12.9645 103.926 12.857 103.878 12.7425 103.86C12.628 103.843 12.5109 103.856 12.4037 103.9C12.2503 103.956 12.1129 104.049 12.0037 104.17C11.8039 104.405 11.6451 104.672 11.5337 104.96L10.5337 107.18C10.2977 107.67 9.97984 108.117 9.59366 108.5C9.21848 108.814 8.78768 109.055 8.32366 109.21C7.91456 109.374 7.47299 109.44 7.03389 109.403C6.59478 109.367 6.17017 109.229 5.79366 109C4.96666 108.467 4.365 107.648 4.10366 106.7Z" fill="white"/>
<path d="M3.03366 115.13C2.88169 114.882 2.81825 114.589 2.85366 114.3C2.85366 114.09 3.08366 113.9 3.43366 113.73L15.7837 107.66C16.2473 107.962 16.6678 108.325 17.0337 108.74C17.4273 109.186 17.7632 109.68 18.0337 110.21C18.3275 110.777 18.4915 111.402 18.5137 112.04C18.5049 112.671 18.2708 113.277 17.8537 113.75C17.2112 114.446 16.4315 115.001 15.5637 115.38C14.666 115.834 13.7409 116.231 12.7937 116.57C12.1473 116.807 11.4765 116.971 10.7937 117.06C10.3212 117.137 9.83791 117.117 9.37366 117C9.04166 116.911 8.73622 116.743 8.48366 116.51C8.25071 116.298 8.0606 116.044 7.92366 115.76C7.7874 115.489 7.69299 115.199 7.64366 114.9C7.58763 114.657 7.58763 114.403 7.64366 114.16L3.64366 116.11C3.52366 115.97 3.40366 115.82 3.28366 115.65C3.18643 115.484 3.10282 115.31 3.03366 115.13ZM9.38366 114.2C9.4601 114.334 9.57508 114.442 9.71366 114.51C9.94871 114.602 10.2033 114.633 10.4537 114.6C10.9475 114.544 11.4318 114.423 11.8937 114.24C12.6986 113.952 13.4866 113.618 14.2537 113.24C14.7814 113.001 15.284 112.709 15.7537 112.37C16.0081 112.207 16.2014 111.964 16.3037 111.68C16.3511 111.444 16.3121 111.199 16.1937 110.99C16.0511 110.701 15.815 110.468 15.5237 110.33L9.52366 113.33C9.4229 113.483 9.36109 113.658 9.34366 113.84C9.32572 113.961 9.33599 114.084 9.37366 114.2H9.38366Z" fill="white"/>
<path d="M12.2137 123.22C11.9497 122.827 11.7568 122.39 11.6437 121.93C11.5325 121.483 11.5568 121.013 11.7137 120.58C11.9145 120.029 12.2357 119.531 12.6537 119.12C13.2527 118.501 13.9242 117.957 14.6537 117.5C15.5719 116.881 16.5626 116.377 17.6037 116C18.2609 115.753 18.9628 115.648 19.6637 115.69C20.1784 115.742 20.6677 115.939 21.0737 116.26C21.465 116.573 21.8028 116.948 22.0737 117.37C22.302 117.681 22.4574 118.039 22.5283 118.418C22.5993 118.797 22.584 119.188 22.4837 119.56C22.1279 120.462 21.461 121.207 20.6037 121.66C20.1737 121.94 19.7137 122.22 19.2337 122.49C18.8105 122.736 18.361 122.934 17.8937 123.08C17.5367 122.711 17.2028 122.32 16.8937 121.91C16.5437 121.45 16.2137 121 15.8937 120.55C15.5737 120.1 15.2337 119.55 14.8937 119.02L16.4437 118.02C16.6703 118.407 16.8803 118.74 17.0737 119.02C17.2637 119.31 17.4637 119.58 17.6737 119.84C17.8438 120.058 18.0384 120.256 18.2537 120.43C18.4355 120.362 18.6126 120.282 18.7837 120.19L19.3137 119.87C19.7504 119.619 20.1288 119.278 20.4237 118.87C20.4826 118.74 20.5044 118.597 20.4867 118.456C20.4691 118.315 20.4126 118.181 20.3237 118.07C20.2667 117.983 20.1933 117.909 20.1075 117.85C20.0217 117.792 19.9252 117.751 19.8237 117.73C19.5489 117.682 19.2664 117.706 19.0037 117.8C18.5842 117.925 18.1788 118.092 17.7937 118.3C17.3237 118.55 16.7937 118.88 16.1237 119.3C15.7134 119.559 15.3193 119.843 14.9437 120.15C14.6847 120.362 14.4589 120.611 14.2737 120.89C14.1386 121.101 14.0754 121.35 14.0937 121.6C14.1233 121.877 14.2231 122.142 14.3837 122.37C14.6105 122.721 14.8867 123.038 15.2037 123.31C15.5167 123.58 15.8511 123.824 16.2037 124.04C16.0439 124.236 15.8628 124.414 15.6637 124.57C15.4437 124.75 15.2337 124.9 15.0537 125.02C14.9247 125.09 14.7804 125.127 14.6337 125.127C14.487 125.127 14.3426 125.09 14.2137 125.02C13.8384 124.849 13.4991 124.608 13.2137 124.31C12.8439 123.982 12.5089 123.617 12.2137 123.22Z" fill="white"/>
<path d="M15.4837 127.5L27.4837 118.14C27.5635 118.044 27.6652 117.969 27.7802 117.92C27.8952 117.872 28.0201 117.851 28.1445 117.861C28.269 117.871 28.3892 117.911 28.4952 117.976C28.6012 118.042 28.6898 118.133 28.7537 118.24C29.0686 118.578 29.3656 118.931 29.6437 119.3L17.1937 129C17.1151 129.073 17.011 129.113 16.9037 129.11C16.7351 129.019 16.591 128.889 16.4837 128.73C16.2737 128.51 15.9437 128.09 15.4837 127.5Z" fill="white"/>
<path d="M20.3837 133.67C20.0565 133.323 19.7894 132.925 19.5937 132.49C19.4133 132.068 19.3577 131.603 19.4337 131.15C19.5403 130.573 19.7724 130.027 20.1137 129.55C20.602 128.833 21.18 128.181 21.8337 127.61C22.6208 126.842 23.497 126.17 24.4437 125.61C25.0543 125.247 25.7369 125.022 26.4437 124.95C26.9607 124.912 27.4778 125.023 27.9337 125.27C28.3753 125.509 28.774 125.82 29.1137 126.19C29.3906 126.459 29.6043 126.786 29.7392 127.147C29.8741 127.509 29.9269 127.896 29.8937 128.28C29.6963 129.231 29.164 130.079 28.3937 130.67C28.0237 131.03 27.6137 131.37 27.1837 131.67C26.81 131.985 26.4045 132.26 25.9737 132.49C25.547 132.186 25.1427 131.852 24.7637 131.49C24.3337 131.1 23.9337 130.72 23.5437 130.33C23.1537 129.94 22.7337 129.5 22.2637 129L23.6237 127.8C23.9137 128.14 24.1837 128.44 24.4237 128.69C24.6494 128.944 24.8934 129.181 25.1537 129.4C25.356 129.587 25.5811 129.749 25.8237 129.88C25.9925 129.784 26.1531 129.673 26.3037 129.55L26.7637 129.15C27.1531 128.84 27.4733 128.451 27.7037 128.01C27.7388 127.872 27.7349 127.727 27.6925 127.591C27.6502 127.455 27.5709 127.334 27.4637 127.24C27.3219 127.091 27.1289 127.002 26.9237 126.99C26.6406 126.993 26.3626 127.065 26.1137 127.2C25.7256 127.427 25.3635 127.695 25.0337 128C24.5184 128.394 24.0244 128.814 23.5537 129.26C23.1982 129.57 22.8641 129.905 22.5537 130.26C22.3288 130.503 22.1493 130.784 22.0237 131.09C21.9253 131.324 21.9042 131.583 21.9637 131.83C22.044 132.097 22.1881 132.341 22.3837 132.54C22.6762 132.848 23.0133 133.111 23.3837 133.32C23.7432 133.534 24.1214 133.715 24.5137 133.86C24.3929 134.084 24.2451 134.292 24.0737 134.48C23.8837 134.69 23.7137 134.88 23.5537 135.03C23.4428 135.126 23.3093 135.192 23.1657 135.222C23.0222 135.251 22.8735 135.244 22.7337 135.2C22.3338 135.099 21.9569 134.923 21.6237 134.68C21.1765 134.387 20.761 134.049 20.3837 133.67Z" fill="white"/>
<path d="M26.7436 139.77C26.3518 139.442 26.0143 139.054 25.7436 138.62C25.491 138.225 25.3848 137.755 25.4436 137.29C25.5277 136.669 25.7425 136.072 26.0736 135.54C26.5934 134.685 27.1892 133.878 27.8536 133.13C28.7503 131.901 29.9934 130.968 31.4236 130.45C31.9314 130.311 32.4661 130.305 32.9772 130.431C33.4882 130.557 33.9585 130.811 34.3436 131.17C34.8831 131.591 35.2923 132.156 35.5236 132.8C35.6818 133.476 35.5894 134.187 35.2636 134.8C34.7287 135.842 34.056 136.807 33.2636 137.67C32.3473 138.926 31.0965 139.9 29.6536 140.48C29.1484 140.621 28.6154 140.63 28.1058 140.505C27.5962 140.381 27.1272 140.128 26.7436 139.77ZM28.0336 138.39C28.1176 138.456 28.2143 138.503 28.3177 138.529C28.4211 138.555 28.5287 138.558 28.6336 138.54C29.0111 138.435 29.3554 138.236 29.6336 137.96C30.2635 137.393 30.8486 136.778 31.3836 136.12C31.9294 135.506 32.4402 134.861 32.9136 134.19C33.1457 133.899 33.3035 133.556 33.3736 133.19C33.3764 133.074 33.3515 132.959 33.3011 132.855C33.2507 132.751 33.1761 132.66 33.0836 132.59C32.9955 132.518 32.8923 132.466 32.7816 132.438C32.671 132.41 32.5555 132.408 32.4436 132.43C32.0655 132.538 31.7213 132.741 31.4436 133.02C30.8302 133.556 30.2647 134.145 29.7536 134.78C29.2887 135.303 28.8515 135.851 28.4436 136.42C28.2092 136.733 28.0049 137.068 27.8336 137.42C27.7411 137.606 27.7163 137.818 27.7636 138.02C27.8262 138.161 27.9182 138.287 28.0336 138.39Z" fill="white"/>
<path d="M31.3937 143.2L40.2237 130.8C40.3443 130.578 40.5444 130.41 40.7837 130.33C41.03 130.313 41.2743 130.384 41.4737 130.53C41.7537 130.69 42.1337 130.95 42.6337 131.3L33.4737 144.16C33.4465 144.207 33.4105 144.247 33.3676 144.28C33.3247 144.312 33.2758 144.336 33.2237 144.35C33.0367 144.313 32.8616 144.23 32.7137 144.11L31.3937 143.2Z" fill="white"/>
<path d="M37.8937 147.72C37.4438 147.468 37.0356 147.147 36.6837 146.77C36.3708 146.425 36.184 145.985 36.1537 145.52C36.1273 144.892 36.2329 144.265 36.4637 143.68C36.8264 142.751 37.268 141.854 37.7837 141C38.4396 139.638 39.4833 138.501 40.7837 137.73C41.2597 137.508 41.7838 137.409 42.3079 137.443C42.832 137.476 43.3394 137.64 43.7837 137.92C44.3838 138.24 44.8826 138.722 45.2237 139.31C45.502 139.941 45.5411 140.652 45.3337 141.31C45.0018 142.426 44.5208 143.492 43.9037 144.48C43.227 145.883 42.1659 147.066 40.8437 147.89C40.3776 148.113 39.8626 148.214 39.3468 148.185C38.831 148.155 38.3311 147.995 37.8937 147.72ZM38.8937 146.13C38.9844 146.185 39.0868 146.219 39.1927 146.228C39.2987 146.236 39.4052 146.22 39.5037 146.18C39.8583 146.008 40.1643 145.75 40.3937 145.43C40.9122 144.759 41.3802 144.05 41.7937 143.31C42.2201 142.609 42.6073 141.884 42.9537 141.14C43.1372 140.799 43.2302 140.417 43.2237 140.03C43.2008 139.916 43.1531 139.809 43.084 139.715C43.0148 139.622 42.9259 139.545 42.8237 139.49C42.7219 139.443 42.611 139.418 42.4987 139.418C42.3864 139.418 42.2755 139.443 42.1737 139.49C41.8145 139.664 41.5049 139.925 41.2737 140.25C40.7686 140.88 40.3139 141.549 39.9137 142.25C39.4837 143 39.1537 143.61 38.9137 144.1C38.7394 144.456 38.5988 144.828 38.4937 145.21C38.4241 145.401 38.4241 145.609 38.4937 145.8C38.5908 145.948 38.7302 146.063 38.8937 146.13Z" fill="white"/>
<path d="M44.4536 155.64C43.7275 155.383 43.0704 154.962 42.5336 154.41C42.1918 154.068 41.9858 153.613 41.9536 153.13C41.9314 152.679 42.0277 152.231 42.233 151.829C42.4383 151.427 42.7454 151.086 43.1236 150.84C43.5822 150.551 44.0911 150.351 44.6236 150.25C45.1869 150.14 45.764 150.12 46.3336 150.19L46.7636 151.09C46.4569 151.083 46.1515 151.134 45.8636 151.24C45.5668 151.335 45.2916 151.488 45.0536 151.69C44.8222 151.876 44.6402 152.117 44.5236 152.39C44.4498 152.557 44.4156 152.738 44.4236 152.92C44.453 153.11 44.5531 153.281 44.7036 153.4C44.9378 153.591 45.2011 153.743 45.4836 153.85C45.6941 153.969 45.9298 154.037 46.1714 154.047C46.4131 154.058 46.6537 154.011 46.8736 153.91C47.1864 153.751 47.439 153.495 47.5936 153.18C47.6917 152.971 47.7265 152.738 47.6936 152.51C47.6121 152.245 47.4382 152.018 47.2036 151.87C46.7544 151.546 46.2756 151.265 45.7736 151.03C45.351 150.81 44.9494 150.553 44.5736 150.26C44.2894 150.051 44.0596 149.777 43.9036 149.46C43.8418 149.334 43.8097 149.195 43.8097 149.055C43.8097 148.915 43.8418 148.776 43.9036 148.65C44.0267 148.417 44.197 148.213 44.4036 148.05C44.6687 147.846 44.9617 147.681 45.2736 147.56C45.6884 147.394 46.1166 147.263 46.5536 147.17L47.6236 148.1L47.3136 148.21C47.1292 148.284 46.9519 148.374 46.7836 148.48C46.6327 148.566 46.5108 148.695 46.4336 148.85C46.3636 149.02 46.5036 149.21 46.8736 149.4C47.2436 149.59 47.6736 149.86 48.1936 150.17C48.6566 150.445 49.0804 150.782 49.4536 151.17C49.7557 151.489 49.9604 151.888 50.0436 152.32C50.111 152.809 50.0309 153.307 49.8136 153.75C49.5636 154.365 49.1692 154.91 48.6636 155.34C48.1588 155.767 47.5329 156.026 46.8736 156.08C46.0425 156.146 45.2084 155.994 44.4536 155.64ZM47.7336 148.64C47.0566 148.399 46.4653 147.965 46.0336 147.39C45.7091 146.899 45.5481 146.318 45.5736 145.73C45.6182 145.074 45.7772 144.431 46.0436 143.83C46.3406 143.067 46.8094 142.383 47.4136 141.83C47.8822 141.417 48.4796 141.18 49.1036 141.16C49.7936 141.145 50.4778 141.289 51.1036 141.58C51.298 141.662 51.4825 141.766 51.6536 141.89C51.8465 142.012 52.0215 142.16 52.1736 142.33V143.4C52.5322 143.796 52.7623 144.291 52.8336 144.82C52.9074 145.469 52.7928 146.125 52.5036 146.71C52.2527 147.348 51.8712 147.927 51.3836 148.41C50.9609 148.812 50.4146 149.059 49.8336 149.11C49.1056 149.142 48.3817 148.983 47.7336 148.65V148.64ZM48.4936 147.14C48.7194 147.224 48.9679 147.224 49.1936 147.14C49.4733 147.019 49.7102 146.817 49.8736 146.56C50.167 146.132 50.4119 145.672 50.6036 145.19C50.8502 144.722 50.974 144.199 50.9636 143.67C50.9405 143.501 50.8713 143.342 50.7638 143.209C50.6562 143.077 50.5143 142.977 50.3536 142.92C50.1333 142.845 49.894 142.845 49.6736 142.92C49.3985 143.013 49.1579 143.188 48.9836 143.42C48.6904 143.806 48.4515 144.229 48.2736 144.68C48.1044 145.064 47.9705 145.462 47.8736 145.87C47.7837 146.126 47.7837 146.404 47.8736 146.66C47.9383 146.78 48.0266 146.885 48.1332 146.969C48.2398 147.053 48.3624 147.115 48.4936 147.15V147.14ZM53.2136 144.75C52.9584 144.627 52.7198 144.473 52.5036 144.29C52.2313 144.067 51.971 143.83 51.7236 143.58C51.4636 143.33 51.1736 143.02 50.8636 142.67L51.2536 141.82L54.4136 143.18C54.4383 143.336 54.4383 143.494 54.4136 143.65C54.3757 143.864 54.3119 144.072 54.2236 144.27C54.1498 144.494 53.9921 144.68 53.7836 144.79C53.6914 144.823 53.5935 144.837 53.4956 144.832C53.3978 144.827 53.3019 144.802 53.2136 144.76V144.75Z" fill="white"/>
<path d="M52.0337 154L55.1137 144.45C55.1679 144.202 55.3145 143.984 55.5237 143.84C55.7563 143.756 56.011 143.756 56.2437 143.84C56.5637 143.91 57.0137 144.04 57.6037 144.23L54.3537 154.33C54.3037 154.47 54.2437 154.55 54.1637 154.58C53.9668 154.596 53.7688 154.569 53.5837 154.5L52.0337 154ZM56.0337 142.49C55.9426 142.45 55.8629 142.388 55.8018 142.309C55.7407 142.231 55.7001 142.138 55.6837 142.04C55.6144 141.711 55.5842 141.376 55.5937 141.04C55.911 140.817 56.2454 140.62 56.5937 140.45C56.9637 140.27 57.3437 140.09 57.7237 139.93C58.1037 139.77 58.4237 139.64 58.7237 139.55C58.8808 139.491 59.0461 139.458 59.2137 139.45C59.4437 139.53 59.6037 139.77 59.6737 140.18C59.7333 140.568 59.7333 140.962 59.6737 141.35C59.4328 141.487 59.178 141.597 58.9137 141.68L57.8037 142.04L56.7237 142.34C56.4959 142.39 56.2655 142.426 56.0337 142.45V142.49Z" fill="white"/>
<path d="M59.2937 156.24C58.9093 156.153 58.5342 156.029 58.1737 155.87C57.8312 155.72 57.5295 155.49 57.2937 155.2C57.0342 154.865 56.8778 154.462 56.8437 154.04C56.8025 153.42 56.8667 152.798 57.0337 152.2C57.1583 151.593 57.3705 151.006 57.6637 150.46C57.859 150.064 58.1472 149.721 58.5037 149.46C58.7993 149.26 59.1465 149.148 59.5037 149.14C59.8396 149.119 60.1768 149.15 60.5037 149.23C60.7339 149.288 60.9609 149.358 61.1837 149.44C61.4444 149.522 61.6812 149.666 61.8737 149.86L62.0337 149C62.0937 148.76 62.1437 148.54 62.1837 148.34C62.2319 148.146 62.2319 147.944 62.1837 147.75C62.1446 147.594 62.0482 147.458 61.9137 147.37C61.7356 147.25 61.5347 147.169 61.3237 147.13C60.4131 146.94 59.4787 146.893 58.5537 146.99C58.4872 146.753 58.4602 146.506 58.4737 146.26C58.4761 146.058 58.4996 145.857 58.5437 145.66C58.5747 145.52 58.6324 145.388 58.7137 145.27C58.7799 145.162 58.8728 145.072 58.9837 145.01C59.3792 144.912 59.7863 144.868 60.1937 144.88C60.9283 144.886 61.6598 144.976 62.3737 145.15C63.1223 145.255 63.806 145.632 64.2937 146.21C64.4663 146.544 64.5694 146.909 64.5969 147.284C64.6244 147.658 64.5757 148.035 64.4537 148.39L64.2137 149.45C64.0237 150.26 63.8337 151.1 63.6337 151.94C63.4337 152.78 63.2537 153.58 63.0637 154.32C62.8737 155.06 62.7037 155.69 62.5437 156.21C62.0836 156.351 61.6049 156.422 61.1237 156.42C60.5085 156.439 59.8933 156.379 59.2937 156.24ZM59.8837 154.47C60.0363 154.491 60.191 154.491 60.3437 154.47C60.4681 154.466 60.5891 154.428 60.6937 154.36C60.7537 154.17 60.8237 153.91 60.9237 153.56C61.0237 153.21 61.1137 152.84 61.2037 152.45C61.2937 152.06 61.3737 151.69 61.4537 151.36C61.3595 151.265 61.2472 151.191 61.1237 151.14C61.0135 151.094 60.8998 151.057 60.7837 151.03C60.642 150.999 60.4953 150.999 60.3537 151.03C60.204 151.057 60.0653 151.127 59.9537 151.23C59.8088 151.381 59.6935 151.557 59.6137 151.75C59.4831 152.041 59.3858 152.347 59.3237 152.66C59.2626 152.913 59.2224 153.17 59.2037 153.43C59.1902 153.609 59.2106 153.789 59.2637 153.96C59.3015 154.093 59.3825 154.209 59.4937 154.29C59.6066 154.382 59.7407 154.444 59.8837 154.47Z" fill="white"/>
</svg>
