<svg width="151" height="149" viewBox="0 0 151 149" fill="none" xmlns="http://www.w3.org/2000/svg">
<path d="M76.7537 126.73C106.273 126.73 130.204 102.8 130.204 73.28C130.204 43.7604 106.273 19.83 76.7537 19.83C47.234 19.83 23.3037 43.7604 23.3037 73.28C23.3037 102.8 47.234 126.73 76.7537 126.73Z" fill="white"/>
<path d="M17.2737 59.78C17.1284 59.8573 16.968 59.9017 16.8037 59.91C16.601 59.9303 16.3963 59.9064 16.2037 59.84C16.0226 59.7909 15.848 59.7204 15.6837 59.63C15.5076 59.5369 15.3373 59.4334 15.1737 59.32L3.71366 50L2.49366 54.12C2.49366 54.31 2.39366 54.51 2.34366 54.73C2.29927 54.9168 2.27579 55.108 2.27366 55.3L0.423662 54.75C0.352142 54.7458 0.282656 54.7246 0.220985 54.6881C0.159314 54.6517 0.107239 54.601 0.0690928 54.5404C0.0309463 54.4797 0.00783045 54.4109 0.00166793 54.3395C-0.00449458 54.2681 0.00647433 54.1963 0.0336623 54.13L2.25366 46.69C2.37388 46.6388 2.50298 46.6116 2.63366 46.61C2.79664 46.627 2.95746 46.6605 3.11366 46.71C3.4955 46.8248 3.85189 47.0115 4.16366 47.26L15.7337 56.71L17.0337 52.55C17.1202 52.2643 17.1903 51.9738 17.2437 51.68C17.2831 51.4181 17.2831 51.1519 17.2437 50.89L19.2437 51.49C19.3661 51.5218 19.4771 51.5877 19.5637 51.68C19.5929 51.7462 19.608 51.8177 19.608 51.89C19.608 51.9623 19.5929 52.0338 19.5637 52.1L17.2737 59.78Z" fill="#1A1A1A"/>
<path d="M21.9037 47.51C21.5974 48.2665 21.1057 48.9337 20.4737 49.45C19.9777 49.8222 19.3611 49.9969 18.7437 49.94C18.0063 49.8582 17.2889 49.6484 16.6237 49.32L8.76366 45.62C8.70296 45.6015 8.64675 45.5706 8.59856 45.5293C8.55037 45.488 8.51125 45.4372 8.48366 45.38C8.49767 45.1455 8.56251 44.9169 8.67366 44.71C8.82366 44.35 9.09366 43.71 9.48366 42.93L17.9537 46.93C18.2152 47.0596 18.4902 47.1602 18.7737 47.23C18.9785 47.2855 19.1968 47.2604 19.3837 47.16C19.5926 47.0096 19.7526 46.8009 19.8437 46.56C19.9297 46.3818 19.9936 46.1938 20.0337 46C20.0736 45.7784 20.0736 45.5516 20.0337 45.33L10.9237 41C10.8069 40.9564 10.7106 40.8709 10.6537 40.76C10.6609 40.5365 10.7191 40.3176 10.8237 40.12C10.9637 39.79 11.2237 39.21 11.6037 38.4L22.6737 43.6C22.7057 44.2056 22.6688 44.8128 22.5637 45.41C22.4394 46.1366 22.2174 46.843 21.9037 47.51Z" fill="#1A1A1A"/>
<path d="M23.9137 42.84L13.6337 36C13.7032 35.6028 13.8035 35.2116 13.9337 34.83C14.0803 34.37 14.2603 33.9 14.4737 33.42C14.6648 32.985 14.8923 32.5668 15.1537 32.17C15.5357 31.5473 16.0269 30.9985 16.6037 30.55C17.0399 30.2259 17.5844 30.0826 18.1237 30.15C18.8186 30.2784 19.4731 30.5697 20.0337 31L27.8137 36.17C27.9537 36.26 28.0337 36.36 28.0337 36.47C27.9828 36.7043 27.8841 36.9256 27.7437 37.12C27.5437 37.44 27.2037 37.98 26.7437 38.72L19.2437 33.72C18.8284 33.3795 18.3438 33.1338 17.8237 33C17.5137 33 17.2437 33.12 16.9937 33.49C16.8734 33.6813 16.7761 33.886 16.7037 34.1C16.6181 34.3127 16.5772 34.5408 16.5837 34.77L24.9637 40.33C25.0204 40.3593 25.0702 40.4003 25.1099 40.4503C25.1495 40.5003 25.1781 40.5581 25.1937 40.62C25.1485 40.8483 25.0528 41.0635 24.9137 41.25C24.7237 41.61 24.3937 42.13 23.9137 42.84Z" fill="#1A1A1A"/>
<path d="M31.1537 33.38C30.7512 33.838 30.2906 34.2414 29.7837 34.58C29.4074 34.8265 28.9912 35.0058 28.5537 35.11L15.6837 23.54C15.4479 23.3602 15.2789 23.1068 15.2037 22.82C15.1996 22.6805 15.2231 22.5415 15.2729 22.4111C15.3226 22.2806 15.3977 22.1613 15.4937 22.06C15.7137 21.76 16.0737 21.33 16.5637 20.78L21.4937 25.21C21.4891 24.7934 21.5744 24.3807 21.7437 24C21.9288 23.5834 22.1785 23.1987 22.4837 22.86C22.8898 22.4083 23.4355 22.1055 24.0337 22C24.6839 21.9145 25.3443 22.0445 25.9137 22.37C26.8187 22.8586 27.6559 23.4638 28.4037 24.17C29.3399 24.9876 30.1971 25.8916 30.9637 26.87C31.4854 27.5387 31.9003 28.2842 32.1937 29.08C32.4057 29.6514 32.4844 30.2636 32.4237 30.87C32.3732 31.3635 32.2272 31.8424 31.9937 32.28C31.7562 32.6772 31.4744 33.0463 31.1537 33.38ZM29.6837 31.53C29.8 31.3839 29.8697 31.2062 29.8837 31.02C29.8954 30.7034 29.823 30.3894 29.6737 30.11C29.4126 29.6048 29.0938 29.1317 28.7237 28.7C28.1067 27.9854 27.4383 27.3169 26.7237 26.7C26.2382 26.2468 25.7128 25.8384 25.1537 25.48C24.8438 25.2604 24.4818 25.1259 24.1037 25.09C23.9737 25.0866 23.8446 25.1117 23.7254 25.1635C23.6062 25.2153 23.4998 25.2926 23.4137 25.39C23.2667 25.5512 23.1544 25.7409 23.0839 25.9474C23.0133 26.1538 22.986 26.3726 23.0037 26.59L29.0337 32C29.1533 31.9809 29.2685 31.9403 29.3737 31.88C29.4963 31.782 29.6011 31.6636 29.6837 31.53Z" fill="#1A1A1A"/>
<path d="M38.0337 26.71C37.6132 27.076 37.1328 27.3669 36.6137 27.57C36.1074 27.7526 35.5603 27.7906 35.0337 27.68C34.3607 27.5185 33.7299 27.215 33.1837 26.79C32.3789 26.168 31.6505 25.4531 31.0137 24.66C30.1608 23.6923 29.4287 22.6245 28.8337 21.48C28.45 20.7527 28.2283 19.951 28.1837 19.13C28.1644 18.5189 28.3205 17.9151 28.6337 17.39C28.9479 16.8913 29.3395 16.4457 29.7937 16.07C30.1223 15.7591 30.517 15.5266 30.9482 15.3897C31.3794 15.2529 31.8359 15.2154 32.2837 15.28C33.3833 15.5729 34.3457 16.2416 35.0037 17.17C35.3837 17.64 35.7737 18.17 36.1537 18.65C36.4951 19.1095 36.7899 19.602 37.0337 20.12C36.6595 20.6046 36.2518 21.0624 35.8137 21.49C35.3337 21.96 34.8137 22.41 34.3837 22.84C33.9537 23.27 33.3837 23.74 32.7437 24.26L31.4137 22.61C31.8437 22.28 32.2037 21.98 32.5137 21.72C32.8177 21.4655 33.1081 21.1951 33.3837 20.91C33.6095 20.6782 33.8106 20.4235 33.9837 20.15C33.8873 19.9451 33.77 19.7508 33.6337 19.57C33.4637 19.35 33.3237 19.16 33.1837 19C32.848 18.5271 32.415 18.1315 31.9137 17.84C31.7758 17.8048 31.632 17.7995 31.4918 17.8244C31.3517 17.8492 31.2185 17.9037 31.1012 17.9842C30.9838 18.0646 30.8849 18.1692 30.8112 18.2909C30.7375 18.4127 30.6906 18.5487 30.6737 18.69C30.6497 19.0341 30.7151 19.3786 30.8637 19.69C31.0591 20.1497 31.3003 20.5886 31.5837 21C31.9337 21.51 32.4037 22.12 32.9737 22.8C33.3363 23.2258 33.7272 23.6267 34.1437 24C34.4384 24.2761 34.7762 24.5024 35.1437 24.67C35.4078 24.7967 35.7047 24.8387 35.9937 24.79C36.3129 24.7129 36.6083 24.5583 36.8537 24.34C37.2361 24.025 37.5727 23.6581 37.8537 23.25C38.1241 22.8377 38.3583 22.4028 38.5537 21.95C38.8073 22.1059 39.0422 22.2904 39.2537 22.5C39.4937 22.74 39.6937 22.95 39.8637 23.15C39.9753 23.2883 40.048 23.4539 40.0744 23.6296C40.1007 23.8054 40.0798 23.985 40.0137 24.15C39.87 24.6098 39.6391 25.0376 39.3337 25.41C38.9508 25.891 38.5147 26.3271 38.0337 26.71Z" fill="#1A1A1A"/>
<path d="M41.6737 23.54L31.6737 8.74C31.4878 8.51143 31.3886 8.22456 31.3937 7.93C31.4764 7.65222 31.6532 7.41184 31.8937 7.25C32.3162 6.89426 32.7568 6.56048 33.2137 6.25L43.5937 21.65C43.6716 21.7494 43.7107 21.8738 43.7037 22C43.5781 22.1918 43.4106 22.3526 43.2137 22.47C42.9237 22.69 42.4037 23.05 41.6737 23.54Z" fill="#1A1A1A"/>
<path d="M48.4237 19.7C47.9212 20.0299 47.3225 20.1814 46.7237 20.13C46.2256 20.031 45.779 19.758 45.4637 19.36C45.0387 18.849 44.6668 18.2962 44.3537 17.71L40.8737 11.36L39.4437 12.14C39.1237 11.55 38.8937 11.14 38.7537 10.83C38.6412 10.6428 38.5824 10.4284 38.5837 10.21C38.6005 10.1431 38.6327 10.0811 38.6779 10.029C38.7231 9.9769 38.7798 9.93613 38.8437 9.91L39.7937 9.39L37.9737 6.05C37.9074 5.9589 37.8638 5.85335 37.8464 5.74207C37.829 5.63079 37.8384 5.51696 37.8737 5.41C38.0184 5.17533 38.2218 4.98235 38.4637 4.85C38.7837 4.65 39.2537 4.38 39.8737 4.04L42.1137 8.12L44.1137 7.03C44.4437 7.62 44.6737 8.03 44.8237 8.34C44.9581 8.53404 45.0313 8.76395 45.0337 9C45.0169 9.06688 44.9846 9.12888 44.9394 9.18099C44.8943 9.2331 44.8375 9.27387 44.7737 9.3L43.2337 10.14L46.6837 16.45C46.8037 16.66 46.9237 16.87 47.0537 17.08C47.1567 17.2535 47.3054 17.3954 47.4837 17.49C47.5757 17.5243 47.6747 17.5358 47.7722 17.5237C47.8697 17.5115 47.9629 17.4759 48.0437 17.42C48.2477 17.3079 48.4389 17.1738 48.6137 17.02C48.798 16.8445 48.9593 16.6462 49.0937 16.43L49.4637 16.89C49.605 17.0824 49.7352 17.2827 49.8537 17.49C49.9416 17.6268 49.9949 17.783 50.0088 17.9451C50.0228 18.1072 49.997 18.2702 49.9337 18.42C49.7933 18.7209 49.5802 18.9821 49.3137 19.18C49.0363 19.3844 48.7379 19.5587 48.4237 19.7Z" fill="#1A1A1A"/>
<path d="M51.0337 18C50.6274 17.7743 50.3048 17.4236 50.1137 17C50.0578 16.8505 50.0143 16.6966 49.9837 16.54C49.9834 16.3588 50.0002 16.178 50.0337 16L50.7437 6.58L48.6237 7.43C48.2937 7.56 47.9737 7.7 47.6237 7.85C47.2737 8 47.0637 8.14 46.8537 8.26C46.7207 8.05602 46.6036 7.84204 46.5037 7.62C46.4337 7.43 46.3737 7.27 46.3237 7.16C46.1889 6.89474 46.1367 6.59521 46.1737 6.3C46.2147 6.18537 46.2823 6.0821 46.3709 5.99866C46.4596 5.91522 46.5668 5.85399 46.6837 5.82L52.3937 3.53C52.6272 3.68039 52.8114 3.89595 52.9237 4.15C52.9756 4.30677 53.0157 4.46722 53.0437 4.63C53.0882 4.89762 53.1083 5.16874 53.1037 5.44L52.5837 14.77L54.1437 14.14C54.6175 13.9575 55.0756 13.7368 55.5137 13.48C55.7807 13.3127 56.0348 13.1255 56.2737 12.92C56.3846 13.078 56.4816 13.2453 56.5637 13.42C56.6637 13.64 56.7437 13.81 56.7937 13.94C56.958 14.3254 57.0397 14.741 57.0337 15.16C57.0337 15.46 56.8037 15.7 56.4037 15.86L51.0337 18Z" fill="#1A1A1A"/>
<path d="M76.5537 118.62C101.699 118.62 122.084 98.2355 122.084 73.09C122.084 47.9445 101.699 27.56 76.5537 27.56C51.4081 27.56 31.0237 47.9445 31.0237 73.09C31.0237 98.2355 51.4081 118.62 76.5537 118.62Z" fill="#E0E8BF"/>
<path d="M98.2037 70.13L95.1037 66.27L92.3937 60.85L91.6237 56.59L90.4637 53.5L86.5937 49.24L80.0337 46.15L76.1637 42.66L75.2237 41.5L73.4337 40.34H71.2237L69.9537 39L69.1837 38L67.2437 39L63.3837 41.13L58.9737 39C59.1237 39.19 53.7037 41.51 53.7037 41.51L51.0337 43.82L49.8737 44.6L44.8737 43.44L42.7837 42.63C41.4316 44.1089 40.1789 45.6757 39.0337 47.32L39.4237 49.63L38.3337 53.31L36.3337 55.43L35.1337 57.75L37.6537 58.89V61.72L40.9337 64.72L41.3537 66.85L42.2937 67.92H45.3937L50.6137 71.68L55.6137 70.91L59.0937 74.39L61.0337 76.32L63.7637 79C64.1537 79.39 67.2437 81.71 67.2437 81.71L71.5037 80.55L72.6637 82.1L76.5337 83.26L79.6337 82.87L80.7937 81.71L83.1137 82.49L90.1137 82.87L91.6237 81H95.4937C95.4937 81 98.2037 81.38 98.5837 81.77C99.4013 82.3434 100.257 82.8612 101.144 83.32H103.904L104.784 82.16L98.5837 75.16L98.2037 70.13Z" fill="#F2F2F2"/>
<path d="M44.3637 40.89C43.3637 41.89 42.3637 43.02 41.3637 44.14L42.3637 44.4C42.8787 45.014 43.3216 45.6851 43.6837 46.4C43.6837 46.73 44.3337 50.68 44.3337 50.68H45.1437L45.6537 49.36V46.76L46.3137 44.4L47.6237 43.09L48.9437 43.74H51.9437L52.5937 42.1L53.5937 43.42L54.9037 42.76L55.9037 41.44L57.2237 41.77L58.4437 40.43L59.1937 42.43V44.07H60.1937L60.5237 41.44L61.6737 40.17L63.7937 40.79L64.1437 44.73V52.65L64.4737 53.65V54.52L64.9637 54.85L65.4537 53.65V50.29L65.7837 49.66V48.66L66.4437 48V49L67.1037 51.61V52.77L66.7737 54.24L67.1037 55.24V56.38L66.7737 57.82L67.1037 58.39L67.4337 59.46L67.1037 60.12L67.7637 60.78V61.51L68.0837 62.42L68.7437 62.75L69.1737 63.56L69.2337 64.7L70.0637 65.38L71.3737 65.05L71.7037 63.41V60.66L72.3637 58.54L72.6937 56.54L73.3437 54.54L73.6737 51.54L74.3337 49.54L75.3337 48.23L75.6637 46.58L76.3137 45.93H76.9737L77.3037 47.57L77.6237 49L77.2937 51.31L77.6237 52.18L78.2837 51.96L78.9337 50.32L78.6037 48L79.2637 45.7L79.5937 45.04L82.2237 44.04L83.5437 44.37L84.1937 45.37L85.5137 44.05L86.8237 43.72L87.4837 44.72L88.4837 44.39L90.7837 43.39L91.1137 44.04L93.4137 44.37L94.0737 44.04L96.0737 42.4L97.3837 40.76L99.0337 39.47L101.574 35C92.8152 29.2514 82.3426 26.6984 71.9212 27.7713C61.4999 28.8442 51.7671 33.4775 44.3637 40.89Z" fill="#9EAA6B"/>
<path d="M108.754 105.29C110.186 103.852 111.522 102.322 112.754 100.71L112.234 100.14L109.504 101.93L107.854 102.93L106.854 103.26L104.544 104.57L102.904 104.24L101.264 107.24L98.8237 109.87H94.3837L91.0337 109.16L90.0937 108.16L80.5637 107.16L79.2437 105.85V102.85L78.9137 98.57L78.2637 97.23V95.69L77.2637 92.69L76.2637 91.37L75.6137 90.37L75.0337 88.79V87.79L73.7137 85.79L73.3837 85.05L73.0337 83.66L73.3437 81.96V77.96L73.0337 75.46L72.7037 74.65L73.0337 73.57V72L72.0337 69.7L70.7137 67.7L69.7137 68.03L68.7137 69.5V79.91L68.0537 80.91V86.14L67.4037 86.47L66.1137 87.8L65.1137 88.8L64.8037 92.51L65.4337 95.38L64.8037 97.19V100.19L61.6537 100.61L60.1737 100.01L58.5337 98.01L55.2437 96.01L53.6037 93.71L52.9437 90.71C52.9437 90.71 51.9437 87.43 51.9437 87.1C51.9437 86.77 49.6337 85.78 49.6337 85.78L48.3237 83.48L48.0337 81.88L46.3937 79.25L45.2237 78.58V72.66L44.7437 69.72L44.0937 66.72L42.7737 67.05L41.7737 69.26V71.48L40.7737 72.96L41.7737 74.03V77.6L40.7737 80.23L39.4537 81.55L38.1137 81.09V78.51C37.5649 77.7444 37.1397 76.8974 36.8537 76C36.8537 75.34 36.2037 76.33 36.2037 76.33L35.8737 77.97L34.5537 79.62L33.2437 79.95H31.5337C32.7967 88.278 36.3446 96.0925 41.7831 102.525C47.2216 108.957 54.3374 113.755 62.3394 116.385C70.3415 119.015 78.9162 119.374 87.1102 117.422C95.3042 115.471 102.796 111.285 108.754 105.33V105.29Z" fill="#9EAA6B"/>
<path d="M120.354 60.62L120.284 60.83L119.094 68.61L116.334 74.61L114.774 76.07L113.624 74.71V71.92L112.864 70L112.094 69.16L110.544 71.25V76.8L110.144 80.07L108.584 83.71L106.644 86.27L105.854 90.27L104.684 93.55L103.134 92.82L101.584 94.65L100.794 97.2L98.7937 103.75L96.0337 107L94.6737 103.8L93.3337 100.97H88.3337L79.3337 99.34L76.8637 96.94L73.8637 98.59L68.7937 98.17L68.3937 97.83L66.1737 95L67.1737 92.51L66.6537 90.24V89.87L66.8437 86.58L66.3237 84.43L62.0337 83.94L60.5837 85.48L58.6937 86.33L57.6937 88.58L56.6437 90.46L55.3537 94.55L55.8437 96.34L52.8437 97.98L51.7537 99.14L48.4437 103L45.1737 106.09C52.4109 112.97 61.7087 117.28 71.6358 118.357C81.5629 119.435 91.5689 117.219 100.114 112.053C108.658 106.886 115.268 99.0538 118.925 89.7623C122.582 80.4708 123.084 70.2348 120.354 60.63V60.62Z" fill="#1A1A1A"/>
<path d="M76.5337 100.15L77.4137 97.68L78.6537 95.22L79.7037 92.57L81.4637 90.28L83.4037 87.29L83.7537 85.53V83.08V82.38V81.78L82.1737 82L81.2937 80.95L81.4637 79.71L81.6437 77.07L82.1737 74.43L83.2337 73.2L85.5237 71.96H85.9737V70.21L85.3437 69.67L84.9937 68.79L84.9037 67.92L84.6537 67.67L84.9937 66.5L85.9737 65.47H88.1137L89.2237 66.33L89.5737 67.56V68.49V69.42L89.0437 69.5L88.8637 70.2L88.6937 71.26L88.8637 71.96L90.4537 72.49L92.3937 73.9L92.9137 75.31L93.2737 77.6V79.82L92.9137 82.53L91.8637 83.24L92.2137 84.65L92.3937 86.06V88.52L92.2137 90.99L91.6837 93.28L91.5037 96.8L91.7837 99.97L91.8637 102.61L88.5137 102.44L88.3337 98.39L88.2537 92.02L87.8137 91.52L86.4437 92.02L83.5837 93.63L82.1737 95.57L80.9437 97.68L79.8837 101.03L79.1737 102.26L76.5337 100.15Z" fill="#1A1A1A"/>
<path d="M42.0937 43.33L42.3637 44.11L43.4137 44.76H44.1037L46.2037 44.42L47.9537 43.42L48.9537 44.42L49.2937 46.42L49.6337 48.71L49.9737 49.36L50.3237 51.36V52.44L50.6737 53.33H51.0337L51.7337 52.68V48.52L52.7837 46.69L53.1437 45.05L53.8437 44.05L54.5337 45.68L54.8737 47.98L55.5637 48.98H56.2637L56.6237 47.34L57.0337 44.38L58.4337 42.74L59.1437 39.46L60.8937 37.81L64.0337 37.14L66.1237 38.45L68.5637 36.8L76.2437 34.8L78.6837 35.45L80.7737 36.75L84.2437 39.69H85.6437L87.7337 39.35L89.4737 40.35L89.8237 41.35L92.6037 42.35L95.7437 42.67L98.8737 45.28L99.8737 47.57L99.5137 52.16L99.8537 53.95V56.41L100.194 57.41H101.194L101.894 55.41L102.604 53.41L104.004 53.08L104.344 53.73V60.6L104.694 62.6L105.034 64.6V65.48L105.734 65.26L106.094 63.62V60.9L106.454 57.96V55.71L106.834 54L107.894 51.7L108.254 49.08L109.644 48.74L111.034 51.06L111.364 55.98L111.704 58.27L112.394 59.58L113.784 59.25V56L114.134 53.69L115.194 51.69L117.304 53V54.36L118.194 54.59C115.188 47.8377 110.586 41.9178 104.782 37.3412C98.9788 32.7645 92.1491 29.6684 84.8823 28.3199C77.6154 26.9715 70.1296 27.4112 63.0706 29.6011C56.0116 31.791 49.5913 35.6654 44.3637 40.89C43.5737 41.68 42.8137 42.5 42.0937 43.33Z" fill="#1A1A1A"/>
<path d="M76.5537 28.33C86.9091 28.33 96.9443 31.9205 104.949 38.4899C112.954 45.0593 118.433 54.2011 120.454 64.3576C122.474 74.5141 120.91 85.0568 116.029 94.1896C111.147 103.322 103.25 110.48 93.6829 114.443C84.1157 118.406 73.4705 118.929 63.5609 115.923C53.6513 112.917 45.0906 106.568 39.3374 97.9575C33.5842 89.3472 30.9944 79.0085 32.0094 68.7029C33.0244 58.3973 37.5813 48.7624 44.9037 41.44C49.0491 37.2689 53.9813 33.9623 59.4143 31.7119C64.8473 29.4614 70.673 28.3119 76.5537 28.33ZM76.5537 27.55C66.0177 27.5492 55.8074 31.2017 47.6626 37.8851C39.5177 44.5685 33.9422 53.8692 31.886 64.2026C29.8299 74.536 31.4203 85.2626 36.3863 94.5548C41.3523 103.847 49.3867 111.13 59.1204 115.162C68.8541 119.195 79.6849 119.728 89.7674 116.67C99.8498 113.612 108.56 107.153 114.414 98.3928C120.268 89.6328 122.903 79.114 121.871 68.6287C120.839 58.1434 116.203 48.3404 108.754 40.89C104.53 36.6545 99.5111 33.2955 93.9851 31.0061C88.4591 28.7168 82.5351 27.5422 76.5537 27.55Z" fill="#1A1A1A"/>
<path d="M71.3637 19.83H76.7537V0L71.3637 19.83Z" fill="#1A1A1A"/>
<path d="M82.1437 19.83H76.7537V0L82.1437 19.83Z" fill="#6E8C03"/>
<path d="M130.204 67.89V73.28H150.034L130.204 67.89Z" fill="#1A1A1A"/>
<path d="M130.204 78.67V73.28H150.034L130.204 78.67Z" fill="#6E8C03"/>
<path d="M82.1437 126.73H76.7537V146.56L82.1437 126.73Z" fill="#1A1A1A"/>
<path d="M71.3637 126.73H76.7537V146.56L71.3637 126.73Z" fill="#6E8C03"/>
<path d="M23.3037 78.67V73.28H3.47366L23.3037 78.67Z" fill="#1A1A1A"/>
<path d="M23.3037 67.89V73.28H3.47366L23.3037 67.89Z" fill="#6E8C03"/>
<path d="M76.7537 126.62C106.213 126.62 130.094 102.739 130.094 73.28C130.094 43.8211 106.213 19.94 76.7537 19.94C47.2948 19.94 23.4137 43.8211 23.4137 73.28C23.4137 102.739 47.2948 126.62 76.7537 126.62Z" stroke="#1A1A1A" stroke-width="9.69" stroke-miterlimit="10"/>
<path d="M76.7637 28.25C81.3421 28.25 85.0537 24.5384 85.0537 19.96C85.0537 15.3816 81.3421 11.67 76.7637 11.67C72.1852 11.67 68.4737 15.3816 68.4737 19.96C68.4737 24.5384 72.1852 28.25 76.7637 28.25Z" fill="white" stroke="#1A1A1A" stroke-width="1.95" stroke-miterlimit="10"/>
<path d="M80.0337 24.81C79.8637 24.81 79.7137 24.81 79.4237 24.43L75.2137 19.43V24.37C75.2137 24.64 75.0937 24.79 74.8937 24.79H73.5037C73.2937 24.79 73.1737 24.64 73.1737 24.37V14.86C73.1737 14.59 73.2337 14.43 73.4737 14.43C73.5586 14.4322 73.6421 14.453 73.7181 14.491C73.7942 14.5291 73.8609 14.5833 73.9137 14.65L78.2637 19.88V14.88C78.2637 14.61 78.3837 14.45 78.5837 14.45H79.9437C80.1537 14.45 80.2737 14.61 80.2737 14.88V24.4C80.2737 24.67 80.1837 24.81 80.0337 24.81Z" fill="#1A1A1A"/>
<path d="M1.88366 91.1C1.76499 90.64 1.72776 90.1628 1.77366 89.69C1.82615 89.2328 2.00636 88.7996 2.29366 88.44C2.67732 87.9929 3.15096 87.6317 3.68366 87.38C4.46371 87.0028 5.28628 86.7208 6.13366 86.54C7.19926 86.2657 8.29348 86.118 9.39366 86.1C10.0823 86.0888 10.765 86.2288 11.3937 86.51C11.8666 86.7235 12.2665 87.0713 12.5437 87.51C12.8031 87.937 12.9922 88.4029 13.1037 88.89C13.2106 89.2599 13.2346 89.6488 13.1741 90.0291C13.1136 90.4093 12.9701 90.7715 12.7537 91.09C12.1107 91.8167 11.233 92.2945 10.2737 92.44C9.76366 92.55 9.27366 92.66 8.70366 92.75C8.22177 92.8338 7.73248 92.8673 7.24366 92.85C7.01441 92.383 6.82377 91.8981 6.67366 91.4C6.49366 90.85 6.33366 90.32 6.19366 89.79C6.05366 89.26 5.93366 88.68 5.77366 88L7.54366 87.63C7.63366 88.07 7.72366 88.47 7.80366 88.8C7.87977 89.1379 7.97323 89.4717 8.08366 89.8C8.17037 90.0598 8.28787 90.3082 8.43366 90.54C8.62637 90.5621 8.82096 90.5621 9.01366 90.54L9.61366 90.42C10.1243 90.335 10.6095 90.1368 11.0337 89.84C11.1138 89.7488 11.1734 89.6415 11.2086 89.5253C11.2437 89.409 11.2536 89.2867 11.2375 89.1663C11.2214 89.046 11.1797 88.9305 11.1152 88.8277C11.0507 88.7248 10.9649 88.6369 10.8637 88.57C10.6194 88.4313 10.3445 88.3557 10.0637 88.35C9.62575 88.3277 9.1867 88.3511 8.75366 88.42C8.11108 88.5105 7.47357 88.634 6.84366 88.79C6.36809 88.8942 5.9003 89.0312 5.44366 89.2C5.13155 89.3073 4.83804 89.4625 4.57366 89.66C4.37284 89.812 4.22854 90.0267 4.16366 90.27C4.08854 90.5382 4.08854 90.8218 4.16366 91.09C4.25757 91.4961 4.4091 91.8868 4.61366 92.25C4.8276 92.6013 5.06831 92.9357 5.33366 93.25C5.1198 93.382 4.89168 93.4893 4.65366 93.57C4.38366 93.66 4.13366 93.73 3.92366 93.78C3.78006 93.81 3.63117 93.8028 3.49115 93.7591C3.35112 93.7153 3.22462 93.6364 3.12366 93.53C2.82833 93.2447 2.59067 92.9052 2.42366 92.53C2.19517 92.0731 2.01422 91.5939 1.88366 91.1Z" fill="#1A1A1A"/>
<path d="M4.10366 98.7C3.87677 98.1121 3.75164 97.4899 3.73366 96.86C3.72093 96.6444 3.77834 96.4305 3.89731 96.2502C4.01628 96.07 4.19042 95.9331 4.39366 95.86C4.5795 95.8023 4.77034 95.7621 4.96366 95.74C5.21247 95.7055 5.46485 95.7055 5.71366 95.74C5.67378 96.0956 5.67378 96.4544 5.71366 96.81C5.74309 97.1506 5.8136 97.4863 5.92366 97.81C6.02211 98.1529 6.23805 98.4503 6.53366 98.65C6.66346 98.7235 6.80806 98.7671 6.95686 98.7774C7.10567 98.7878 7.25491 98.7648 7.39366 98.71C7.60191 98.6329 7.79742 98.5251 7.97366 98.39C8.20065 98.1875 8.38141 97.9385 8.50366 97.66L9.68366 95.13C9.88887 94.6687 10.1808 94.2511 10.5437 93.9C10.8313 93.6299 11.1718 93.4222 11.5437 93.29C11.9967 93.1197 12.4873 93.0748 12.9637 93.16C13.4672 93.2665 13.921 93.5374 14.2537 93.93C14.727 94.4793 15.0842 95.1189 15.3037 95.81C15.5256 96.3685 15.654 96.9598 15.6837 97.56C15.6982 97.8804 15.6068 98.1967 15.4237 98.46C15.299 98.6211 15.1332 98.7454 14.9437 98.82C14.5592 98.959 14.1382 98.959 13.7537 98.82C13.8168 98.4906 13.8337 98.154 13.8037 97.82C13.7682 97.4785 13.6909 97.1427 13.5737 96.82C13.4822 96.5026 13.3017 96.2181 13.0537 96C12.9645 95.9261 12.857 95.8777 12.7425 95.8601C12.628 95.8425 12.5109 95.8563 12.4037 95.9C12.2503 95.956 12.113 96.0487 12.0037 96.17C11.8039 96.4052 11.6451 96.6722 11.5337 96.96L10.5337 99.18C10.2977 99.6703 9.97984 100.117 9.59366 100.5C9.21848 100.814 8.78769 101.055 8.32366 101.21C7.91456 101.374 7.473 101.44 7.03389 101.403C6.59478 101.367 6.17018 101.229 5.79366 101C4.96667 100.467 4.365 99.6484 4.10366 98.7Z" fill="#1A1A1A"/>
<path d="M3.03366 107.13C2.8817 106.882 2.81826 106.589 2.85366 106.3C2.85366 106.09 3.08366 105.9 3.43366 105.73L15.7837 99.66C16.2473 99.9618 16.6678 100.325 17.0337 100.74C17.4273 101.186 17.7632 101.68 18.0337 102.21C18.3275 102.777 18.4915 103.402 18.5137 104.04C18.5049 104.671 18.2708 105.277 17.8537 105.75C17.2112 106.446 16.4315 107.001 15.5637 107.38C14.666 107.834 13.7409 108.231 12.7937 108.57C12.1473 108.807 11.4765 108.971 10.7937 109.06C10.3212 109.137 9.83791 109.117 9.37366 109C9.04167 108.911 8.73623 108.743 8.48366 108.51C8.25072 108.298 8.06061 108.044 7.92366 107.76C7.78741 107.489 7.693 107.199 7.64366 106.9C7.58764 106.657 7.58764 106.403 7.64366 106.16L3.64366 108.11C3.52366 107.97 3.40366 107.82 3.28366 107.65C3.18644 107.484 3.10283 107.31 3.03366 107.13ZM9.38366 106.2C9.46011 106.334 9.57508 106.442 9.71366 106.51C9.94872 106.602 10.2034 106.633 10.4537 106.6C10.9475 106.544 11.4318 106.423 11.8937 106.24C12.6986 105.952 13.4866 105.618 14.2537 105.24C14.7814 105.001 15.284 104.709 15.7537 104.37C16.0081 104.207 16.2014 103.964 16.3037 103.68C16.3512 103.444 16.3121 103.199 16.1937 102.99C16.0511 102.701 15.815 102.468 15.5237 102.33L9.52366 105.33C9.4229 105.483 9.3611 105.658 9.34366 105.84C9.32572 105.961 9.33599 106.084 9.37366 106.2H9.38366Z" fill="#1A1A1A"/>
<path d="M12.2137 115.22C11.9497 114.827 11.7568 114.39 11.6437 113.93C11.5325 113.483 11.5568 113.013 11.7137 112.58C11.9145 112.029 12.2357 111.531 12.6537 111.12C13.2527 110.501 13.9242 109.957 14.6537 109.5C15.5719 108.881 16.5626 108.377 17.6037 108C18.2609 107.753 18.9628 107.648 19.6637 107.69C20.1784 107.742 20.6677 107.939 21.0737 108.26C21.465 108.573 21.8028 108.948 22.0737 109.37C22.302 109.681 22.4574 110.039 22.5283 110.418C22.5993 110.797 22.584 111.188 22.4837 111.56C22.1279 112.462 21.461 113.207 20.6037 113.66C20.1737 113.94 19.7137 114.22 19.2337 114.49C18.8105 114.736 18.361 114.934 17.8937 115.08C17.5367 114.711 17.2028 114.32 16.8937 113.91C16.5437 113.45 16.2137 113 15.8937 112.55C15.5737 112.1 15.2337 111.55 14.8937 111.02L16.4437 110.02C16.6703 110.407 16.8803 110.74 17.0737 111.02C17.2637 111.31 17.4637 111.58 17.6737 111.84C17.8438 112.058 18.0384 112.256 18.2537 112.43C18.4355 112.362 18.6126 112.282 18.7837 112.19L19.3137 111.87C19.7504 111.619 20.1288 111.278 20.4237 110.87C20.4826 110.74 20.5044 110.597 20.4867 110.456C20.4691 110.315 20.4126 110.181 20.3237 110.07C20.2667 109.983 20.1933 109.909 20.1075 109.85C20.0217 109.792 19.9252 109.751 19.8237 109.73C19.5489 109.682 19.2664 109.706 19.0037 109.8C18.5842 109.925 18.1788 110.092 17.7937 110.3C17.3237 110.55 16.7937 110.88 16.1237 111.3C15.7134 111.559 15.3193 111.843 14.9437 112.15C14.6847 112.362 14.4589 112.611 14.2737 112.89C14.1386 113.101 14.0754 113.35 14.0937 113.6C14.1233 113.877 14.2231 114.142 14.3837 114.37C14.6105 114.721 14.8867 115.038 15.2037 115.31C15.5167 115.58 15.8511 115.824 16.2037 116.04C16.0439 116.236 15.8628 116.414 15.6637 116.57C15.4437 116.75 15.2337 116.9 15.0537 117.02C14.9247 117.09 14.7804 117.127 14.6337 117.127C14.487 117.127 14.3426 117.09 14.2137 117.02C13.8384 116.849 13.4991 116.608 13.2137 116.31C12.8439 115.982 12.5089 115.617 12.2137 115.22Z" fill="#1A1A1A"/>
<path d="M15.4837 119.5L27.4837 110.14C27.5635 110.044 27.6652 109.969 27.7802 109.92C27.8952 109.872 28.0201 109.851 28.1446 109.861C28.269 109.871 28.3892 109.911 28.4952 109.976C28.6012 110.042 28.6898 110.133 28.7537 110.24C29.0686 110.578 29.3656 110.931 29.6437 111.3L17.1937 121C17.1151 121.073 17.011 121.113 16.9037 121.11C16.7351 121.019 16.591 120.889 16.4837 120.73C16.2737 120.51 15.9437 120.09 15.4837 119.5Z" fill="#1A1A1A"/>
<path d="M20.3837 125.67C20.0565 125.323 19.7895 124.925 19.5937 124.49C19.4133 124.068 19.3577 123.603 19.4337 123.15C19.5403 122.573 19.7724 122.027 20.1137 121.55C20.602 120.833 21.18 120.181 21.8337 119.61C22.6208 118.842 23.497 118.17 24.4437 117.61C25.0543 117.247 25.7369 117.022 26.4437 116.95C26.9607 116.912 27.4778 117.023 27.9337 117.27C28.3753 117.509 28.774 117.82 29.1137 118.19C29.3906 118.459 29.6043 118.786 29.7392 119.147C29.8741 119.509 29.9269 119.896 29.8937 120.28C29.6963 121.231 29.164 122.079 28.3937 122.67C28.0237 123.03 27.6137 123.37 27.1837 123.67C26.8101 123.985 26.4045 124.26 25.9737 124.49C25.547 124.186 25.1427 123.852 24.7637 123.49C24.3337 123.1 23.9337 122.72 23.5437 122.33C23.1537 121.94 22.7337 121.5 22.2637 121L23.6237 119.8C23.9137 120.14 24.1837 120.44 24.4237 120.69C24.6494 120.944 24.8934 121.181 25.1537 121.4C25.356 121.587 25.5811 121.749 25.8237 121.88C25.9926 121.784 26.1531 121.673 26.3037 121.55L26.7637 121.15C27.1531 120.84 27.4733 120.451 27.7037 120.01C27.7388 119.872 27.7349 119.727 27.6925 119.591C27.6502 119.455 27.5709 119.334 27.4637 119.24C27.3219 119.091 27.1289 119.002 26.9237 118.99C26.6406 118.993 26.3626 119.065 26.1137 119.2C25.7257 119.427 25.3635 119.695 25.0337 120C24.5185 120.394 24.0244 120.814 23.5537 121.26C23.1982 121.57 22.8641 121.905 22.5537 122.26C22.3288 122.503 22.1493 122.784 22.0237 123.09C21.9253 123.324 21.9042 123.583 21.9637 123.83C22.044 124.097 22.1881 124.341 22.3837 124.54C22.6762 124.848 23.0133 125.111 23.3837 125.32C23.7432 125.534 24.1215 125.715 24.5137 125.86C24.3929 126.084 24.2451 126.292 24.0737 126.48C23.8837 126.69 23.7137 126.88 23.5537 127.03C23.4428 127.126 23.3093 127.192 23.1658 127.222C23.0222 127.251 22.8735 127.244 22.7337 127.2C22.3338 127.099 21.957 126.923 21.6237 126.68C21.1765 126.387 20.761 126.049 20.3837 125.67Z" fill="#1A1A1A"/>
<path d="M26.7437 131.77C26.3518 131.442 26.0143 131.054 25.7437 130.62C25.491 130.225 25.3848 129.755 25.4437 129.29C25.5278 128.669 25.7425 128.072 26.0737 127.54C26.5935 126.685 27.1892 125.878 27.8537 125.13C28.7503 123.901 29.9934 122.968 31.4237 122.45C31.9314 122.311 32.4661 122.305 32.9772 122.431C33.4882 122.557 33.9586 122.811 34.3437 123.17C34.8831 123.591 35.2923 124.156 35.5237 124.8C35.6818 125.476 35.5894 126.187 35.2637 126.8C34.7287 127.842 34.056 128.807 33.2637 129.67C32.3473 130.926 31.0965 131.9 29.6537 132.48C29.1484 132.621 28.6154 132.63 28.1058 132.505C27.5963 132.381 27.1272 132.128 26.7437 131.77ZM28.0337 130.39C28.1176 130.456 28.2143 130.503 28.3177 130.529C28.4211 130.555 28.5287 130.558 28.6337 130.54C29.0111 130.435 29.3554 130.236 29.6337 129.96C30.2635 129.393 30.8486 128.778 31.3837 128.12C31.9294 127.506 32.4402 126.861 32.9137 126.19C33.1457 125.899 33.3035 125.556 33.3737 125.19C33.3764 125.074 33.3516 124.959 33.3011 124.855C33.2507 124.751 33.1762 124.66 33.0837 124.59C32.9955 124.518 32.8923 124.466 32.7817 124.438C32.671 124.41 32.5555 124.408 32.4437 124.43C32.0655 124.538 31.7213 124.741 31.4437 125.02C30.8302 125.556 30.2647 126.145 29.7537 126.78C29.2887 127.303 28.8515 127.851 28.4437 128.42C28.2092 128.733 28.0049 129.068 27.8337 129.42C27.7411 129.606 27.7163 129.818 27.7637 130.02C27.8262 130.161 27.9182 130.287 28.0337 130.39Z" fill="#1A1A1A"/>
<path d="M31.3937 135.2L40.2237 122.8C40.3443 122.578 40.5444 122.41 40.7837 122.33C41.03 122.313 41.2743 122.384 41.4737 122.53C41.7537 122.69 42.1337 122.95 42.6337 123.3L33.4737 136.16C33.4465 136.207 33.4105 136.247 33.3676 136.28C33.3247 136.312 33.2758 136.336 33.2237 136.35C33.0366 136.313 32.8616 136.23 32.7137 136.11L31.3937 135.2Z" fill="#1A1A1A"/>
<path d="M37.8937 139.72C37.4437 139.468 37.0356 139.147 36.6837 138.77C36.3708 138.425 36.184 137.985 36.1537 137.52C36.1273 136.892 36.2329 136.265 36.4637 135.68C36.8264 134.751 37.268 133.854 37.7837 133C38.4396 131.638 39.4833 130.501 40.7837 129.73C41.2597 129.508 41.7838 129.409 42.3079 129.443C42.832 129.476 43.3394 129.64 43.7837 129.92C44.3838 130.24 44.8825 130.722 45.2237 131.31C45.502 131.941 45.5411 132.652 45.3337 133.31C45.0018 134.426 44.5208 135.492 43.9037 136.48C43.227 137.883 42.1659 139.066 40.8437 139.89C40.3776 140.113 39.8626 140.214 39.3468 140.185C38.8309 140.155 38.331 139.995 37.8937 139.72ZM38.8937 138.13C38.9844 138.185 39.0868 138.219 39.1927 138.228C39.2987 138.236 39.4052 138.22 39.5037 138.18C39.8583 138.008 40.1643 137.75 40.3937 137.43C40.9122 136.759 41.3801 136.05 41.7937 135.31C42.22 134.609 42.6073 133.884 42.9537 133.14C43.1372 132.799 43.2302 132.417 43.2237 132.03C43.2008 131.916 43.1531 131.809 43.0839 131.715C43.0148 131.622 42.9259 131.545 42.8237 131.49C42.7219 131.443 42.6109 131.418 42.4987 131.418C42.3864 131.418 42.2755 131.443 42.1737 131.49C41.8145 131.664 41.5049 131.925 41.2737 132.25C40.7686 132.88 40.3139 133.549 39.9137 134.25C39.4837 135 39.1537 135.61 38.9137 136.1C38.7394 136.456 38.5988 136.828 38.4937 137.21C38.4241 137.401 38.4241 137.609 38.4937 137.8C38.5908 137.948 38.7302 138.063 38.8937 138.13Z" fill="#1A1A1A"/>
<path d="M44.4537 147.64C43.7275 147.383 43.0704 146.962 42.5337 146.41C42.1919 146.068 41.9858 145.613 41.9537 145.13C41.9314 144.679 42.0277 144.231 42.233 143.829C42.4383 143.427 42.7454 143.086 43.1237 142.84C43.5822 142.551 44.0911 142.351 44.6237 142.25C45.1869 142.14 45.7641 142.12 46.3337 142.19L46.7637 143.09C46.4569 143.083 46.1515 143.134 45.8637 143.24C45.5668 143.335 45.2916 143.488 45.0537 143.69C44.8222 143.876 44.6402 144.117 44.5237 144.39C44.4499 144.557 44.4156 144.738 44.4237 144.92C44.4531 145.11 44.5531 145.281 44.7037 145.4C44.9378 145.591 45.2012 145.743 45.4837 145.85C45.6941 145.969 45.9298 146.037 46.1714 146.047C46.4131 146.058 46.6537 146.011 46.8737 145.91C47.1864 145.751 47.439 145.495 47.5937 145.18C47.6918 144.971 47.7265 144.738 47.6937 144.51C47.6121 144.245 47.4382 144.018 47.2037 143.87C46.7544 143.546 46.2756 143.265 45.7737 143.03C45.3511 142.81 44.9494 142.553 44.5737 142.26C44.2894 142.051 44.0596 141.777 43.9037 141.46C43.8419 141.334 43.8097 141.195 43.8097 141.055C43.8097 140.915 43.8419 140.776 43.9037 140.65C44.0267 140.417 44.197 140.213 44.4037 140.05C44.6688 139.846 44.9617 139.681 45.2737 139.56C45.6884 139.394 46.1166 139.263 46.5537 139.17L47.6237 140.1L47.3137 140.21C47.1292 140.284 46.9519 140.374 46.7837 140.48C46.6327 140.566 46.5108 140.695 46.4337 140.85C46.3637 141.02 46.5037 141.21 46.8737 141.4C47.2437 141.59 47.6737 141.86 48.1937 142.17C48.6566 142.445 49.0804 142.782 49.4537 143.17C49.7557 143.489 49.9604 143.888 50.0437 144.32C50.111 144.809 50.0309 145.307 49.8137 145.75C49.5636 146.365 49.1692 146.91 48.6637 147.34C48.1588 147.767 47.5329 148.026 46.8737 148.08C46.0425 148.146 45.2084 147.994 44.4537 147.64ZM47.7337 140.64C47.0566 140.399 46.4653 139.965 46.0337 139.39C45.7091 138.899 45.5481 138.318 45.5737 137.73C45.6182 137.074 45.7773 136.431 46.0437 135.83C46.3406 135.067 46.8094 134.383 47.4137 133.83C47.8822 133.417 48.4796 133.18 49.1037 133.16C49.7936 133.145 50.4778 133.289 51.1037 133.58C51.2981 133.662 51.4826 133.766 51.6537 133.89C51.8465 134.012 52.0215 134.16 52.1737 134.33V135.4C52.5322 135.796 52.7623 136.291 52.8337 136.82C52.9074 137.469 52.7928 138.125 52.5037 138.71C52.2527 139.348 51.8712 139.927 51.3837 140.41C50.961 140.812 50.4146 141.059 49.8337 141.11C49.1056 141.142 48.3817 140.983 47.7337 140.65V140.64ZM48.4937 139.14C48.7194 139.224 48.9679 139.224 49.1937 139.14C49.4733 139.019 49.7102 138.817 49.8737 138.56C50.167 138.132 50.4119 137.672 50.6037 137.19C50.8502 136.722 50.9741 136.199 50.9637 135.67C50.9405 135.501 50.8714 135.342 50.7638 135.209C50.6562 135.077 50.5143 134.977 50.3537 134.92C50.1333 134.845 49.8941 134.845 49.6737 134.92C49.3985 135.013 49.158 135.188 48.9837 135.42C48.6904 135.806 48.4515 136.229 48.2737 136.68C48.1044 137.064 47.9706 137.462 47.8737 137.87C47.7837 138.126 47.7837 138.404 47.8737 138.66C47.9383 138.78 48.0266 138.885 48.1332 138.969C48.2398 139.053 48.3624 139.115 48.4937 139.15V139.14ZM53.2137 136.75C52.9584 136.627 52.7198 136.473 52.5037 136.29C52.2314 136.067 51.971 135.83 51.7237 135.58C51.4637 135.33 51.1737 135.02 50.8637 134.67L51.2537 133.82L54.4137 135.18C54.4384 135.336 54.4384 135.494 54.4137 135.65C54.3758 135.864 54.3119 136.072 54.2237 136.27C54.1498 136.494 53.9921 136.68 53.7837 136.79C53.6914 136.823 53.5935 136.837 53.4957 136.832C53.3978 136.827 53.302 136.802 53.2137 136.76V136.75Z" fill="#1A1A1A"/>
<path d="M52.0337 146L55.1137 136.45C55.1679 136.202 55.3145 135.984 55.5237 135.84C55.7563 135.756 56.011 135.756 56.2437 135.84C56.5637 135.91 57.0137 136.04 57.6037 136.23L54.3537 146.33C54.3037 146.47 54.2437 146.55 54.1637 146.58C53.9668 146.596 53.7688 146.569 53.5837 146.5L52.0337 146ZM56.0337 134.49C55.9426 134.45 55.8629 134.388 55.8018 134.309C55.7407 134.231 55.7001 134.138 55.6837 134.04C55.6144 133.711 55.5842 133.376 55.5937 133.04C55.911 132.817 56.2454 132.62 56.5937 132.45C56.9637 132.27 57.3437 132.09 57.7237 131.93C58.1037 131.77 58.4237 131.64 58.7237 131.55C58.8808 131.491 59.0461 131.458 59.2137 131.45C59.4437 131.53 59.6037 131.77 59.6737 132.18C59.7333 132.568 59.7333 132.962 59.6737 133.35C59.4328 133.487 59.178 133.597 58.9137 133.68L57.8037 134.04L56.7237 134.34C56.4959 134.39 56.2655 134.426 56.0337 134.45V134.49Z" fill="#1A1A1A"/>
<path d="M59.2937 148.24C58.9093 148.153 58.5342 148.029 58.1737 147.87C57.8312 147.72 57.5295 147.49 57.2937 147.2C57.0342 146.865 56.8778 146.462 56.8437 146.04C56.8025 145.42 56.8667 144.798 57.0337 144.2C57.1583 143.593 57.3705 143.006 57.6637 142.46C57.859 142.064 58.1472 141.721 58.5037 141.46C58.7993 141.26 59.1465 141.148 59.5037 141.14C59.8396 141.119 60.1768 141.15 60.5037 141.23C60.7339 141.288 60.9609 141.358 61.1837 141.44C61.4444 141.522 61.6812 141.666 61.8737 141.86L62.0337 141C62.0937 140.76 62.1437 140.54 62.1837 140.34C62.2319 140.146 62.2319 139.944 62.1837 139.75C62.1446 139.594 62.0482 139.458 61.9137 139.37C61.7356 139.25 61.5347 139.169 61.3237 139.13C60.4131 138.94 59.4787 138.893 58.5537 138.99C58.4872 138.753 58.4602 138.506 58.4737 138.26C58.4761 138.058 58.4996 137.857 58.5437 137.66C58.5747 137.52 58.6324 137.388 58.7137 137.27C58.7799 137.162 58.8728 137.072 58.9837 137.01C59.3792 136.912 59.7863 136.868 60.1937 136.88C60.9283 136.886 61.6598 136.976 62.3737 137.15C63.1223 137.255 63.806 137.632 64.2937 138.21C64.4663 138.544 64.5694 138.909 64.5969 139.284C64.6244 139.658 64.5757 140.035 64.4537 140.39L64.2137 141.45C64.0237 142.26 63.8337 143.1 63.6337 143.94C63.4337 144.78 63.2537 145.58 63.0637 146.32C62.8737 147.06 62.7037 147.69 62.5437 148.21C62.0836 148.351 61.6049 148.422 61.1237 148.42C60.5085 148.439 59.8933 148.379 59.2937 148.24ZM59.8837 146.47C60.0363 146.491 60.191 146.491 60.3437 146.47C60.4681 146.466 60.5891 146.428 60.6937 146.36C60.7537 146.17 60.8237 145.91 60.9237 145.56C61.0237 145.21 61.1137 144.84 61.2037 144.45C61.2937 144.06 61.3737 143.69 61.4537 143.36C61.3595 143.265 61.2472 143.191 61.1237 143.14C61.0135 143.094 60.8998 143.057 60.7837 143.03C60.642 142.999 60.4953 142.999 60.3537 143.03C60.204 143.057 60.0653 143.127 59.9537 143.23C59.8088 143.381 59.6935 143.557 59.6137 143.75C59.4831 144.041 59.3858 144.347 59.3237 144.66C59.2626 144.913 59.2224 145.17 59.2037 145.43C59.1902 145.609 59.2106 145.789 59.2637 145.96C59.3015 146.093 59.3825 146.209 59.4937 146.29C59.6066 146.382 59.7407 146.444 59.8837 146.47Z" fill="#1A1A1A"/>
</svg>
