<svg width="27" height="28" viewBox="0 0 27 28" fill="none" xmlns="http://www.w3.org/2000/svg">
<line x1="4.5" y1="24" x2="4.5" y2="14" stroke="#8A8A8A"/>
<line x1="22.5" y1="28" x2="22.5" y2="14" stroke="#8A8A8A"/>
<line x1="5" y1="15.5" x2="23" y2="15.5" stroke="#8A8A8A"/>
<path d="M2.43781 10V9.28H4.43781V3.37L2.45781 4.84V3.96L4.15781 2.7H5.22781V9.28H6.87781V10H2.43781ZM10.5039 10.1C10.0639 10.1 9.68057 10.0233 9.35391 9.87C9.02724 9.71667 8.77391 9.49667 8.59391 9.21C8.42057 8.91667 8.33391 8.57333 8.33391 8.18C8.33391 7.74667 8.45057 7.37333 8.68391 7.06C8.92391 6.74667 9.30724 6.46667 9.83391 6.22L10.7839 5.75C11.1106 5.59667 11.3539 5.40667 11.5139 5.18C11.6806 4.94667 11.7639 4.69 11.7639 4.41C11.7639 4.07 11.6506 3.8 11.4239 3.6C11.1972 3.4 10.8906 3.3 10.5039 3.3C10.1239 3.3 9.82057 3.40333 9.59391 3.61C9.37391 3.81 9.26391 4.08 9.26391 4.42C9.26391 4.7 9.34391 4.95333 9.50391 5.18C9.66391 5.40667 9.89391 5.59333 10.1939 5.74L11.1439 6.2C11.6839 6.46 12.0739 6.74667 12.3139 7.06C12.5539 7.37333 12.6739 7.74667 12.6739 8.18C12.6739 8.76667 12.4772 9.23333 12.0839 9.58C11.6972 9.92667 11.1706 10.1 10.5039 10.1ZM10.5039 9.39C10.9306 9.39 11.2672 9.28 11.5139 9.06C11.7672 8.84 11.8939 8.54333 11.8939 8.17C11.8939 7.87 11.8106 7.59667 11.6439 7.35C11.4772 7.10333 11.2339 6.90333 10.9139 6.75L9.97391 6.28C9.46057 6.03333 9.08391 5.76 8.84391 5.46C8.60391 5.16 8.48391 4.80333 8.48391 4.39C8.48391 4.03 8.56724 3.71667 8.73391 3.45C8.90057 3.17667 9.13391 2.96667 9.43391 2.82C9.74057 2.66667 10.0972 2.59 10.5039 2.59C10.9106 2.59 11.2672 2.66667 11.5739 2.82C11.8806 2.96667 12.1172 3.17667 12.2839 3.45C12.4572 3.71667 12.5439 4.03 12.5439 4.39C12.5439 4.79667 12.4239 5.15 12.1839 5.45C11.9439 5.75 11.5539 6.03 11.0139 6.29L10.0739 6.75C9.76057 6.90333 9.52057 7.10333 9.35391 7.35C9.19391 7.59 9.11391 7.86 9.11391 8.16C9.11391 8.53333 9.23724 8.83333 9.48391 9.06C9.73724 9.28 10.0772 9.39 10.5039 9.39ZM14.47 11.8V4.5H15.26V5.47H15.47L15.23 5.8C15.23 5.36667 15.37 5.02667 15.65 4.78C15.9367 4.52667 16.3133 4.4 16.78 4.4C17.3333 4.4 17.7733 4.58333 18.1 4.95C18.4333 5.31 18.6 5.80333 18.6 6.43V8.06C18.6 8.48 18.5233 8.84333 18.37 9.15C18.2167 9.45 18.0033 9.68333 17.73 9.85C17.4633 10.0167 17.1467 10.1 16.78 10.1C16.32 10.1 15.9467 9.97333 15.66 9.72C15.3733 9.46667 15.23 9.12667 15.23 8.7L15.44 9.03H15.25L15.26 10.15V11.8H14.47ZM16.53 9.41C16.93 9.41 17.24 9.29 17.46 9.05C17.6867 8.81 17.8 8.47 17.8 8.03V6.47C17.8 6.02333 17.6867 5.68333 17.46 5.45C17.24 5.21 16.93 5.09 16.53 5.09C16.1433 5.09 15.8333 5.21333 15.6 5.46C15.3733 5.7 15.26 6.03667 15.26 6.47V8.03C15.26 8.46333 15.3733 8.80333 15.6 9.05C15.8333 9.29 16.1433 9.41 16.53 9.41ZM20.0661 10L22.0161 7.17L20.1861 4.5H21.1161L22.2761 6.28C22.3161 6.34667 22.3561 6.42333 22.3961 6.51C22.4428 6.59 22.4794 6.65333 22.5061 6.7C22.5328 6.65333 22.5661 6.59 22.6061 6.51C22.6528 6.42333 22.6961 6.34667 22.7361 6.28L23.8961 4.5H24.8161L22.9861 7.18L24.9261 10H23.9961L22.7561 8.12C22.7094 8.05333 22.6628 7.97333 22.6161 7.88C22.5761 7.78667 22.5394 7.71333 22.5061 7.66C22.4794 7.71333 22.4394 7.78667 22.3861 7.88C22.3328 7.97333 22.2828 8.05333 22.2361 8.12L20.9861 10H20.0661Z" fill="#8A8A8A"/>
</svg>
