<svg width="51" height="45" viewBox="0 0 51 45" fill="none" xmlns="http://www.w3.org/2000/svg">
<path d="M18.5 26.5L12.9232 27.9943L17.0057 32.0768L18.5 26.5ZM0.499998 44.5L0.853552 44.8536L15.6716 30.0355L15.318 29.682L14.9645 29.3284L0.146445 44.1464L0.499998 44.5Z" fill="#8A8A8A"/>
<path d="M22 23L33.5 11H48.5" stroke="#8A8A8A"/>
<path d="M33.312 8.08C32.96 8.08 32.6507 8.01067 32.384 7.872C32.1227 7.728 31.92 7.53067 31.776 7.28C31.632 7.02933 31.56 6.736 31.56 6.4H32.28C32.28 6.72533 32.3707 6.98133 32.552 7.168C32.7387 7.34933 32.9947 7.44 33.32 7.44C33.6507 7.44 33.9067 7.344 34.088 7.152C34.2693 6.96 34.36 6.70933 34.36 6.4V5.984C34.36 5.65333 34.2693 5.39733 34.088 5.216C33.9067 5.03467 33.6507 4.944 33.32 4.944H32.72V4.224L34.168 2.816H31.8V2.16H34.896V2.88L33.336 4.392V4.304C33.8693 4.304 34.2933 4.456 34.608 4.76C34.9227 5.064 35.08 5.472 35.08 5.984V6.4C35.08 6.736 35.0053 7.02933 34.856 7.28C34.712 7.53067 34.5067 7.728 34.24 7.872C33.9733 8.01067 33.664 8.08 33.312 8.08ZM36.5329 8V7.264L38.3169 5.368C38.6209 5.04267 38.8422 4.75467 38.9809 4.504C39.1195 4.248 39.1889 4.00267 39.1889 3.768C39.1889 3.44267 39.0982 3.18667 38.9169 3C38.7409 2.81333 38.4982 2.72 38.1889 2.72C37.8475 2.72 37.5782 2.816 37.3809 3.008C37.1889 3.2 37.0929 3.464 37.0929 3.8H36.3729C36.3835 3.448 36.4635 3.144 36.6129 2.888C36.7675 2.62667 36.9782 2.42667 37.2449 2.288C37.5169 2.14933 37.8315 2.08 38.1889 2.08C38.5409 2.08 38.8449 2.14933 39.1009 2.288C39.3622 2.42133 39.5622 2.61333 39.7009 2.864C39.8395 3.11467 39.9089 3.41333 39.9089 3.76C39.9089 4.09067 39.8209 4.41867 39.6449 4.744C39.4689 5.06933 39.1809 5.44 38.7809 5.856L37.3409 7.344H40.0049V8H36.5329ZM41.3298 9.44V3.6H42.0498V4.44H42.1938L42.0498 4.608C42.0498 4.272 42.1591 4.008 42.3778 3.816C42.6018 3.61867 42.8951 3.52 43.2578 3.52C43.7004 3.52 44.0524 3.66667 44.3138 3.96C44.5804 4.248 44.7138 4.64533 44.7138 5.152V6.44C44.7138 6.776 44.6524 7.06667 44.5298 7.312C44.4124 7.55733 44.2444 7.74667 44.0258 7.88C43.8124 8.01333 43.5564 8.08 43.2578 8.08C42.9004 8.08 42.6098 7.98133 42.3858 7.784C42.1618 7.58667 42.0498 7.32267 42.0498 6.992L42.1938 7.16H42.0338L42.0498 8.16V9.44H41.3298ZM43.0178 7.456C43.3218 7.456 43.5591 7.36533 43.7298 7.184C43.9058 7.00267 43.9938 6.74133 43.9938 6.4V5.2C43.9938 4.85867 43.9058 4.59733 43.7298 4.416C43.5591 4.23467 43.3218 4.144 43.0178 4.144C42.7244 4.144 42.4898 4.23733 42.3138 4.424C42.1378 4.61067 42.0498 4.86933 42.0498 5.2V6.4C42.0498 6.73067 42.1378 6.98933 42.3138 7.176C42.4898 7.36267 42.7244 7.456 43.0178 7.456ZM45.7906 8L47.3506 5.736L45.8866 3.6H46.7346L47.6066 4.96C47.644 5.01867 47.6786 5.08267 47.7106 5.152C47.748 5.22133 47.7773 5.27733 47.7986 5.32C47.8146 5.27733 47.8386 5.22133 47.8706 5.152C47.908 5.08267 47.9453 5.01867 47.9826 4.96L48.8626 3.6H49.7026L48.2386 5.744L49.7906 8H48.9426L47.9986 6.56C47.9613 6.50133 47.924 6.43467 47.8866 6.36C47.8546 6.28 47.8253 6.216 47.7986 6.168C47.7773 6.216 47.7453 6.28 47.7026 6.36C47.6653 6.43467 47.6253 6.50133 47.5826 6.56L46.6306 8H45.7906Z" fill="#8A8A8A"/>
</svg>
