<svg width="501" height="501" viewBox="0 0 501 501" fill="none" xmlns="http://www.w3.org/2000/svg">
<path d="M0.250068 0L0.250057 500M150.25 0L150.25 500M25.25 0L25.25 500M175.25 0L175.25 500M200.25 0L200.25 500M125.25 0L125.25 500M100.25 0L100.25 500M250.25 0L250.25 500M75.2501 0L75.2501 500M225.25 0L225.25 500M50.25 0L50.25 500M3.05176e-05 0.249978L500 0.25M3.05176e-05 150.25L500 150.25M3.05176e-05 25.25L500 25.25M3.05176e-05 175.25L500 175.25M3.05176e-05 200.25L500 200.25M3.05176e-05 125.25L500 125.25M3.05176e-05 100.25L500 100.25M3.05176e-05 250.25L500 250.25M3.05176e-05 75.25L500 75.25M3.05176e-05 225.25L500 225.25M3.05176e-05 50.25L500 50.25M400.25 0V500M275.25 0V500M425.25 0V500M450.25 0V500M375.25 0V500M350.25 0V500M500.25 0V500M325.25 0V500M475.25 0V500M300.25 0V500M3.05176e-05 400.25H500M3.05176e-05 275.25H500M3.05176e-05 425.25H500M3.05176e-05 450.25H500M3.05176e-05 375.25H500M3.05176e-05 350.25H500M3.05176e-05 500.25H500M3.05176e-05 325.25H500M3.05176e-05 475.25H500M3.05176e-05 300.25H500" stroke="url(#paint0_radial_101_942)" stroke-width="0.5"/>
<defs>
<radialGradient id="paint0_radial_101_942" cx="0" cy="0" r="1" gradientUnits="userSpaceOnUse" gradientTransform="translate(250.125 250.125) rotate(90) scale(250.125 250.125)">
<stop stop-color="#787878"/>
<stop offset="1" stop-color="#666666" stop-opacity="0"/>
</radialGradient>
</defs>
</svg>
