<svg width="61" height="100" viewBox="0 0 61 100" fill="none" xmlns="http://www.w3.org/2000/svg">
<path d="M0.423996 5.15997C0.423996 2.39854 2.66257 0.159973 5.424 0.159973H13.984C16.7454 0.159973 18.984 2.39855 18.984 5.15997V95C18.984 97.7614 16.7454 100 13.984 100H5.424C2.66257 100 0.423996 97.7614 0.423996 95V5.15997ZM38.9073 42.5211C39.8392 41.6222 41.0835 41.12 42.3783 41.12H51.1413C55.6395 41.12 57.8501 46.5962 54.6123 49.7189L41.5997 62.2691C39.7379 64.0648 39.553 66.9841 41.1734 69.0003L59.5521 91.8677C62.1818 95.1397 59.8525 100 55.6548 100H45.6796C44.1764 100 42.7529 99.3237 41.8034 98.1583L18.0488 69.0049C16.4067 66.9897 16.5828 64.0523 18.4539 62.2477L38.9073 42.5211Z" fill="#363636"/>
</svg>
