<svg width="81" height="122" viewBox="0 0 81 122" fill="none" xmlns="http://www.w3.org/2000/svg">
<path d="M0.765385 4.99999C0.765385 2.23857 3.00396 0 5.76538 0H18.4151C21.1765 0 23.4151 2.23858 23.4151 5V116.84C23.4151 119.601 21.1766 121.84 18.4151 121.84H5.76539C3.00397 121.84 0.765385 119.601 0.765385 116.84V4.99999ZM46.1344 53.233C48.0291 51.4056 51.0161 51.3602 52.9655 53.1291L59.2788 58.8582C61.3323 60.7216 61.4772 63.9001 59.6018 65.9426L49.9081 76.4997C48.2369 78.3198 48.1458 81.0877 49.6938 83.0137L74.3627 113.708C76.9924 116.98 74.6632 121.84 70.4654 121.84H55.4697C53.9665 121.84 52.543 121.164 51.5935 119.998L21.6337 83.2296C19.9917 81.2143 20.1678 78.2769 22.0389 76.4723L46.1344 53.233Z" fill="#363636"/>
<circle cx="66.6644" cy="43.9327" r="9.76282" fill="#FF197C"/>
</svg>
