<svg width="129" height="129" viewBox="0 0 129 129" fill="none" xmlns="http://www.w3.org/2000/svg">
<rect x="9.85254" y="9.85254" width="110.223" height="110.223" stroke="white" stroke-width="3" stroke-dasharray="8 8"/>
<rect x="115.223" y="115.223" width="11.777" height="11.777" fill="#172336" stroke="white" stroke-width="4"/>
<rect x="115.223" y="2" width="11.777" height="11.777" fill="#172336" stroke="white" stroke-width="4"/>
<rect x="2" y="2" width="11.777" height="11.777" fill="#172336" stroke="white" stroke-width="4"/>
<rect x="2" y="115.223" width="11.777" height="11.777" fill="#172336" stroke="white" stroke-width="4"/>
<path d="M38.0504 22.6331C38.0504 19.8717 40.2889 17.6331 43.0504 17.6331H50.2751C53.0365 17.6331 55.2751 19.8717 55.2751 22.6331V105.29C55.2751 108.052 53.0365 110.29 50.2751 110.29H43.0504C40.2889 110.29 38.0504 108.052 38.0504 105.29V22.6331ZM71.7463 58.8937C73.641 57.0663 76.628 57.0209 78.5774 58.7898L81.6568 61.5842C83.7102 63.4476 83.8551 66.6262 81.9797 68.6687L76.1186 75.0518C74.4474 76.8719 74.3563 79.6398 75.9043 81.5658L92.4544 102.158C95.0841 105.43 92.7549 110.29 88.5571 110.29H80.2211C78.7178 110.29 77.2944 109.614 76.3449 108.449L54.6161 81.7817C52.9741 79.7664 53.1502 76.829 55.0213 75.0244L71.7463 58.8937Z" fill="white"/>
<circle cx="87.2374" cy="51.9712" r="7.42446" fill="#FF197C"/>
</svg>
