<svg width="140" height="90" viewBox="0 0 140 90" fill="none" xmlns="http://www.w3.org/2000/svg">
<path d="M45 0H50V5H45V0Z" fill="#0E2E4A"/>
<path d="M40 85H45V90H40V85Z" fill="#0E2E4A"/>
<path d="M85 80H90V85H85V80Z" fill="#0E2E4A"/>
<path d="M85 75H90V80H85V75Z" fill="#0E2E4A"/>
<path d="M50 45H55V50H50V45Z" fill="#0E2E4A"/>
<path d="M45 15H50V20H45V15Z" fill="#0E2E4A"/>
<path d="M65 0H70V5H65V0Z" fill="#0E2E4A"/>
<path d="M60 85H65V90H60V85Z" fill="#0E2E4A"/>
<path d="M60 80H65V85H60V80Z" fill="#0E2E4A"/>
<path d="M105 85H110V90H105V85Z" fill="#0E2E4A"/>
<path d="M70 45H75V50H70V45Z" fill="#0E2E4A"/>
<path d="M10 5H15V10H10V5Z" fill="#0E2E4A"/>
<path d="M65 5H70V10H65V5Z" fill="#EBD6A6"/>
<path d="M30 10H35V15H30V10Z" fill="#EBD6A6"/>
<path d="M65 10H70V15H65V10Z" fill="#718899"/>
<path d="M65 15H70V20H65V15Z" fill="#718899"/>
<path d="M65 20H70V25H65V20Z" fill="#718899"/>
<path d="M65 25H70V30H65V25Z" fill="#718899"/>
<path d="M65 30H70V35H65V30Z" fill="#718899"/>
<path d="M65 55H70V60H65V55Z" fill="#718899"/>
<path d="M60 60H65V65H60V60Z" fill="#718899"/>
<path d="M65 35H70V40H65V35Z" fill="#314D62"/>
<path d="M65 40H70V45H65V40Z" fill="#314D62"/>
<path d="M70 50H75V55H70V50Z" fill="#314D62"/>
<path d="M85 0H90V5H85V0Z" fill="#0E2E4A"/>
<path d="M90 45H95V50H90V45Z" fill="#0E2E4A"/>
<path d="M30 5H35V10H30V5Z" fill="#0E2E4A"/>
<path d="M85 5H90V10H85V5Z" fill="#EBD6A6"/>
<path d="M85 10H90V15H85V10Z" fill="#718899"/>
<path d="M85 15H90V20H85V15Z" fill="#718899"/>
<path d="M85 20H90V25H85V20Z" fill="#718899"/>
<path d="M85 25H90V30H85V25Z" fill="#718899"/>
<path d="M85 40H90V45H85V40Z" fill="#314D62"/>
<path d="M85 30H90V35H85V30Z" fill="#718899"/>
<path d="M85 55H90V60H85V55Z" fill="#718899"/>
<path d="M80 60H85V65H80V60Z" fill="#718899"/>
<path d="M85 35H90V40H85V35Z" fill="#314D62"/>
<path d="M90 50H95V55H90V50Z" fill="#314D62"/>
<path d="M105 0H110V5H105V0Z" fill="#0E2E4A"/>
<path d="M105 5H110V10H105V5Z" fill="#EBD6A6"/>
<path d="M105 10H110V15H105V10Z" fill="#718899"/>
<path d="M105 15H110V20H105V15Z" fill="#718899"/>
<path d="M105 20H110V25H105V20Z" fill="#718899"/>
<path d="M105 25H110V30H105V25Z" fill="#718899"/>
<path d="M105 30H110V35H105V30Z" fill="#718899"/>
<path d="M105 35H110V40H105V35Z" fill="#0E2E4A"/>
<path d="M105 40H110V45H105V40Z" fill="#0E2E4A"/>
<path d="M125 0H130V5H125V0Z" fill="#0E2E4A"/>
<path d="M125 5H130V10H125V5Z" fill="#EBD6A6"/>
<path d="M125 10H130V15H125V10Z" fill="#718899"/>
<path d="M50 0H55V5H50V0Z" fill="#0E2E4A"/>
<path d="M45 85H50V90H45V85Z" fill="#0E2E4A"/>
<path d="M90 80H95V85H90V80Z" fill="#0E2E4A"/>
<path d="M90 75H95V80H90V75Z" fill="#0E2E4A"/>
<path d="M55 45H60V50H55V45Z" fill="#0E2E4A"/>
<path d="M55 50H60V55H55V50Z" fill="#0E2E4A"/>
<path d="M55 55H60V60H55V55Z" fill="#0E2E4A"/>
<path d="M50 55H55V60H50V55Z" fill="#0E2E4A"/>
<path d="M50 60H55V65H50V60Z" fill="#0E2E4A"/>
<path d="M45 60H50V65H45V60Z" fill="#0E2E4A"/>
<path d="M45 65H50V70H45V65Z" fill="#0E2E4A"/>
<path d="M40 65H45V70H40V65Z" fill="#0E2E4A"/>
<path d="M40 70H45V75H40V70Z" fill="#0E2E4A"/>
<path d="M35 70H40V75H35V70Z" fill="#0E2E4A"/>
<path d="M115 70H120V75H115V70Z" fill="#0E2E4A"/>
<path d="M115 65H120V70H115V65Z" fill="#0E2E4A"/>
<path d="M110 65H115V70H110V65Z" fill="#0E2E4A"/>
<path d="M110 60H115V65H110V60Z" fill="#0E2E4A"/>
<path d="M105 60H110V65H105V60Z" fill="#0E2E4A"/>
<path d="M105 55H110V60H105V55Z" fill="#0E2E4A"/>
<path d="M100 55H105V60H100V55Z" fill="#0E2E4A"/>
<path d="M100 50H105V55H100V50Z" fill="#0E2E4A"/>
<path d="M35 75H40V80H35V75Z" fill="#0E2E4A"/>
<path d="M120 70H125V75H120V70Z" fill="#0E2E4A"/>
<path d="M35 80H40V85H35V80Z" fill="#0E2E4A"/>
<path d="M120 75H125V80H120V75Z" fill="#0E2E4A"/>
<path d="M35 85H40V90H35V85Z" fill="#0E2E4A"/>
<path d="M120 80H125V85H120V80Z" fill="#0E2E4A"/>
<path d="M80 80H85V85H80V80Z" fill="#0E2E4A"/>
<path d="M80 75H85V80H80V75Z" fill="#0E2E4A"/>
<path d="M50 5H55V10H50V5Z" fill="#EBD6A6"/>
<path d="M40 75H45V80H40V75Z" fill="#EBD6A6"/>
<path d="M105 75H110V80H105V75Z" fill="#EBD6A6"/>
<path d="M15 10H20V15H15V10Z" fill="#EBD6A6"/>
<path d="M45 5H50V10H45V5Z" fill="#0E2E4A"/>
<path d="M45 20H50V25H45V20Z" fill="#0E2E4A"/>
<path d="M45 10H50V15H45V10Z" fill="#0E2E4A"/>
<path d="M45 25H50V30H45V25Z" fill="#0E2E4A"/>
<path d="M45 30H50V35H45V30Z" fill="#0E2E4A"/>
<path d="M45 35H50V40H45V35Z" fill="#0E2E4A"/>
<path d="M50 40H55V45H50V40Z" fill="#0E2E4A"/>
<path d="M50 10H55V15H50V10Z" fill="#EBD6A6"/>
<path d="M70 0H75V5H70V0Z" fill="#0E2E4A"/>
<path d="M65 80H70V85H65V80Z" fill="#0E2E4A"/>
<path d="M65 75H70V80H65V75Z" fill="#0E2E4A"/>
<path d="M110 85H115V90H110V85Z" fill="#0E2E4A"/>
<path d="M75 45H80V50H75V45Z" fill="#0E2E4A"/>
<path d="M15 5H20V10H15V5Z" fill="#0E2E4A"/>
<path d="M70 5H75V10H70V5Z" fill="#EBD6A6"/>
<path d="M35 10H40V15H35V10Z" fill="#EBD6A6"/>
<path d="M70 10H75V15H70V10Z" fill="#718899"/>
<path d="M70 15H75V20H70V15Z" fill="#718899"/>
<path d="M70 40H75V45H70V40Z" fill="#314D62"/>
<path d="M70 20H75V25H70V20Z" fill="#718899"/>
<path d="M70 25H75V30H70V25Z" fill="#718899"/>
<path d="M70 30H75V35H70V30Z" fill="#718899"/>
<path d="M70 55H75V60H70V55Z" fill="#718899"/>
<path d="M65 60H70V65H65V60Z" fill="#718899"/>
<path d="M70 35H75V40H70V35Z" fill="#314D62"/>
<path d="M75 50H80V55H75V50Z" fill="#314D62"/>
<path d="M90 0H95V5H90V0Z" fill="#0E2E4A"/>
<path d="M95 45H100V50H95V45Z" fill="#0E2E4A"/>
<path d="M35 5H40V10H35V5Z" fill="#0E2E4A"/>
<path d="M90 5H95V10H90V5Z" fill="#EBD6A6"/>
<path d="M90 40H95V45H90V40Z" fill="#314D62"/>
<path d="M90 10H95V15H90V10Z" fill="#718899"/>
<path d="M90 15H95V20H90V15Z" fill="#718899"/>
<path d="M90 20H95V25H90V20Z" fill="#718899"/>
<path d="M90 25H95V30H90V25Z" fill="#718899"/>
<path d="M90 30H95V35H90V30Z" fill="#718899"/>
<path d="M90 55H95V60H90V55Z" fill="#718899"/>
<path d="M95 55H100V60H95V55Z" fill="#718899"/>
<path d="M85 60H90V65H85V60Z" fill="#718899"/>
<path d="M90 60H95V65H90V60Z" fill="#718899"/>
<path d="M95 60H100V65H95V60Z" fill="#718899"/>
<path d="M100 60H105V65H100V60Z" fill="#718899"/>
<path d="M90 35H95V40H90V35Z" fill="#314D62"/>
<path d="M95 50H100V55H95V50Z" fill="#314D62"/>
<path d="M110 0H115V5H110V0Z" fill="#0E2E4A"/>
<path d="M110 5H115V10H110V5Z" fill="#EBD6A6"/>
<path d="M110 10H115V15H110V10Z" fill="#718899"/>
<path d="M110 15H115V20H110V15Z" fill="#718899"/>
<path d="M110 20H115V25H110V20Z" fill="#718899"/>
<path d="M110 25H115V30H110V25Z" fill="#718899"/>
<path d="M110 30H115V35H110V30Z" fill="#0E2E4A"/>
<path d="M110 35H115V40H110V35Z" fill="#0E2E4A"/>
<path d="M130 0H135V5H130V0Z" fill="#0E2E4A"/>
<path d="M130 5H135V10H130V5Z" fill="#EBD6A6"/>
<path d="M130 10H135V15H130V10Z" fill="#718899"/>
<path d="M55 0H60V5H55V0Z" fill="#0E2E4A"/>
<path d="M50 85H55V90H50V85Z" fill="#0E2E4A"/>
<path d="M95 85H100V90H95V85Z" fill="#0E2E4A"/>
<path d="M95 80H100V85H95V80Z" fill="#0E2E4A"/>
<path d="M60 45H65V50H60V45Z" fill="#0E2E4A"/>
<path d="M0 5H5V10H0V5Z" fill="#0E2E4A"/>
<path d="M0 10H5V15H0V10Z" fill="#0E2E4A"/>
<path d="M5 15H10V20H5V15Z" fill="#0E2E4A"/>
<path d="M5 20H10V25H5V20Z" fill="#0E2E4A"/>
<path d="M10 20H15V25H10V20Z" fill="#0E2E4A"/>
<path d="M10 25H15V30H10V25Z" fill="#0E2E4A"/>
<path d="M15 25H20V30H15V25Z" fill="#0E2E4A"/>
<path d="M15 30H20V35H15V30Z" fill="#0E2E4A"/>
<path d="M20 30H25V35H20V30Z" fill="#0E2E4A"/>
<path d="M20 35H25V40H20V35Z" fill="#0E2E4A"/>
<path d="M25 35H30V40H25V35Z" fill="#0E2E4A"/>
<path d="M30 35H35V40H30V35Z" fill="#0E2E4A"/>
<path d="M35 35H40V40H35V35Z" fill="#0E2E4A"/>
<path d="M40 35H45V40H40V35Z" fill="#0E2E4A"/>
<path d="M45 40H50V45H45V40Z" fill="#0E2E4A"/>
<path d="M40 40H45V45H40V40Z" fill="#0E2E4A"/>
<path d="M35 40H40V45H35V40Z" fill="#0E2E4A"/>
<path d="M30 40H35V45H30V40Z" fill="#0E2E4A"/>
<path d="M0 15H5V20H0V15Z" fill="#0E2E4A"/>
<path d="M55 5H60V10H55V5Z" fill="#EBD6A6"/>
<path d="M45 75H50V80H45V75Z" fill="#EBD6A6"/>
<path d="M110 75H115V80H110V75Z" fill="#EBD6A6"/>
<path d="M20 10H25V15H20V10Z" fill="#EBD6A6"/>
<path d="M55 10H60V15H55V10Z" fill="#718899"/>
<path d="M10 10H15V15H10V10Z" fill="#718899"/>
<path d="M10 15H15V20H10V15Z" fill="#718899"/>
<path d="M15 15H20V20H15V15Z" fill="#718899"/>
<path d="M15 20H20V25H15V20Z" fill="#718899"/>
<path d="M30 15H35V20H30V15Z" fill="#718899"/>
<path d="M30 20H35V25H30V20Z" fill="#718899"/>
<path d="M30 25H35V30H30V25Z" fill="#718899"/>
<path d="M20 15H25V20H20V15Z" fill="#718899"/>
<path d="M20 20H25V25H20V20Z" fill="#718899"/>
<path d="M20 25H25V30H20V25Z" fill="#718899"/>
<path d="M35 15H40V20H35V15Z" fill="#718899"/>
<path d="M35 20H40V25H35V20Z" fill="#718899"/>
<path d="M35 25H40V30H35V25Z" fill="#718899"/>
<path d="M25 15H30V20H25V15Z" fill="#718899"/>
<path d="M25 20H30V25H25V20Z" fill="#718899"/>
<path d="M25 25H30V30H25V25Z" fill="#718899"/>
<path d="M40 15H45V20H40V15Z" fill="#718899"/>
<path d="M40 20H45V25H40V20Z" fill="#718899"/>
<path d="M55 15H60V20H55V15Z" fill="#718899"/>
<path d="M55 20H60V25H55V20Z" fill="#718899"/>
<path d="M55 40H60V45H55V40Z" fill="#314D62"/>
<path d="M55 25H60V30H55V25Z" fill="#718899"/>
<path d="M55 30H60V35H55V30Z" fill="#718899"/>
<path d="M55 35H60V40H55V35Z" fill="#314D62"/>
<path d="M40 25H45V30H40V25Z" fill="#314D62"/>
<path d="M40 30H45V35H40V30Z" fill="#314D62"/>
<path d="M35 30H40V35H35V30Z" fill="#314D62"/>
<path d="M30 30H35V35H30V30Z" fill="#314D62"/>
<path d="M25 30H30V35H25V30Z" fill="#314D62"/>
<path d="M60 50H65V55H60V50Z" fill="#314D62"/>
<path d="M40 80H45V85H40V80Z" fill="#314D62"/>
<path d="M100 80H105V85H100V80Z" fill="#314D62"/>
<path d="M45 80H50V85H45V80Z" fill="#314D62"/>
<path d="M105 80H110V85H105V80Z" fill="#314D62"/>
<path d="M50 80H55V85H50V80Z" fill="#314D62"/>
<path d="M110 80H115V85H110V80Z" fill="#314D62"/>
<path d="M55 75H60V80H55V75Z" fill="#314D62"/>
<path d="M95 75H100V80H95V75Z" fill="#314D62"/>
<path d="M55 80H60V85H55V80Z" fill="#314D62"/>
<path d="M115 80H120V85H115V80Z" fill="#314D62"/>
<path d="M60 70H65V75H60V70Z" fill="#314D62"/>
<path d="M60 75H65V80H60V75Z" fill="#314D62"/>
<path d="M100 75H105V80H100V75Z" fill="#314D62"/>
<path d="M65 70H70V75H65V70Z" fill="#314D62"/>
<path d="M70 70H75V75H70V70Z" fill="#314D62"/>
<path d="M85 70H90V75H85V70Z" fill="#314D62"/>
<path d="M75 70H80V75H75V70Z" fill="#314D62"/>
<path d="M90 70H95V75H90V70Z" fill="#314D62"/>
<path d="M80 70H85V75H80V70Z" fill="#314D62"/>
<path d="M95 70H100V75H95V70Z" fill="#314D62"/>
<path d="M50 35H55V40H50V35Z" fill="#4A6779"/>
<path d="M50 15H55V20H50V15Z" fill="#739096"/>
<path d="M50 20H55V25H50V20Z" fill="#739096"/>
<path d="M50 25H55V30H50V25Z" fill="#739096"/>
<path d="M50 65H55V70H50V65Z" fill="#739096"/>
<path d="M60 65H65V70H60V65Z" fill="#739096"/>
<path d="M70 65H75V70H70V65Z" fill="#739096"/>
<path d="M45 70H50V75H45V70Z" fill="#739096"/>
<path d="M100 70H105V75H100V70Z" fill="#739096"/>
<path d="M80 65H85V70H80V65Z" fill="#739096"/>
<path d="M55 70H60V75H55V70Z" fill="#739096"/>
<path d="M110 70H115V75H110V70Z" fill="#739096"/>
<path d="M55 65H60V70H55V65Z" fill="#739096"/>
<path d="M65 65H70V70H65V65Z" fill="#739096"/>
<path d="M75 65H80V70H75V65Z" fill="#739096"/>
<path d="M50 70H55V75H50V70Z" fill="#739096"/>
<path d="M105 70H110V75H105V70Z" fill="#739096"/>
<path d="M85 65H90V70H85V65Z" fill="#739096"/>
<path d="M90 65H95V70H90V65Z" fill="#739096"/>
<path d="M95 65H100V70H95V65Z" fill="#739096"/>
<path d="M100 65H105V70H100V65Z" fill="#739096"/>
<path d="M105 65H110V70H105V65Z" fill="#739096"/>
<path d="M50 30H55V35H50V30Z" fill="#739096"/>
<path d="M75 0H80V5H75V0Z" fill="#0E2E4A"/>
<path d="M70 80H75V85H70V80Z" fill="#0E2E4A"/>
<path d="M70 75H75V80H70V75Z" fill="#0E2E4A"/>
<path d="M115 85H120V90H115V85Z" fill="#0E2E4A"/>
<path d="M75 40H80V45H75V40Z" fill="#314D62"/>
<path d="M80 45H85V50H80V45Z" fill="#0E2E4A"/>
<path d="M20 5H25V10H20V5Z" fill="#0E2E4A"/>
<path d="M75 5H80V10H75V5Z" fill="#EBD6A6"/>
<path d="M40 10H45V15H40V10Z" fill="#EBD6A6"/>
<path d="M75 10H80V15H75V10Z" fill="#718899"/>
<path d="M75 15H80V20H75V15Z" fill="#718899"/>
<path d="M75 20H80V25H75V20Z" fill="#718899"/>
<path d="M75 25H80V30H75V25Z" fill="#718899"/>
<path d="M75 30H80V35H75V30Z" fill="#718899"/>
<path d="M75 55H80V60H75V55Z" fill="#718899"/>
<path d="M70 60H75V65H70V60Z" fill="#718899"/>
<path d="M75 35H80V40H75V35Z" fill="#314D62"/>
<path d="M80 50H85V55H80V50Z" fill="#314D62"/>
<path d="M95 0H100V5H95V0Z" fill="#0E2E4A"/>
<path d="M100 45H105V50H100V45Z" fill="#0E2E4A"/>
<path d="M40 5H45V10H40V5Z" fill="#0E2E4A"/>
<path d="M95 5H100V10H95V5Z" fill="#EBD6A6"/>
<path d="M95 10H100V15H95V10Z" fill="#718899"/>
<path d="M95 15H100V20H95V15Z" fill="#718899"/>
<path d="M95 20H100V25H95V20Z" fill="#718899"/>
<path d="M95 25H100V30H95V25Z" fill="#718899"/>
<path d="M95 30H100V35H95V30Z" fill="#718899"/>
<path d="M95 35H100V40H95V35Z" fill="#314D62"/>
<path d="M95 40H100V45H95V40Z" fill="#314D62"/>
<path d="M115 0H120V5H115V0Z" fill="#0E2E4A"/>
<path d="M115 5H120V10H115V5Z" fill="#EBD6A6"/>
<path d="M115 10H120V15H115V10Z" fill="#718899"/>
<path d="M115 15H120V20H115V15Z" fill="#718899"/>
<path d="M115 20H120V25H115V20Z" fill="#718899"/>
<path d="M115 25H120V30H115V25Z" fill="#0E2E4A"/>
<path d="M115 30H120V35H115V30Z" fill="#0E2E4A"/>
<path d="M135 0H140V5H135V0Z" fill="#0E2E4A"/>
<path d="M135 5H140V10H135V5Z" fill="#0E2E4A"/>
<path d="M135 10H140V15H135V10Z" fill="#0E2E4A"/>
<path d="M135 15H140V20H135V15Z" fill="#0E2E4A"/>
<path d="M130 15H135V20H130V15Z" fill="#0E2E4A"/>
<path d="M125 15H130V20H125V15Z" fill="#0E2E4A"/>
<path d="M125 20H130V25H125V20Z" fill="#0E2E4A"/>
<path d="M120 20H125V25H120V20Z" fill="#0E2E4A"/>
<path d="M120 25H125V30H120V25Z" fill="#0E2E4A"/>
<path d="M120 15H125V20H120V15Z" fill="#718899"/>
<path d="M60 0H65V5H60V0Z" fill="#0E2E4A"/>
<path d="M55 85H60V90H55V85Z" fill="#0E2E4A"/>
<path d="M100 85H105V90H100V85Z" fill="#0E2E4A"/>
<path d="M65 45H70V50H65V45Z" fill="#0E2E4A"/>
<path d="M5 5H10V10H5V5Z" fill="#0E2E4A"/>
<path d="M60 5H65V10H60V5Z" fill="#EBD6A6"/>
<path d="M60 10H65V15H60V10Z" fill="#718899"/>
<path d="M60 15H65V20H60V15Z" fill="#718899"/>
<path d="M60 20H65V25H60V20Z" fill="#718899"/>
<path d="M60 25H65V30H60V25Z" fill="#718899"/>
<path d="M60 30H65V35H60V30Z" fill="#718899"/>
<path d="M60 35H65V40H60V35Z" fill="#718899"/>
<path d="M60 40H65V45H60V40Z" fill="#314D62"/>
<path d="M60 0H65V5H60V0Z" fill="#0E2E4A"/>
<path d="M55 85H60V90H55V85Z" fill="#0E2E4A"/>
<path d="M100 85H105V90H100V85Z" fill="#0E2E4A"/>
<path d="M65 45H70V50H65V45Z" fill="#0E2E4A"/>
<path d="M5 5H10V10H5V5Z" fill="#0E2E4A"/>
<path d="M60 5H65V10H60V5Z" fill="#EBD6A6"/>
<path d="M50 75H55V80H50V75Z" fill="#EBD6A6"/>
<path d="M115 75H120V80H115V75Z" fill="#EBD6A6"/>
<path d="M25 10H30V15H25V10Z" fill="#EBD6A6"/>
<path d="M60 10H65V15H60V10Z" fill="#718899"/>
<path d="M5 10H10V15H5V10Z" fill="#718899"/>
<path d="M60 15H65V20H60V15Z" fill="#718899"/>
<path d="M60 20H65V25H60V20Z" fill="#718899"/>
<path d="M80 40H85V45H80V40Z" fill="#314D62"/>
<path d="M60 25H65V30H60V25Z" fill="#718899"/>
<path d="M60 30H65V35H60V30Z" fill="#718899"/>
<path d="M60 55H65V60H60V55Z" fill="#718899"/>
<path d="M55 60H60V65H55V60Z" fill="#718899"/>
<path d="M60 35H65V40H60V35Z" fill="#314D62"/>
<path d="M65 50H70V55H65V50Z" fill="#314D62"/>
<path d="M80 0H85V5H80V0Z" fill="#0E2E4A"/>
<path d="M75 80H80V85H75V80Z" fill="#0E2E4A"/>
<path d="M75 75H80V80H75V75Z" fill="#0E2E4A"/>
<path d="M120 85H125V90H120V85Z" fill="#0E2E4A"/>
<path d="M85 45H90V50H85V45Z" fill="#0E2E4A"/>
<path d="M25 5H30V10H25V5Z" fill="#0E2E4A"/>
<path d="M80 5H85V10H80V5Z" fill="#EBD6A6"/>
<path d="M80 10H85V15H80V10Z" fill="#718899"/>
<path d="M80 15H85V20H80V15Z" fill="#718899"/>
<path d="M80 20H85V25H80V20Z" fill="#718899"/>
<path d="M80 25H85V30H80V25Z" fill="#718899"/>
<path d="M80 30H85V35H80V30Z" fill="#718899"/>
<path d="M80 55H85V60H80V55Z" fill="#718899"/>
<path d="M75 60H80V65H75V60Z" fill="#718899"/>
<path d="M80 35H85V40H80V35Z" fill="#314D62"/>
<path d="M85 50H90V55H85V50Z" fill="#314D62"/>
<path d="M100 0H105V5H100V0Z" fill="#0E2E4A"/>
<path d="M100 5H105V10H100V5Z" fill="#EBD6A6"/>
<path d="M100 10H105V15H100V10Z" fill="#718899"/>
<path d="M100 15H105V20H100V15Z" fill="#718899"/>
<path d="M100 20H105V25H100V20Z" fill="#718899"/>
<path d="M100 25H105V30H100V25Z" fill="#718899"/>
<path d="M100 30H105V35H100V30Z" fill="#718899"/>
<path d="M100 35H105V40H100V35Z" fill="#314D62"/>
<path d="M100 40H105V45H100V40Z" fill="#0E2E4A"/>
<path d="M120 0H125V5H120V0Z" fill="#0E2E4A"/>
<path d="M120 5H125V10H120V5Z" fill="#EBD6A6"/>
<path d="M120 10H125V15H120V10Z" fill="#718899"/>
</svg>
