<svg width="127" height="124" viewBox="0 0 127 124" fill="none" xmlns="http://www.w3.org/2000/svg">
<path fill-rule="evenodd" clip-rule="evenodd" d="M63.5 0C28.4162 0 0 28.4468 0 63.5682C0 91.6972 18.1769 115.456 43.4181 123.879C46.5931 124.435 47.7837 122.528 47.7837 120.859C47.7837 119.349 47.7044 114.343 47.7044 109.019C31.75 111.96 27.6225 105.126 26.3525 101.55C25.6381 99.7226 22.5425 94.081 19.8438 92.5712C17.6212 91.3793 14.4462 88.4393 19.7644 88.3598C24.765 88.2804 28.3369 92.9685 29.5275 94.8756C35.2425 104.49 44.3706 101.789 48.0219 100.12C48.5775 95.988 50.2444 93.2069 52.07 91.6177C37.9412 90.0285 23.1775 84.5457 23.1775 60.2309C23.1775 53.3178 25.6381 47.5967 29.6863 43.1469C29.0513 41.5577 26.8287 35.042 30.3212 26.3013C30.3212 26.3013 35.6394 24.6327 47.7837 32.8171C52.8637 31.3868 58.2613 30.6717 63.6588 30.6717C69.0563 30.6717 74.4538 31.3868 79.5338 32.8171C91.6781 24.5532 96.9963 26.3013 96.9963 26.3013C100.489 35.042 98.2663 41.5577 97.6313 43.1469C101.679 47.5967 104.14 53.2384 104.14 60.2309C104.14 84.6252 89.2969 90.0285 75.1681 91.6177C77.47 93.6042 79.4544 97.4183 79.4544 103.378C79.4544 111.88 79.375 118.714 79.375 120.859C79.375 122.528 80.5656 124.514 83.7406 123.879C108.823 115.456 127 91.6177 127 63.5682C127 28.4468 98.5838 0 63.5 0Z" fill="#1B1F23"/>
</svg>
