<svg width="512" height="512" viewBox="0 0 512 512" fill="none" xmlns="http://www.w3.org/2000/svg">
<rect width="512" height="512" fill="white"/>
<path d="M38.9207 31L37.0811 46.6936C11.3259 165.849 75.7138 218.471 75.7138 218.471L95.95 193.284C95.95 193.284 51.7983 154.999 62.8362 70.1372C138.262 92.612 169.536 141.049 180.574 164.686C103.381 193.806 79.7261 268.281 39.4062 326.71C37.331 329.717 39.9508 333.827 43.5364 333.125L68.2814 328.285C70.3809 327.875 72.4319 329.189 72.9364 331.268L85.7844 384.208C86.3147 386.393 88.5287 387.746 90.7397 387.337C104.748 384.747 152.937 379.407 191.429 418.388C193.361 420.345 196.678 419.972 197.883 417.5C205.483 401.916 209.648 383.915 206.329 365.913L200.81 311.276C200.81 304.185 187.933 286.089 180.574 281.439C158.498 267.296 134.583 275.433 134.583 275.433C130.903 271.752 130.903 265.358 132.743 260.321C136.422 255.477 144.257 253.462 145.621 253.152C146.984 252.842 165.857 248.308 184.253 254.508C204.49 262.064 221.047 284.152 222.886 307.983C224.726 324.258 228.405 344.601 230.245 362.813C233.697 390.806 225.814 418.799 211.154 441.192C209.345 443.955 208.843 447.4 209.971 450.504L218.654 474.414C220.09 478.368 223.847 481 228.054 481H283.946C288.153 481 291.91 478.368 293.346 474.414L302.029 450.504C303.157 447.4 302.655 443.955 300.846 441.192C286.186 418.799 278.303 390.806 281.755 362.813C283.595 344.601 287.274 324.258 289.114 307.983C290.953 284.152 307.51 264.002 327.747 256.446C346.143 250.246 364.063 252.52 366.379 253.152C368.695 253.783 375.578 255.477 379.257 260.321C381.097 265.358 381.097 271.752 377.417 275.433C377.417 275.433 353.502 267.296 331.426 281.439C324.067 286.089 311.19 305.154 311.19 311.276L305.671 365.913C302.352 383.915 306.517 401.916 314.117 417.5C315.322 419.972 318.638 420.345 320.571 418.388C359.063 379.407 407.252 384.747 421.26 387.337C423.471 387.746 425.685 386.393 426.216 384.208L439.064 331.268C439.568 329.189 441.619 327.875 443.719 328.285L468.464 333.125C472.049 333.827 474.669 329.717 472.594 326.71C432.274 268.281 408.619 193.806 331.426 164.686C342.464 141.049 373.738 92.612 449.164 70.1372C460.202 154.999 416.05 193.284 416.05 193.284L436.286 218.471C436.286 218.471 500.674 165.849 474.919 46.6936L473.079 31C393.422 45.1824 315.053 99.5288 270.717 152.868C260.599 152.616 251.401 151.86 241.283 152.868C162.546 85.5402 128.512 44.1361 38.9207 31ZM246.802 431.207H265.198C270.717 431.207 276.236 436.632 276.236 443.413C276.236 450 270.717 455.425 265.198 455.425H246.802C241.283 455.425 235.764 450 235.764 443.413C235.764 436.632 241.283 431.207 246.802 431.207Z" fill="black"/>
</svg>
