<svg width="512" height="512" viewBox="0 0 512 512" fill="none" xmlns="http://www.w3.org/2000/svg">
<rect width="512" height="512" fill="white"/>
<path d="M196.259 23L195.259 31.1C181.259 92.6 216.259 119.76 216.259 119.76L227.259 106.76C227.259 106.76 203.259 87 209.259 43.2C250.259 54.8 267.259 79.8 273.259 92C233.224 106.34 219.681 141.99 199.487 171.424C197.403 174.462 200.027 178.703 203.649 178.03L210.58 176.743C212.65 176.359 214.664 177.645 215.185 179.685L221.268 203.484C221.815 205.624 223.987 206.952 226.175 206.64C235.209 205.355 258.206 204.224 277.415 221.33C279.409 223.105 282.609 222.745 283.721 220.318C287.168 212.795 288.903 204.327 287.259 195.86L284.259 167.66C284.259 164 277.259 154.66 273.259 152.26C261.259 144.96 248.259 149.16 248.259 149.16C246.259 147.26 246.259 143.96 247.259 141.36C249.259 138.86 253.518 137.82 254.259 137.66C255 137.5 265.259 135.16 275.259 138.36C286.259 142.26 295.259 153.66 296.259 165.96C297.259 174.36 299.259 184.86 300.259 194.26C302.012 207.757 298.388 221.254 291.406 232.395C289.574 235.318 289.008 238.918 290.241 242.141L292.8 248.833C294.281 252.704 297.996 255.26 302.14 255.26H326.377C330.522 255.26 334.237 252.704 335.717 248.833L338.277 242.141C339.51 238.918 338.943 235.318 337.111 232.395C330.13 221.254 326.506 207.757 328.259 194.26C329.259 184.86 331.259 174.36 332.259 165.96C333.259 153.66 342.259 143.26 353.259 139.36C363.259 136.16 373 137.334 374.259 137.66C375.518 137.986 379.259 138.86 381.259 141.36C382.259 143.96 382.259 147.26 380.259 149.16C380.259 149.16 367.259 144.96 355.259 152.26C351.259 154.66 344.259 164.5 344.259 167.66L341.259 195.86C339.615 204.327 341.35 212.795 344.797 220.318C345.909 222.745 349.108 223.105 351.103 221.33C370.312 204.224 393.309 205.355 402.343 206.64C404.53 206.952 406.702 205.624 407.25 203.484L413.332 179.685C413.854 177.645 415.868 176.359 417.938 176.743L424.868 178.03C428.49 178.703 431.115 174.462 429.031 171.424C408.836 141.99 395.294 106.34 355.259 92C361.259 79.8 378.259 54.8 419.259 43.2C425.259 87 401.259 106.76 401.259 106.76L412.259 119.76C412.259 119.76 447.259 92.6 433.259 31.1L432.259 23C388.959 30.32 346.359 58.37 322.259 85.9C316.759 85.77 311.759 85.38 306.259 85.9C263.459 51.15 244.959 29.78 196.259 23ZM220.959 228.26C259.159 281.46 133.259 274.86 67.3488 347.76C41.2388 375.76 34.8188 404.06 41.3988 428.06C53.6288 472.06 113.259 501.06 185.459 483.06C235.259 470.06 281.459 451.06 320.259 443.06C352.624 435.683 379.547 437.659 398.05 460.747C400.903 464.307 405.59 466.069 409.927 464.652L410.397 464.499C414.777 463.067 417.637 458.821 417.129 454.241C413.309 419.836 401.922 391.96 381.359 374.56C364.559 360.36 341.459 352.56 310.459 353.46C281.159 354.26 244.559 362.76 199.259 380.76C172.259 390.26 122.759 408.46 96.8588 393.36C87.7588 387.76 84.9588 378.36 85.6588 369.06C118.811 419.174 203.325 347.618 276.007 334.574C280.722 333.728 284.385 329.903 284.308 325.113C283.95 302.783 277.682 241.912 220.959 228.26ZM409.559 228.26C360.078 239.815 347.154 276.811 344.732 323.067C344.437 328.696 349.065 333.264 354.582 334.417C376.596 339.019 394.259 357.06 394.259 357.06C394.259 357.06 367.259 258.46 409.559 228.26ZM309.259 229.56H319.259C322.259 229.56 325.259 232.36 325.259 235.86C325.259 239.26 322.259 242.06 319.259 242.06H309.259C306.259 242.06 303.259 239.26 303.259 235.86C303.259 232.36 306.259 229.56 309.259 229.56ZM370.659 387.26C384.359 398.86 392.859 416.06 397.459 437.06C381.659 425.06 362.459 421.06 340.359 423.06C316.259 425.06 288.459 433.06 258.059 443.06L284.159 418.06C255.859 432.06 231.059 435.06 208.759 430.06L289.659 389.86L228.459 401.06C252.259 380.86 323.659 348.86 370.659 387.26Z" fill="black"/>
</svg>
