<svg width="825" height="225" viewBox="0 0 825 225" fill="none" xmlns="http://www.w3.org/2000/svg">
<path d="M119 52C119 43.1634 126.163 36 135 36H691C699.837 36 707 43.1634 707 52V197C707 205.837 699.837 213 691 213H135C126.163 213 119 205.837 119 197V52Z" fill="white"/>
<g filter="url(#filter0_d_141_635)">
<path d="M265 148C265 143.582 268.582 140 273 140H367C371.418 140 375 143.582 375 148V172C375 176.418 371.418 180 367 180H273C268.582 180 265 176.418 265 172V148Z" fill="#F9F9F9" shape-rendering="crispEdges"/>
<path d="M273 140.5H367C371.142 140.5 374.5 143.858 374.5 148V172C374.5 176.142 371.142 179.5 367 179.5H273C268.858 179.5 265.5 176.142 265.5 172V148C265.5 143.858 268.858 140.5 273 140.5Z" stroke="#BBBBBB" shape-rendering="crispEdges"/>
<path d="M287.49 167.04H287.26L286.13 165.9V165.67L287.86 163.96H289.06L289.21 164.11V165.31L287.5 167.04H287.49ZM286.13 154.31V154.1L287.26 152.97H287.49L289.2 154.68V155.88L289.05 156.03H287.85L286.13 154.31ZM296.09 163.4H294.44L294.3 163.27V159.44C294.3 158.76 294.03 158.24 293.2 158.21C292.78 158.21 292.3 158.21 291.77 158.23L291.7 158.31V163.27L291.56 163.41H289.9L289.77 163.27V156.73L289.9 156.59H293.6C293.942 156.589 294.281 156.655 294.598 156.785C294.915 156.915 295.202 157.106 295.445 157.348C295.687 157.59 295.88 157.877 296.011 158.193C296.142 158.509 296.21 158.848 296.21 159.19V163.27L296.08 163.41L296.09 163.4ZM287.72 160.96H281.14L281 160.82V159.18L281.14 159.04H287.72L287.86 159.18V160.82L287.72 160.96ZM304.86 160.96H298.28L298.14 160.82V159.18L298.28 159.04H304.86L305 159.18V160.82L304.86 160.96ZM292.05 154.55V149.64L292.19 149.5H293.84L293.98 149.64V154.54L293.84 154.68H292.19L292.05 154.55ZM292.05 170.36V165.46L292.19 165.32H293.84L293.98 165.45V170.36L293.84 170.5H292.19L292.05 170.36Z" fill="#00C7B7"/>
<path d="M312.312 166V154.896H313.368L313.816 156.64V166H312.312ZM319.992 166L313.176 156.896L313.368 154.896L320.2 163.984L319.992 166ZM319.992 166L319.544 164.352V154.896H321.048V166H319.992ZM326.935 166.16C326.178 166.16 325.495 165.989 324.887 165.648C324.279 165.296 323.799 164.821 323.447 164.224C323.095 163.627 322.919 162.949 322.919 162.192C322.919 161.445 323.09 160.773 323.431 160.176C323.783 159.579 324.253 159.109 324.839 158.768C325.437 158.416 326.103 158.24 326.839 158.24C327.543 158.24 328.162 158.4 328.695 158.72C329.239 159.04 329.661 159.483 329.959 160.048C330.269 160.613 330.423 161.253 330.423 161.968C330.423 162.075 330.418 162.192 330.407 162.32C330.397 162.437 330.375 162.576 330.343 162.736H323.927V161.536H329.575L329.047 162C329.047 161.488 328.957 161.056 328.775 160.704C328.594 160.341 328.338 160.064 328.007 159.872C327.677 159.669 327.277 159.568 326.807 159.568C326.317 159.568 325.885 159.675 325.511 159.888C325.138 160.101 324.85 160.4 324.647 160.784C324.445 161.168 324.343 161.621 324.343 162.144C324.343 162.677 324.45 163.147 324.663 163.552C324.877 163.947 325.181 164.256 325.575 164.48C325.97 164.693 326.423 164.8 326.935 164.8C327.362 164.8 327.751 164.725 328.103 164.576C328.466 164.427 328.775 164.203 329.031 163.904L329.959 164.848C329.597 165.275 329.149 165.6 328.615 165.824C328.093 166.048 327.533 166.16 326.935 166.16ZM332.927 166V155.216H334.367V166H332.927ZM331.055 159.712V158.4H336.239V159.712H331.055ZM337.65 166V154.576H339.09V166H337.65ZM341.213 166V158.4H342.653V166H341.213ZM341.933 156.88C341.666 156.88 341.447 156.795 341.277 156.624C341.106 156.443 341.021 156.219 341.021 155.952C341.021 155.696 341.106 155.483 341.277 155.312C341.447 155.131 341.666 155.04 341.933 155.04C342.199 155.04 342.418 155.131 342.589 155.312C342.759 155.483 342.845 155.696 342.845 155.952C342.845 156.219 342.759 156.443 342.589 156.624C342.418 156.795 342.199 156.88 341.933 156.88ZM345.863 166V157.264C345.863 156.699 345.985 156.208 346.231 155.792C346.476 155.365 346.812 155.029 347.239 154.784C347.676 154.539 348.183 154.416 348.759 154.416C349.196 154.416 349.575 154.491 349.895 154.64C350.215 154.789 350.508 155.008 350.775 155.296L349.831 156.224C349.692 156.075 349.537 155.963 349.367 155.888C349.196 155.803 348.988 155.76 348.743 155.76C348.284 155.76 347.927 155.893 347.671 156.16C347.425 156.427 347.303 156.795 347.303 157.264V166H345.863ZM343.991 159.712V158.4H349.719V159.712H343.991ZM353.411 166.064L350.115 158.4H351.715L354.163 164.4H353.651L356.227 158.4H357.827L354.275 166.064H353.411ZM351.235 169.184L353.475 164.592L354.275 166.064L352.835 169.184H351.235Z" fill="#4E4E4E"/>
</g>
<g filter="url(#filter1_d_141_635)">
<path d="M417 148C417 143.582 420.582 140 425 140H546C550.418 140 554 143.582 554 148V172C554 176.418 550.418 180 546 180H425C420.582 180 417 176.418 417 172V148Z" fill="#F9F9F9" shape-rendering="crispEdges"/>
<path d="M425 140.5H546C550.142 140.5 553.5 143.858 553.5 148V172C553.5 176.142 550.142 179.5 546 179.5H425C420.858 179.5 417.5 176.142 417.5 172V148C417.5 143.858 420.858 140.5 425 140.5Z" stroke="#BBBBBB" shape-rendering="crispEdges"/>
<path d="M449.509 164.845C449.656 164.338 449.6 163.874 449.354 163.529C449.129 163.213 448.749 163.03 448.292 163.009L439.633 162.897C439.606 162.897 439.58 162.891 439.557 162.878C439.534 162.866 439.514 162.847 439.499 162.825C439.471 162.783 439.464 162.727 439.478 162.67C439.506 162.586 439.591 162.522 439.682 162.514L448.418 162.401C449.453 162.353 450.578 161.515 450.972 160.488L451.471 159.187C451.492 159.13 451.5 159.074 451.485 159.019C450.923 156.472 448.65 154.573 445.936 154.573C443.432 154.573 441.307 156.191 440.548 158.435C440.055 158.069 439.429 157.872 438.754 157.936C437.551 158.055 436.587 159.019 436.468 160.221C436.439 160.531 436.461 160.834 436.531 161.115C434.568 161.171 433 162.775 433 164.752C433 164.927 433.014 165.104 433.035 165.279C433.049 165.362 433.12 165.427 433.204 165.427H449.185C449.276 165.427 449.361 165.362 449.389 165.272L449.509 164.845ZM452.266 159.281C452.189 159.281 452.104 159.281 452.027 159.293C451.971 159.293 451.922 159.334 451.9 159.39L451.562 160.565C451.415 161.071 451.471 161.535 451.717 161.881C451.942 162.197 452.322 162.379 452.779 162.4L454.623 162.514C454.679 162.514 454.728 162.54 454.756 162.584C454.784 162.627 454.791 162.691 454.777 162.74C454.749 162.824 454.664 162.889 454.573 162.896L452.652 163.008C451.611 163.057 450.494 163.895 450.1 164.922L449.959 165.28C449.931 165.352 449.981 165.422 450.058 165.422H456.655C456.732 165.422 456.803 165.373 456.824 165.296C456.937 164.888 457 164.459 457 164.016C457 161.413 454.875 159.289 452.266 159.289" fill="#F38020"/>
<path d="M469.352 166.16C468.552 166.16 467.811 166.016 467.128 165.728C466.445 165.429 465.848 165.019 465.336 164.496C464.835 163.973 464.445 163.365 464.168 162.672C463.891 161.979 463.752 161.237 463.752 160.448C463.752 159.648 463.891 158.901 464.168 158.208C464.445 157.515 464.835 156.912 465.336 156.4C465.848 155.877 466.44 155.472 467.112 155.184C467.795 154.885 468.536 154.736 469.336 154.736C470.211 154.736 470.979 154.885 471.64 155.184C472.301 155.483 472.888 155.888 473.4 156.4L472.36 157.44C472.008 157.045 471.576 156.736 471.064 156.512C470.563 156.288 469.987 156.176 469.336 156.176C468.749 156.176 468.211 156.283 467.72 156.496C467.229 156.699 466.803 156.992 466.44 157.376C466.077 157.76 465.795 158.213 465.592 158.736C465.4 159.259 465.304 159.829 465.304 160.448C465.304 161.067 465.4 161.637 465.592 162.16C465.795 162.683 466.077 163.136 466.44 163.52C466.803 163.904 467.229 164.203 467.72 164.416C468.211 164.619 468.749 164.72 469.336 164.72C470.029 164.72 470.632 164.608 471.144 164.384C471.656 164.149 472.088 163.835 472.44 163.44L473.48 164.464C472.968 164.997 472.365 165.413 471.672 165.712C470.989 166.011 470.216 166.16 469.352 166.16ZM475.072 166V154.576H476.512V166H475.072ZM482.091 166.16C481.344 166.16 480.672 165.984 480.075 165.632C479.477 165.28 479.003 164.805 478.651 164.208C478.299 163.6 478.123 162.923 478.123 162.176C478.123 161.44 478.299 160.779 478.651 160.192C479.003 159.595 479.477 159.12 480.075 158.768C480.672 158.416 481.344 158.24 482.091 158.24C482.827 158.24 483.493 158.416 484.091 158.768C484.699 159.109 485.179 159.579 485.531 160.176C485.883 160.773 486.059 161.44 486.059 162.176C486.059 162.923 485.883 163.6 485.531 164.208C485.179 164.805 484.699 165.28 484.091 165.632C483.493 165.984 482.827 166.16 482.091 166.16ZM482.091 164.768C482.571 164.768 482.997 164.656 483.371 164.432C483.744 164.208 484.037 163.904 484.251 163.52C484.464 163.125 484.571 162.677 484.571 162.176C484.571 161.685 484.459 161.248 484.235 160.864C484.021 160.48 483.728 160.181 483.355 159.968C482.992 159.744 482.571 159.632 482.091 159.632C481.611 159.632 481.184 159.744 480.811 159.968C480.437 160.181 480.144 160.48 479.931 160.864C479.717 161.248 479.611 161.685 479.611 162.176C479.611 162.677 479.717 163.125 479.931 163.52C480.144 163.904 480.437 164.208 480.811 164.432C481.184 164.656 481.611 164.768 482.091 164.768ZM490.737 166.16C490.118 166.16 489.558 166.021 489.057 165.744C488.566 165.456 488.182 165.061 487.905 164.56C487.628 164.059 487.489 163.477 487.489 162.816V158.4H488.929V162.752C488.929 163.168 488.998 163.531 489.137 163.84C489.286 164.139 489.5 164.368 489.777 164.528C490.054 164.688 490.38 164.768 490.753 164.768C491.318 164.768 491.761 164.592 492.081 164.24C492.401 163.877 492.561 163.381 492.561 162.752V158.4H494.001V162.816C494.001 163.477 493.862 164.059 493.585 164.56C493.308 165.061 492.924 165.456 492.433 165.744C491.953 166.021 491.388 166.16 490.737 166.16ZM499.147 166.16C498.443 166.16 497.814 165.989 497.259 165.648C496.704 165.296 496.262 164.821 495.931 164.224C495.611 163.627 495.451 162.955 495.451 162.208C495.451 161.461 495.611 160.789 495.931 160.192C496.262 159.595 496.704 159.12 497.259 158.768C497.814 158.416 498.443 158.24 499.147 158.24C499.712 158.24 500.224 158.363 500.683 158.608C501.142 158.843 501.51 159.173 501.787 159.6C502.075 160.016 502.235 160.501 502.267 161.056V163.344C502.235 163.888 502.08 164.373 501.803 164.8C501.526 165.227 501.158 165.563 500.699 165.808C500.24 166.043 499.723 166.16 499.147 166.16ZM499.387 164.8C499.867 164.8 500.283 164.688 500.635 164.464C500.998 164.24 501.28 163.936 501.483 163.552C501.686 163.157 501.787 162.709 501.787 162.208C501.787 161.685 501.68 161.232 501.467 160.848C501.264 160.464 500.982 160.16 500.619 159.936C500.267 159.712 499.851 159.6 499.371 159.6C498.891 159.6 498.47 159.712 498.107 159.936C497.744 160.16 497.456 160.469 497.243 160.864C497.04 161.248 496.939 161.691 496.939 162.192C496.939 162.704 497.04 163.157 497.243 163.552C497.456 163.936 497.744 164.24 498.107 164.464C498.48 164.688 498.907 164.8 499.387 164.8ZM503.147 166H501.691V163.952L501.963 162.096L501.691 160.256V154.576H503.147V166ZM506.332 166V157.376C506.332 156.843 506.454 156.352 506.7 155.904C506.945 155.456 507.297 155.099 507.756 154.832C508.225 154.555 508.764 154.416 509.372 154.416V155.76C508.849 155.76 508.449 155.92 508.172 156.24C507.905 156.549 507.772 156.928 507.772 157.376V166H506.332ZM504.46 159.712V158.4H511.452V159.712H504.46ZM510.86 166V154.512H512.3V166H510.86ZM517.647 166.16C516.954 166.16 516.325 165.989 515.759 165.648C515.194 165.296 514.746 164.821 514.415 164.224C514.095 163.627 513.935 162.955 513.935 162.208C513.935 161.461 514.095 160.789 514.415 160.192C514.746 159.595 515.189 159.12 515.743 158.768C516.309 158.416 516.943 158.24 517.647 158.24C518.223 158.24 518.735 158.363 519.183 158.608C519.642 158.843 520.01 159.173 520.287 159.6C520.565 160.016 520.719 160.501 520.751 161.056V163.344C520.719 163.888 520.565 164.373 520.287 164.8C520.021 165.227 519.658 165.563 519.199 165.808C518.751 166.043 518.234 166.16 517.647 166.16ZM517.887 164.8C518.602 164.8 519.178 164.56 519.615 164.08C520.053 163.589 520.271 162.965 520.271 162.208C520.271 161.685 520.17 161.232 519.967 160.848C519.775 160.453 519.498 160.149 519.135 159.936C518.773 159.712 518.351 159.6 517.871 159.6C517.391 159.6 516.965 159.712 516.591 159.936C516.229 160.16 515.941 160.469 515.727 160.864C515.525 161.248 515.423 161.691 515.423 162.192C515.423 162.704 515.525 163.157 515.727 163.552C515.941 163.936 516.234 164.24 516.607 164.464C516.981 164.688 517.407 164.8 517.887 164.8ZM520.175 166V163.952L520.447 162.096L520.175 160.256V158.4H521.631V166H520.175ZM523.728 166V158.4H525.168V166H523.728ZM525.168 161.664L524.624 161.424C524.624 160.453 524.848 159.68 525.296 159.104C525.744 158.528 526.389 158.24 527.232 158.24C527.616 158.24 527.963 158.309 528.272 158.448C528.581 158.576 528.869 158.795 529.136 159.104L528.192 160.08C528.032 159.909 527.856 159.787 527.664 159.712C527.472 159.637 527.248 159.6 526.992 159.6C526.459 159.6 526.021 159.771 525.68 160.112C525.339 160.453 525.168 160.971 525.168 161.664ZM533.42 166.16C532.662 166.16 531.98 165.989 531.372 165.648C530.764 165.296 530.284 164.821 529.932 164.224C529.58 163.627 529.404 162.949 529.404 162.192C529.404 161.445 529.574 160.773 529.916 160.176C530.268 159.579 530.737 159.109 531.324 158.768C531.921 158.416 532.588 158.24 533.324 158.24C534.028 158.24 534.646 158.4 535.18 158.72C535.724 159.04 536.145 159.483 536.444 160.048C536.753 160.613 536.908 161.253 536.908 161.968C536.908 162.075 536.902 162.192 536.892 162.32C536.881 162.437 536.86 162.576 536.828 162.736H530.412V161.536H536.06L535.532 162C535.532 161.488 535.441 161.056 535.26 160.704C535.078 160.341 534.822 160.064 534.492 159.872C534.161 159.669 533.761 159.568 533.292 159.568C532.801 159.568 532.369 159.675 531.996 159.888C531.622 160.101 531.334 160.4 531.132 160.784C530.929 161.168 530.828 161.621 530.828 162.144C530.828 162.677 530.934 163.147 531.148 163.552C531.361 163.947 531.665 164.256 532.06 164.48C532.454 164.693 532.908 164.8 533.42 164.8C533.846 164.8 534.236 164.725 534.588 164.576C534.95 164.427 535.26 164.203 535.516 163.904L536.444 164.848C536.081 165.275 535.633 165.6 535.1 165.824C534.577 166.048 534.017 166.16 533.42 166.16Z" fill="#4E4E4E"/>
</g>
<g filter="url(#filter2_d_141_635)">
<path d="M542 83C542 78.5817 545.582 75 550 75H640C644.418 75 648 78.5817 648 83V107C648 111.418 644.418 115 640 115H550C545.582 115 542 111.418 542 107V83Z" fill="#F9F9F9" shape-rendering="crispEdges"/>
<path d="M550 75.5H640C644.142 75.5 647.5 78.8579 647.5 83V107C647.5 111.142 644.142 114.5 640 114.5H550C545.858 114.5 542.5 111.142 542.5 107V83C542.5 78.8579 545.858 75.5 550 75.5Z" stroke="#BBBBBB" shape-rendering="crispEdges"/>
<path d="M570 84.6079L582 105.392H558L570 84.6079Z" fill="#4E4E4E"/>
<path d="M592.944 101L588.496 89.896H590.128L593.792 99.288H593.2L596.896 89.896H598.512L594.032 101H592.944ZM602.014 101.16C601.256 101.16 600.574 100.989 599.966 100.648C599.358 100.296 598.878 99.8213 598.526 99.224C598.174 98.6267 597.998 97.9493 597.998 97.192C597.998 96.4453 598.168 95.7733 598.51 95.176C598.862 94.5787 599.331 94.1093 599.918 93.768C600.515 93.416 601.182 93.24 601.918 93.24C602.622 93.24 603.24 93.4 603.774 93.72C604.318 94.04 604.739 94.4827 605.038 95.048C605.347 95.6133 605.502 96.2533 605.502 96.968C605.502 97.0747 605.496 97.192 605.486 97.32C605.475 97.4373 605.454 97.576 605.422 97.736H599.006V96.536H604.654L604.126 97C604.126 96.488 604.035 96.056 603.854 95.704C603.672 95.3413 603.416 95.064 603.086 94.872C602.755 94.6693 602.355 94.568 601.886 94.568C601.395 94.568 600.963 94.6747 600.59 94.888C600.216 95.1013 599.928 95.4 599.726 95.784C599.523 96.168 599.422 96.6213 599.422 97.144C599.422 97.6773 599.528 98.1467 599.742 98.552C599.955 98.9467 600.259 99.256 600.654 99.48C601.048 99.6933 601.502 99.8 602.014 99.8C602.44 99.8 602.83 99.7253 603.182 99.576C603.544 99.4267 603.854 99.2027 604.11 98.904L605.038 99.848C604.675 100.275 604.227 100.6 603.694 100.824C603.171 101.048 602.611 101.16 602.014 101.16ZM607.072 101V93.4H608.512V101H607.072ZM608.512 96.664L607.968 96.424C607.968 95.4533 608.192 94.68 608.64 94.104C609.088 93.528 609.733 93.24 610.576 93.24C610.96 93.24 611.306 93.3093 611.616 93.448C611.925 93.576 612.213 93.7947 612.48 94.104L611.536 95.08C611.376 94.9093 611.2 94.7867 611.008 94.712C610.816 94.6373 610.592 94.6 610.336 94.6C609.802 94.6 609.365 94.7707 609.024 95.112C608.682 95.4533 608.512 95.9707 608.512 96.664ZM616.716 101.16C615.969 101.16 615.292 100.984 614.684 100.632C614.086 100.28 613.612 99.8053 613.26 99.208C612.918 98.6 612.748 97.928 612.748 97.192C612.748 96.4453 612.918 95.7733 613.26 95.176C613.612 94.5787 614.086 94.1093 614.684 93.768C615.292 93.416 615.969 93.24 616.716 93.24C617.302 93.24 617.846 93.352 618.348 93.576C618.849 93.7893 619.281 94.104 619.644 94.52L618.684 95.48C618.449 95.2027 618.161 94.9947 617.82 94.856C617.489 94.7067 617.121 94.632 616.716 94.632C616.236 94.632 615.809 94.744 615.436 94.968C615.062 95.1813 614.769 95.48 614.556 95.864C614.342 96.248 614.236 96.6907 614.236 97.192C614.236 97.6933 614.342 98.136 614.556 98.52C614.769 98.904 615.062 99.208 615.436 99.432C615.809 99.656 616.236 99.768 616.716 99.768C617.121 99.768 617.489 99.6987 617.82 99.56C618.161 99.4107 618.454 99.1973 618.7 98.92L619.644 99.88C619.292 100.285 618.86 100.6 618.348 100.824C617.846 101.048 617.302 101.16 616.716 101.16ZM624.435 101.16C623.678 101.16 622.995 100.989 622.387 100.648C621.779 100.296 621.299 99.8213 620.947 99.224C620.595 98.6267 620.419 97.9493 620.419 97.192C620.419 96.4453 620.59 95.7733 620.931 95.176C621.283 94.5787 621.753 94.1093 622.339 93.768C622.937 93.416 623.603 93.24 624.339 93.24C625.043 93.24 625.662 93.4 626.195 93.72C626.739 94.04 627.161 94.4827 627.459 95.048C627.769 95.6133 627.923 96.2533 627.923 96.968C627.923 97.0747 627.918 97.192 627.907 97.32C627.897 97.4373 627.875 97.576 627.843 97.736H621.427V96.536H627.075L626.547 97C626.547 96.488 626.457 96.056 626.275 95.704C626.094 95.3413 625.838 95.064 625.507 94.872C625.177 94.6693 624.777 94.568 624.307 94.568C623.817 94.568 623.385 94.6747 623.011 94.888C622.638 95.1013 622.35 95.4 622.147 95.784C621.945 96.168 621.843 96.6213 621.843 97.144C621.843 97.6773 621.95 98.1467 622.163 98.552C622.377 98.9467 622.681 99.256 623.075 99.48C623.47 99.6933 623.923 99.8 624.435 99.8C624.862 99.8 625.251 99.7253 625.603 99.576C625.966 99.4267 626.275 99.2027 626.531 98.904L627.459 99.848C627.097 100.275 626.649 100.6 626.115 100.824C625.593 101.048 625.033 101.16 624.435 101.16ZM629.493 101V89.576H630.934V101H629.493Z" fill="#4E4E4E"/>
</g>
<g filter="url(#filter3_d_141_635)">
<path d="M174 83C174 78.5817 177.582 75 182 75H306C310.418 75 314 78.5817 314 83V107C314 111.418 310.418 115 306 115H182C177.582 115 174 111.418 174 107V83Z" fill="#F9F9F9" shape-rendering="crispEdges"/>
<path d="M182 75.5H306C310.142 75.5 313.5 78.8579 313.5 83V107C313.5 111.142 310.142 114.5 306 114.5H182C177.858 114.5 174.5 111.142 174.5 107V83C174.5 78.8579 177.858 75.5 182 75.5Z" stroke="#BBBBBB" shape-rendering="crispEdges"/>
<path d="M214 97.8599C214 100.033 212.624 101.834 210.41 102.56L210.31 102.591V100.989C211.688 100.409 212.497 99.2616 212.497 97.86C212.49 95.86 210.888 94.2312 208.889 94.1901H208.292L208.149 93.6215C207.447 90.7219 204.861 88.6726 201.877 88.6515C200.66 88.6457 199.467 88.9874 198.438 89.6364C197.408 90.2855 196.585 91.2149 196.066 92.3155L195.883 92.6912L195.466 92.7349C194.792 92.807 194.144 93.0327 193.571 93.3947C192.998 93.7567 192.515 94.2453 192.161 94.8229C190.88 96.9085 191.533 99.6372 193.619 100.918V102.607H193.609L193.46 102.54C192.59 102.14 191.829 101.535 191.243 100.778C190.657 100.021 190.263 99.133 190.094 98.1904C189.515 94.9613 191.664 91.8743 194.893 91.2956C195.571 90.0348 196.579 88.9823 197.809 88.2513C199.04 87.5203 200.446 87.1384 201.877 87.1466C205.35 87.1716 208.412 89.4266 209.467 92.7349C212.046 93.0715 213.981 95.2593 214 97.8599ZM198.682 96.5379H199.247C199.26 96.5377 199.272 96.5337 199.283 96.5264C199.293 96.5192 199.302 96.5091 199.306 96.4972C199.311 96.4854 199.313 96.4724 199.31 96.4599C199.308 96.4473 199.302 96.4358 199.293 96.4266L197.084 94.2159C197.072 94.2037 197.054 94.1963 197.037 94.1964C197.019 94.1965 197.003 94.2035 196.991 94.2159L194.78 96.4266C194.771 96.4359 194.765 96.4477 194.763 96.4604C194.76 96.4731 194.762 96.4863 194.767 96.4982C194.772 96.5101 194.78 96.5202 194.791 96.5273C194.802 96.5343 194.815 96.538 194.828 96.5379H195.384C195.393 96.5379 195.401 96.5396 195.409 96.5429C195.417 96.5462 195.425 96.551 195.431 96.5571C195.437 96.5632 195.442 96.5704 195.445 96.5784C195.448 96.5864 195.45 96.5949 195.45 96.6035V101.661C195.45 102.32 195.984 102.854 196.643 102.854H199.247C199.26 102.853 199.272 102.849 199.283 102.842C199.293 102.835 199.301 102.825 199.306 102.813C199.311 102.801 199.312 102.788 199.31 102.776C199.308 102.763 199.302 102.752 199.293 102.742L198.963 102.412C198.741 102.19 198.615 101.888 198.615 101.573V96.6034C198.615 96.5859 198.623 96.5692 198.635 96.557C198.648 96.5447 198.665 96.5379 198.682 96.5379ZM208.451 99.0845H209.018C209.031 99.0847 209.044 99.0809 209.055 99.0736C209.066 99.0663 209.075 99.0558 209.08 99.0435C209.085 99.0313 209.086 99.0178 209.083 99.0049C209.08 98.992 209.073 98.9802 209.064 98.9712L206.853 96.7625L206.852 96.761C206.839 96.7493 206.823 96.7429 206.806 96.7432C206.789 96.7434 206.773 96.7504 206.762 96.7625L204.551 98.9711C204.541 98.9802 204.535 98.9919 204.532 99.0048C204.529 99.0177 204.53 99.0311 204.535 99.0433C204.54 99.0555 204.549 99.066 204.56 99.0733C204.571 99.0806 204.583 99.0845 204.597 99.0844H205.153C205.171 99.0844 205.187 99.0913 205.2 99.1036C205.212 99.1159 205.219 99.1326 205.219 99.15V101.661C205.219 102.32 205.753 102.854 206.412 102.854H209.018C209.031 102.853 209.043 102.849 209.054 102.842C209.064 102.835 209.073 102.825 209.078 102.813C209.082 102.801 209.084 102.788 209.081 102.776C209.079 102.763 209.073 102.751 209.064 102.742L208.734 102.412C208.512 102.189 208.387 101.888 208.386 101.573V99.1501C208.386 99.1415 208.387 99.133 208.391 99.125C208.394 99.117 208.399 99.1098 208.405 99.1037C208.411 99.0976 208.418 99.0928 208.426 99.0895C208.434 99.0862 208.443 99.0845 208.451 99.0845ZM203.567 97.8102H204.132C204.145 97.8104 204.157 97.8067 204.168 97.7996C204.179 97.7925 204.187 97.7824 204.193 97.7704C204.198 97.7585 204.199 97.7454 204.197 97.7326C204.194 97.7199 204.188 97.7081 204.179 97.6988L201.969 95.4961C201.962 95.4901 201.955 95.4847 201.947 95.4814C201.939 95.4782 201.93 95.4765 201.921 95.4766C201.913 95.4766 201.904 95.4784 201.896 95.4817C201.888 95.4851 201.881 95.49 201.875 95.4961L199.666 97.7029C199.658 97.7121 199.652 97.7236 199.649 97.7362C199.647 97.7487 199.648 97.7617 199.653 97.7735C199.658 97.7854 199.666 97.7955 199.676 97.8027C199.687 97.81 199.699 97.814 199.712 97.8142H200.275C200.292 97.8147 200.309 97.822 200.321 97.8347C200.334 97.8473 200.34 97.8642 200.34 97.8818V101.661C200.34 102.32 200.874 102.854 201.533 102.854H204.132C204.145 102.854 204.157 102.85 204.168 102.843C204.179 102.836 204.187 102.826 204.192 102.814C204.198 102.802 204.199 102.789 204.197 102.776C204.194 102.763 204.188 102.752 204.179 102.742L203.847 102.412C203.626 102.189 203.502 101.888 203.501 101.573V97.8778C203.501 97.8412 203.53 97.8113 203.567 97.8102Z" fill="#3448C5"/>
<path d="M226.352 101.16C225.552 101.16 224.811 101.016 224.128 100.728C223.445 100.429 222.848 100.019 222.336 99.496C221.835 98.9733 221.445 98.3653 221.168 97.672C220.891 96.9787 220.752 96.2373 220.752 95.448C220.752 94.648 220.891 93.9013 221.168 93.208C221.445 92.5147 221.835 91.912 222.336 91.4C222.848 90.8773 223.44 90.472 224.112 90.184C224.795 89.8853 225.536 89.736 226.336 89.736C227.211 89.736 227.979 89.8853 228.64 90.184C229.301 90.4827 229.888 90.888 230.4 91.4L229.36 92.44C229.008 92.0453 228.576 91.736 228.064 91.512C227.563 91.288 226.987 91.176 226.336 91.176C225.749 91.176 225.211 91.2827 224.72 91.496C224.229 91.6987 223.803 91.992 223.44 92.376C223.077 92.76 222.795 93.2133 222.592 93.736C222.4 94.2587 222.304 94.8293 222.304 95.448C222.304 96.0667 222.4 96.6373 222.592 97.16C222.795 97.6827 223.077 98.136 223.44 98.52C223.803 98.904 224.229 99.2027 224.72 99.416C225.211 99.6187 225.749 99.72 226.336 99.72C227.029 99.72 227.632 99.608 228.144 99.384C228.656 99.1493 229.088 98.8347 229.44 98.44L230.48 99.464C229.968 99.9973 229.365 100.413 228.672 100.712C227.989 101.011 227.216 101.16 226.352 101.16ZM232.072 101V89.576H233.512V101H232.072ZM239.091 101.16C238.344 101.16 237.672 100.984 237.075 100.632C236.477 100.28 236.003 99.8053 235.651 99.208C235.299 98.6 235.123 97.9227 235.123 97.176C235.123 96.44 235.299 95.7787 235.651 95.192C236.003 94.5947 236.477 94.12 237.075 93.768C237.672 93.416 238.344 93.24 239.091 93.24C239.827 93.24 240.493 93.416 241.091 93.768C241.699 94.1093 242.179 94.5787 242.531 95.176C242.883 95.7733 243.059 96.44 243.059 97.176C243.059 97.9227 242.883 98.6 242.531 99.208C242.179 99.8053 241.699 100.28 241.091 100.632C240.493 100.984 239.827 101.16 239.091 101.16ZM239.091 99.768C239.571 99.768 239.997 99.656 240.371 99.432C240.744 99.208 241.037 98.904 241.251 98.52C241.464 98.1253 241.571 97.6773 241.571 97.176C241.571 96.6853 241.459 96.248 241.235 95.864C241.021 95.48 240.728 95.1813 240.355 94.968C239.992 94.744 239.571 94.632 239.091 94.632C238.611 94.632 238.184 94.744 237.811 94.968C237.437 95.1813 237.144 95.48 236.931 95.864C236.717 96.248 236.611 96.6853 236.611 97.176C236.611 97.6773 236.717 98.1253 236.931 98.52C237.144 98.904 237.437 99.208 237.811 99.432C238.184 99.656 238.611 99.768 239.091 99.768ZM247.737 101.16C247.118 101.16 246.558 101.021 246.057 100.744C245.566 100.456 245.182 100.061 244.905 99.56C244.628 99.0587 244.489 98.4773 244.489 97.816V93.4H245.929V97.752C245.929 98.168 245.998 98.5307 246.137 98.84C246.286 99.1387 246.5 99.368 246.777 99.528C247.054 99.688 247.38 99.768 247.753 99.768C248.318 99.768 248.761 99.592 249.081 99.24C249.401 98.8773 249.561 98.3813 249.561 97.752V93.4H251.001V97.816C251.001 98.4773 250.862 99.0587 250.585 99.56C250.308 100.061 249.924 100.456 249.433 100.744C248.953 101.021 248.388 101.16 247.737 101.16ZM256.147 101.16C255.443 101.16 254.814 100.989 254.259 100.648C253.704 100.296 253.262 99.8213 252.931 99.224C252.611 98.6267 252.451 97.9547 252.451 97.208C252.451 96.4613 252.611 95.7893 252.931 95.192C253.262 94.5947 253.704 94.12 254.259 93.768C254.814 93.416 255.443 93.24 256.147 93.24C256.712 93.24 257.224 93.3627 257.683 93.608C258.142 93.8427 258.51 94.1733 258.787 94.6C259.075 95.016 259.235 95.5013 259.267 96.056V98.344C259.235 98.888 259.08 99.3733 258.803 99.8C258.526 100.227 258.158 100.563 257.699 100.808C257.24 101.043 256.723 101.16 256.147 101.16ZM256.387 99.8C256.867 99.8 257.283 99.688 257.635 99.464C257.998 99.24 258.28 98.936 258.483 98.552C258.686 98.1573 258.787 97.7093 258.787 97.208C258.787 96.6853 258.68 96.232 258.467 95.848C258.264 95.464 257.982 95.16 257.619 94.936C257.267 94.712 256.851 94.6 256.371 94.6C255.891 94.6 255.47 94.712 255.107 94.936C254.744 95.16 254.456 95.4693 254.243 95.864C254.04 96.248 253.939 96.6907 253.939 97.192C253.939 97.704 254.04 98.1573 254.243 98.552C254.456 98.936 254.744 99.24 255.107 99.464C255.48 99.688 255.907 99.8 256.387 99.8ZM260.147 101H258.691V98.952L258.963 97.096L258.691 95.256V89.576H260.147V101ZM262.26 101V93.4H263.7V101H262.26ZM262.98 91.88C262.713 91.88 262.494 91.7947 262.324 91.624C262.153 91.4427 262.068 91.2187 262.068 90.952C262.068 90.696 262.153 90.4827 262.324 90.312C262.494 90.1307 262.713 90.04 262.98 90.04C263.246 90.04 263.465 90.1307 263.636 90.312C263.806 90.4827 263.892 90.696 263.892 90.952C263.892 91.2187 263.806 91.4427 263.636 91.624C263.465 91.7947 263.246 91.88 262.98 91.88ZM271.198 101V96.568C271.198 95.992 271.016 95.5173 270.654 95.144C270.291 94.7707 269.822 94.584 269.246 94.584C268.862 94.584 268.52 94.6693 268.222 94.84C267.923 95.0107 267.688 95.2453 267.518 95.544C267.347 95.8427 267.262 96.184 267.262 96.568L266.67 96.232C266.67 95.656 266.798 95.144 267.054 94.696C267.31 94.248 267.667 93.896 268.126 93.64C268.584 93.3733 269.102 93.24 269.678 93.24C270.254 93.24 270.76 93.384 271.198 93.672C271.646 93.96 271.998 94.3387 272.254 94.808C272.51 95.2667 272.638 95.7573 272.638 96.28V101H271.198ZM265.822 101V93.4H267.262V101H265.822ZM277.819 101.16C277.126 101.16 276.497 100.989 275.931 100.648C275.366 100.296 274.918 99.8213 274.587 99.224C274.267 98.6267 274.107 97.9547 274.107 97.208C274.107 96.4613 274.267 95.7893 274.587 95.192C274.918 94.5947 275.361 94.12 275.915 93.768C276.481 93.416 277.115 93.24 277.819 93.24C278.395 93.24 278.907 93.3627 279.355 93.608C279.814 93.8427 280.182 94.1733 280.459 94.6C280.737 95.016 280.891 95.5013 280.923 96.056V98.344C280.891 98.888 280.737 99.3733 280.459 99.8C280.193 100.227 279.83 100.563 279.371 100.808C278.923 101.043 278.406 101.16 277.819 101.16ZM278.059 99.8C278.774 99.8 279.35 99.56 279.787 99.08C280.225 98.5893 280.443 97.9653 280.443 97.208C280.443 96.6853 280.342 96.232 280.139 95.848C279.947 95.4533 279.67 95.1493 279.307 94.936C278.945 94.712 278.523 94.6 278.043 94.6C277.563 94.6 277.137 94.712 276.763 94.936C276.401 95.16 276.113 95.4693 275.899 95.864C275.697 96.248 275.595 96.6907 275.595 97.192C275.595 97.704 275.697 98.1573 275.899 98.552C276.113 98.936 276.406 99.24 276.779 99.464C277.153 99.688 277.579 99.8 278.059 99.8ZM280.347 101V98.952L280.619 97.096L280.347 95.256V93.4H281.803V101H280.347ZM283.9 101V93.4H285.34V101H283.9ZM285.34 96.664L284.796 96.424C284.796 95.4533 285.02 94.68 285.468 94.104C285.916 93.528 286.561 93.24 287.404 93.24C287.788 93.24 288.134 93.3093 288.444 93.448C288.753 93.576 289.041 93.7947 289.308 94.104L288.364 95.08C288.204 94.9093 288.028 94.7867 287.836 94.712C287.644 94.6373 287.42 94.6 287.164 94.6C286.63 94.6 286.193 94.7707 285.852 95.112C285.51 95.4533 285.34 95.9707 285.34 96.664ZM292.677 101.064L289.381 93.4H290.981L293.429 99.4H292.917L295.493 93.4H297.093L293.541 101.064H292.677ZM290.501 104.184L292.741 99.592L293.541 101.064L292.101 104.184H290.501Z" fill="#4E4E4E"/>
</g>
<g filter="url(#filter4_d_141_635)">
<path d="M347 83C347 78.5817 350.582 75 355 75H498C502.418 75 506 78.5817 506 83V107C506 111.418 502.418 115 498 115H355C350.582 115 347 111.418 347 107V83Z" fill="#F9F9F9" shape-rendering="crispEdges"/>
<path d="M355 75.5H498C502.142 75.5 505.5 78.8579 505.5 83V107C505.5 111.142 502.142 114.5 498 114.5H355C350.858 114.5 347.5 111.142 347.5 107V83C347.5 78.8579 350.858 75.5 355 75.5Z" stroke="#BBBBBB" shape-rendering="crispEdges"/>
<path d="M375.19 85.38C373.102 85.3316 371.058 85.9842 369.384 87.2336C367.71 88.483 366.503 90.2573 365.956 92.273C365.901 92.286 366.009 92.253 365.956 92.273C362.081 94.824 362.034 100.383 365.709 103.214L365.715 103.207L365.708 103.237C366.882 104.123 368.314 104.6 369.785 104.593H374.958L374.988 104.623H380.18C386.867 104.676 389.556 96.018 384.015 92.273C383.538 90.5134 382.557 88.9313 381.194 87.721L381.151 87.764L381.157 87.714C379.505 86.257 377.392 85.4304 375.19 85.38ZM374.832 89.526C376.076 89.486 377.35 89.894 378.318 90.676C378.914 91.1731 379.39 91.7976 379.712 92.5034C380.035 93.2091 380.195 93.9782 380.18 94.754V95.272C383.71 95.202 383.71 100.534 380.18 100.465H374.987L374.979 100.474V100.434H369.785C369.417 100.434 369.053 100.356 368.718 100.204C368.336 100.031 368.002 99.7673 367.743 99.4363C367.485 99.1053 367.311 98.7165 367.235 98.3034C367.16 97.8902 367.186 97.465 367.311 97.0642C367.436 96.6633 367.657 96.2988 367.954 96.0018C368.251 95.7049 368.615 95.4844 369.016 95.3592C369.417 95.234 369.842 95.208 370.256 95.2832C370.669 95.3584 371.057 95.5327 371.388 95.7911C371.719 96.0496 371.983 96.3844 372.156 96.767L375.169 93.755C374.168 92.4499 372.724 91.5555 371.11 91.24C371.128 91.23 371.15 91.214 371.164 91.217C371.632 90.704 372.197 90.2901 372.828 89.9998C373.458 89.7095 374.14 89.5487 374.834 89.527L374.832 89.526Z" fill="#4285F4"/>
<path d="M399.336 101.16C398.557 101.16 397.827 101.016 397.144 100.728C396.472 100.429 395.88 100.019 395.368 99.496C394.867 98.9733 394.472 98.3653 394.184 97.672C393.896 96.9787 393.752 96.232 393.752 95.432C393.752 94.632 393.896 93.8907 394.184 93.208C394.472 92.5147 394.872 91.9067 395.384 91.384C395.896 90.8613 396.493 90.456 397.176 90.168C397.869 89.88 398.621 89.736 399.432 89.736C400.317 89.736 401.133 89.9067 401.88 90.248C402.627 90.5893 403.251 91.08 403.752 91.72L402.712 92.76C402.36 92.248 401.896 91.8587 401.32 91.592C400.744 91.3147 400.115 91.176 399.432 91.176C398.621 91.176 397.901 91.3573 397.272 91.72C396.653 92.0827 396.168 92.584 395.816 93.224C395.475 93.864 395.304 94.6 395.304 95.432C395.304 96.2747 395.48 97.016 395.832 97.656C396.184 98.296 396.659 98.7973 397.256 99.16C397.853 99.5227 398.536 99.704 399.304 99.704C400.083 99.704 400.755 99.5547 401.32 99.256C401.896 98.9573 402.339 98.52 402.648 97.944C402.957 97.3573 403.112 96.6427 403.112 95.8L404.024 96.456H399.224V95.08H404.664V95.304C404.664 96.5947 404.435 97.6773 403.976 98.552C403.528 99.416 402.899 100.067 402.088 100.504C401.288 100.941 400.371 101.16 399.336 101.16ZM409.903 101.16C409.156 101.16 408.484 100.984 407.887 100.632C407.29 100.28 406.815 99.8053 406.463 99.208C406.111 98.6 405.935 97.9227 405.935 97.176C405.935 96.44 406.111 95.7787 406.463 95.192C406.815 94.5947 407.29 94.12 407.887 93.768C408.484 93.416 409.156 93.24 409.903 93.24C410.639 93.24 411.306 93.416 411.903 93.768C412.511 94.1093 412.991 94.5787 413.343 95.176C413.695 95.7733 413.871 96.44 413.871 97.176C413.871 97.9227 413.695 98.6 413.343 99.208C412.991 99.8053 412.511 100.28 411.903 100.632C411.306 100.984 410.639 101.16 409.903 101.16ZM409.903 99.768C410.383 99.768 410.81 99.656 411.183 99.432C411.556 99.208 411.85 98.904 412.063 98.52C412.276 98.1253 412.383 97.6773 412.383 97.176C412.383 96.6853 412.271 96.248 412.047 95.864C411.834 95.48 411.54 95.1813 411.167 94.968C410.804 94.744 410.383 94.632 409.903 94.632C409.423 94.632 408.996 94.744 408.623 94.968C408.25 95.1813 407.956 95.48 407.743 95.864C407.53 96.248 407.423 96.6853 407.423 97.176C407.423 97.6773 407.53 98.1253 407.743 98.52C407.956 98.904 408.25 99.208 408.623 99.432C408.996 99.656 409.423 99.768 409.903 99.768ZM418.966 101.16C418.219 101.16 417.547 100.984 416.95 100.632C416.352 100.28 415.878 99.8053 415.526 99.208C415.174 98.6 414.998 97.9227 414.998 97.176C414.998 96.44 415.174 95.7787 415.526 95.192C415.878 94.5947 416.352 94.12 416.95 93.768C417.547 93.416 418.219 93.24 418.966 93.24C419.702 93.24 420.368 93.416 420.966 93.768C421.574 94.1093 422.054 94.5787 422.406 95.176C422.758 95.7733 422.934 96.44 422.934 97.176C422.934 97.9227 422.758 98.6 422.406 99.208C422.054 99.8053 421.574 100.28 420.966 100.632C420.368 100.984 419.702 101.16 418.966 101.16ZM418.966 99.768C419.446 99.768 419.872 99.656 420.246 99.432C420.619 99.208 420.912 98.904 421.126 98.52C421.339 98.1253 421.446 97.6773 421.446 97.176C421.446 96.6853 421.334 96.248 421.11 95.864C420.896 95.48 420.603 95.1813 420.23 94.968C419.867 94.744 419.446 94.632 418.966 94.632C418.486 94.632 418.059 94.744 417.686 94.968C417.312 95.1813 417.019 95.48 416.806 95.864C416.592 96.248 416.486 96.6853 416.486 97.176C416.486 97.6773 416.592 98.1253 416.806 98.52C417.019 98.904 417.312 99.208 417.686 99.432C418.059 99.656 418.486 99.768 418.966 99.768ZM427.708 104.344C426.929 104.344 426.236 104.2 425.628 103.912C425.031 103.624 424.551 103.219 424.188 102.696L425.116 101.752C425.425 102.147 425.793 102.445 426.22 102.648C426.647 102.861 427.153 102.968 427.74 102.968C428.519 102.968 429.132 102.76 429.58 102.344C430.039 101.939 430.268 101.389 430.268 100.696V98.808L430.524 97.096L430.268 95.4V93.4H431.708V100.696C431.708 101.421 431.537 102.056 431.196 102.6C430.865 103.144 430.396 103.571 429.788 103.88C429.191 104.189 428.497 104.344 427.708 104.344ZM427.708 100.872C427.015 100.872 426.391 100.707 425.836 100.376C425.292 100.045 424.86 99.592 424.54 99.016C424.22 98.4293 424.06 97.7733 424.06 97.048C424.06 96.3227 424.22 95.6773 424.54 95.112C424.86 94.536 425.292 94.0827 425.836 93.752C426.391 93.4107 427.015 93.24 427.708 93.24C428.305 93.24 428.833 93.3573 429.292 93.592C429.751 93.8267 430.113 94.1573 430.38 94.584C430.657 95 430.807 95.4907 430.828 96.056V98.072C430.796 98.6267 430.641 99.1173 430.364 99.544C430.097 99.96 429.735 100.285 429.276 100.52C428.817 100.755 428.295 100.872 427.708 100.872ZM427.996 99.512C428.465 99.512 428.876 99.4107 429.228 99.208C429.591 99.0053 429.868 98.7227 430.06 98.36C430.252 97.9867 430.348 97.5547 430.348 97.064C430.348 96.5733 430.247 96.1467 430.044 95.784C429.852 95.4107 429.58 95.1227 429.228 94.92C428.876 94.7067 428.46 94.6 427.98 94.6C427.5 94.6 427.079 94.7067 426.716 94.92C426.353 95.1227 426.065 95.4107 425.852 95.784C425.649 96.1467 425.548 96.568 425.548 97.048C425.548 97.528 425.649 97.9547 425.852 98.328C426.065 98.7013 426.353 98.9947 426.716 99.208C427.089 99.4107 427.516 99.512 427.996 99.512ZM433.822 101V89.576H435.262V101H433.822ZM440.889 101.16C440.131 101.16 439.449 100.989 438.841 100.648C438.233 100.296 437.753 99.8213 437.401 99.224C437.049 98.6267 436.873 97.9493 436.873 97.192C436.873 96.4453 437.043 95.7733 437.385 95.176C437.737 94.5787 438.206 94.1093 438.793 93.768C439.39 93.416 440.057 93.24 440.793 93.24C441.497 93.24 442.115 93.4 442.649 93.72C443.193 94.04 443.614 94.4827 443.913 95.048C444.222 95.6133 444.377 96.2533 444.377 96.968C444.377 97.0747 444.371 97.192 444.361 97.32C444.35 97.4373 444.329 97.576 444.297 97.736H437.881V96.536H443.529L443.001 97C443.001 96.488 442.91 96.056 442.729 95.704C442.547 95.3413 442.291 95.064 441.961 94.872C441.63 94.6693 441.23 94.568 440.761 94.568C440.27 94.568 439.838 94.6747 439.465 94.888C439.091 95.1013 438.803 95.4 438.601 95.784C438.398 96.168 438.297 96.6213 438.297 97.144C438.297 97.6773 438.403 98.1467 438.617 98.552C438.83 98.9467 439.134 99.256 439.529 99.48C439.923 99.6933 440.377 99.8 440.889 99.8C441.315 99.8 441.705 99.7253 442.057 99.576C442.419 99.4267 442.729 99.2027 442.985 98.904L443.913 99.848C443.55 100.275 443.102 100.6 442.569 100.824C442.046 101.048 441.486 101.16 440.889 101.16ZM454.571 101.16C453.771 101.16 453.029 101.016 452.347 100.728C451.664 100.429 451.067 100.019 450.555 99.496C450.053 98.9733 449.664 98.3653 449.387 97.672C449.109 96.9787 448.971 96.2373 448.971 95.448C448.971 94.648 449.109 93.9013 449.387 93.208C449.664 92.5147 450.053 91.912 450.555 91.4C451.067 90.8773 451.659 90.472 452.331 90.184C453.013 89.8853 453.755 89.736 454.555 89.736C455.429 89.736 456.197 89.8853 456.859 90.184C457.52 90.4827 458.107 90.888 458.619 91.4L457.579 92.44C457.227 92.0453 456.795 91.736 456.283 91.512C455.781 91.288 455.205 91.176 454.555 91.176C453.968 91.176 453.429 91.2827 452.939 91.496C452.448 91.6987 452.021 91.992 451.659 92.376C451.296 92.76 451.013 93.2133 450.811 93.736C450.619 94.2587 450.523 94.8293 450.523 95.448C450.523 96.0667 450.619 96.6373 450.811 97.16C451.013 97.6827 451.296 98.136 451.659 98.52C452.021 98.904 452.448 99.2027 452.939 99.416C453.429 99.6187 453.968 99.72 454.555 99.72C455.248 99.72 455.851 99.608 456.363 99.384C456.875 99.1493 457.307 98.8347 457.659 98.44L458.699 99.464C458.187 99.9973 457.584 100.413 456.891 100.712C456.208 101.011 455.435 101.16 454.571 101.16ZM460.29 101V89.576H461.73V101H460.29ZM467.309 101.16C466.563 101.16 465.891 100.984 465.293 100.632C464.696 100.28 464.221 99.8053 463.869 99.208C463.517 98.6 463.341 97.9227 463.341 97.176C463.341 96.44 463.517 95.7787 463.869 95.192C464.221 94.5947 464.696 94.12 465.293 93.768C465.891 93.416 466.563 93.24 467.309 93.24C468.045 93.24 468.712 93.416 469.309 93.768C469.917 94.1093 470.397 94.5787 470.749 95.176C471.101 95.7733 471.277 96.44 471.277 97.176C471.277 97.9227 471.101 98.6 470.749 99.208C470.397 99.8053 469.917 100.28 469.309 100.632C468.712 100.984 468.045 101.16 467.309 101.16ZM467.309 99.768C467.789 99.768 468.216 99.656 468.589 99.432C468.963 99.208 469.256 98.904 469.469 98.52C469.683 98.1253 469.789 97.6773 469.789 97.176C469.789 96.6853 469.677 96.248 469.453 95.864C469.24 95.48 468.947 95.1813 468.573 94.968C468.211 94.744 467.789 94.632 467.309 94.632C466.829 94.632 466.403 94.744 466.029 94.968C465.656 95.1813 465.363 95.48 465.149 95.864C464.936 96.248 464.829 96.6853 464.829 97.176C464.829 97.6773 464.936 98.1253 465.149 98.52C465.363 98.904 465.656 99.208 466.029 99.432C466.403 99.656 466.829 99.768 467.309 99.768ZM475.956 101.16C475.337 101.16 474.777 101.021 474.276 100.744C473.785 100.456 473.401 100.061 473.124 99.56C472.846 99.0587 472.708 98.4773 472.708 97.816V93.4H474.148V97.752C474.148 98.168 474.217 98.5307 474.356 98.84C474.505 99.1387 474.718 99.368 474.996 99.528C475.273 99.688 475.598 99.768 475.972 99.768C476.537 99.768 476.98 99.592 477.3 99.24C477.62 98.8773 477.78 98.3813 477.78 97.752V93.4H479.22V97.816C479.22 98.4773 479.081 99.0587 478.804 99.56C478.526 100.061 478.142 100.456 477.652 100.744C477.172 101.021 476.606 101.16 475.956 101.16ZM484.366 101.16C483.662 101.16 483.032 100.989 482.478 100.648C481.923 100.296 481.48 99.8213 481.15 99.224C480.83 98.6267 480.67 97.9547 480.67 97.208C480.67 96.4613 480.83 95.7893 481.15 95.192C481.48 94.5947 481.923 94.12 482.478 93.768C483.032 93.416 483.662 93.24 484.366 93.24C484.931 93.24 485.443 93.3627 485.902 93.608C486.36 93.8427 486.728 94.1733 487.006 94.6C487.294 95.016 487.454 95.5013 487.486 96.056V98.344C487.454 98.888 487.299 99.3733 487.022 99.8C486.744 100.227 486.376 100.563 485.918 100.808C485.459 101.043 484.942 101.16 484.366 101.16ZM484.606 99.8C485.086 99.8 485.502 99.688 485.854 99.464C486.216 99.24 486.499 98.936 486.702 98.552C486.904 98.1573 487.006 97.7093 487.006 97.208C487.006 96.6853 486.899 96.232 486.686 95.848C486.483 95.464 486.2 95.16 485.838 94.936C485.486 94.712 485.07 94.6 484.59 94.6C484.11 94.6 483.688 94.712 483.326 94.936C482.963 95.16 482.675 95.4693 482.462 95.864C482.259 96.248 482.158 96.6907 482.158 97.192C482.158 97.704 482.259 98.1573 482.462 98.552C482.675 98.936 482.963 99.24 483.326 99.464C483.699 99.688 484.126 99.8 484.606 99.8ZM488.366 101H486.91V98.952L487.182 97.096L486.91 95.256V89.576H488.366V101Z" fill="#4E4E4E"/>
</g>
<path d="M188.112 43.784C187.365 43.784 186.651 43.6773 185.968 43.464C185.307 43.272 184.731 42.8453 184.24 42.184C184.304 41.672 184.453 40.9253 184.688 39.944C184.944 38.9627 185.253 37.8533 185.616 36.616C185.979 35.3573 186.363 34.0667 186.768 32.744C187.173 31.4213 187.568 30.1627 187.952 28.968C188.357 27.752 188.709 26.696 189.008 25.8C189.328 24.8827 189.563 24.2213 189.712 23.816C189.776 23.6453 189.883 23.3893 190.032 23.048C190.181 22.7067 190.373 22.3547 190.608 21.992C190.843 21.6293 191.109 21.3307 191.408 21.096C191.728 20.84 192.069 20.712 192.432 20.712C192.795 20.712 193.2 20.8613 193.648 21.16C192.987 22.6533 192.315 24.3173 191.632 26.152C190.971 27.9653 190.331 29.8427 189.712 31.784C189.115 33.704 188.56 35.5813 188.048 37.416C187.557 39.2293 187.152 40.8933 186.832 42.408C187.003 42.472 187.237 42.5147 187.536 42.536C187.856 42.5787 188.155 42.6 188.432 42.6C189.819 42.6 191.141 42.2587 192.4 41.576C193.659 40.9147 194.811 40.0293 195.856 38.92C196.923 37.7893 197.851 36.5307 198.64 35.144C199.429 33.736 200.037 32.296 200.464 30.824C200.891 29.352 201.104 27.944 201.104 26.6C201.104 24.872 200.805 23.4747 200.208 22.408C199.632 21.32 198.832 20.5307 197.808 20.04C196.784 19.528 195.611 19.272 194.288 19.272C192.901 19.272 191.653 19.528 190.544 20.04C189.435 20.5307 188.56 21.2133 187.92 22.088C187.301 22.9413 186.992 23.9227 186.992 25.032C186.992 25.2667 187.013 25.5227 187.056 25.8C187.099 26.056 187.173 26.312 187.28 26.568C186.363 26.568 185.701 26.376 185.296 25.992C184.912 25.5867 184.72 25.096 184.72 24.52C184.72 23.7733 184.987 23.016 185.52 22.248C186.075 21.48 186.832 20.776 187.792 20.136C188.773 19.4747 189.904 18.952 191.184 18.568C192.464 18.1627 193.851 17.96 195.344 17.96C197.435 17.96 199.109 18.3653 200.368 19.176C201.627 19.9653 202.533 21.0427 203.088 22.408C203.664 23.752 203.952 25.256 203.952 26.92C203.952 28.7547 203.653 30.5147 203.056 32.2C202.48 33.864 201.669 35.4 200.624 36.808C199.6 38.216 198.405 39.4427 197.04 40.488C195.696 41.5333 194.256 42.344 192.72 42.92C191.205 43.496 189.669 43.784 188.112 43.784ZM207.4 42.408C206.034 42.408 204.978 42.0347 204.232 41.288C203.506 40.5627 203.143 39.6453 203.143 38.536C203.143 37.5973 203.378 36.6053 203.848 35.56C204.338 34.4933 204.989 33.5013 205.799 32.584C206.61 31.6453 207.506 30.888 208.488 30.312C209.469 29.736 210.45 29.448 211.432 29.448C211.986 29.448 212.509 29.5973 213 29.896C213.512 30.1733 213.768 30.7387 213.768 31.592C213.768 32.4027 213.533 33.16 213.064 33.864C212.594 34.568 211.965 35.1973 211.176 35.752C210.386 36.3067 209.512 36.7653 208.552 37.128C207.613 37.4693 206.664 37.6933 205.704 37.8C205.682 37.8853 205.661 37.9813 205.64 38.088C205.64 38.1733 205.64 38.3227 205.64 38.536C205.64 38.6427 205.65 38.8347 205.672 39.112C205.714 39.368 205.81 39.6453 205.96 39.944C206.109 40.2427 206.354 40.4987 206.696 40.712C207.037 40.9253 207.506 41.032 208.104 41.032C209 41.032 209.896 40.7867 210.792 40.296C211.709 39.784 212.562 39.112 213.352 38.28C214.162 37.448 214.834 36.52 215.368 35.496L216.008 36.008C215.432 37.288 214.685 38.408 213.768 39.368C212.872 40.328 211.869 41.0747 210.76 41.608C209.672 42.1413 208.552 42.408 207.4 42.408ZM206.056 36.616C206.61 36.552 207.229 36.36 207.911 36.04C208.594 35.72 209.245 35.3147 209.864 34.824C210.504 34.3333 211.026 33.8 211.432 33.224C211.837 32.6267 212.04 32.0293 212.04 31.432C212.04 31.1973 211.997 31.0373 211.911 30.952C211.826 30.8667 211.688 30.824 211.496 30.824C211.005 30.824 210.493 31.0053 209.96 31.368C209.426 31.7093 208.904 32.168 208.391 32.744C207.88 33.2987 207.421 33.9173 207.016 34.6C206.61 35.2827 206.29 35.9547 206.056 36.616ZM212.802 49.96C212.631 49.96 212.45 49.9067 212.258 49.8C212.066 49.7147 211.906 49.608 211.778 49.48C211.628 49.352 211.543 49.2453 211.522 49.16C212.055 47.6027 212.514 46.248 212.898 45.096C213.26 43.9653 213.57 42.888 213.826 41.864C214.082 40.8613 214.316 39.816 214.53 38.728C214.722 37.6187 214.914 36.36 215.106 34.952C215.319 33.5227 215.554 31.8053 215.81 29.8C215.852 29.544 215.906 29.3627 215.97 29.256C216.034 29.128 216.236 29.064 216.578 29.064C217.239 29.064 217.719 29.2453 218.018 29.608C218.316 29.9493 218.466 30.3333 218.466 30.76C218.466 30.9733 218.423 31.3467 218.338 31.88C218.274 32.4133 218.167 33.0427 218.018 33.768C218.423 33.1493 218.882 32.5627 219.394 32.008C219.927 31.4533 220.514 31.0053 221.154 30.664C221.794 30.3013 222.487 30.12 223.234 30.12C224.279 30.12 225.143 30.472 225.826 31.176C226.508 31.88 226.85 32.808 226.85 33.96C226.85 34.792 226.658 35.6773 226.274 36.616C225.911 37.5333 225.388 38.408 224.706 39.24C224.023 40.0507 223.202 40.712 222.242 41.224C221.282 41.7573 220.226 42.024 219.074 42.024C218.391 42.024 217.847 41.9387 217.442 41.768C217.036 41.5973 216.834 41.4053 216.834 41.192C216.834 41.0427 216.908 40.9573 217.058 40.936C217.228 40.8933 217.41 40.872 217.602 40.872C218.604 40.8507 219.511 40.6373 220.322 40.232C221.154 39.8267 221.868 39.304 222.466 38.664C223.063 38.0027 223.522 37.2987 223.842 36.552C224.162 35.8053 224.322 35.0693 224.322 34.344C224.322 33.704 224.172 33.1493 223.874 32.68C223.596 32.2107 223.148 31.976 222.53 31.976C221.996 31.976 221.452 32.1467 220.898 32.488C220.364 32.8293 219.863 33.2667 219.394 33.8C218.924 34.312 218.508 34.856 218.146 35.432C217.783 35.9867 217.506 36.4773 217.314 36.904C216.908 38.312 216.535 39.7093 216.194 41.096C215.874 42.504 215.564 43.8053 215.266 45C214.967 46.1947 214.668 47.208 214.37 48.04C214.05 48.872 213.708 49.4373 213.346 49.736C213.175 49.8853 212.994 49.96 212.802 49.96ZM230.565 41.96C229.562 41.96 228.858 41.6293 228.453 40.968C228.069 40.2853 227.877 39.4853 227.877 38.568C227.877 37.5227 228.069 36.296 228.453 34.888C228.837 33.48 229.338 32.008 229.957 30.472C230.597 28.9147 231.29 27.4 232.036 25.928C232.805 24.4347 233.573 23.0907 234.341 21.896C235.109 20.7013 235.813 19.752 236.453 19.048C237.114 18.3227 237.647 17.96 238.053 17.96C238.33 17.96 238.565 18.1093 238.757 18.408C238.949 18.6853 239.098 19.0267 239.205 19.432C239.333 19.816 239.397 20.1787 239.397 20.52C239.397 21.096 239.247 21.8533 238.949 22.792C238.671 23.7093 238.266 24.7227 237.733 25.832C237.221 26.9413 236.602 28.0827 235.877 29.256C235.173 30.408 234.383 31.5067 233.509 32.552C232.655 33.5973 231.738 34.504 230.757 35.272C230.671 35.8053 230.586 36.3387 230.501 36.872C230.437 37.384 230.405 37.8533 230.405 38.28C230.405 39.048 230.533 39.6133 230.789 39.976C231.045 40.3173 231.375 40.488 231.781 40.488C232.314 40.488 232.858 40.2427 233.413 39.752C233.989 39.24 234.533 38.6 235.045 37.832C235.578 37.0427 236.037 36.232 236.421 35.4L237.189 35.816C236.271 37.7147 235.247 39.2187 234.117 40.328C232.986 41.416 231.802 41.96 230.565 41.96ZM231.333 33.288C232.058 32.4987 232.741 31.6453 233.381 30.728C234.042 29.7893 234.639 28.84 235.173 27.88C235.727 26.92 236.207 25.992 236.613 25.096C237.018 24.2 237.327 23.4 237.541 22.696C237.775 21.9707 237.903 21.3947 237.925 20.968C237.925 20.9467 237.925 20.936 237.925 20.936C237.925 20.9147 237.925 20.8933 237.925 20.872C237.754 20.872 237.477 21.1173 237.093 21.608C236.73 22.0773 236.293 22.728 235.781 23.56C235.269 24.392 234.735 25.3413 234.181 26.408C233.647 27.4747 233.125 28.6053 232.613 29.8C232.122 30.9733 231.695 32.136 231.333 33.288ZM237.768 42.024C236.808 42.024 236.147 41.704 235.784 41.064C235.443 40.4453 235.272 39.7627 235.272 39.016C235.272 38.3333 235.379 37.64 235.592 36.936C235.806 36.2107 236.094 35.5387 236.456 34.92C236.84 34.3013 237.256 33.8107 237.704 33.448C238.174 33.064 238.643 32.872 239.112 32.872C239.262 32.872 239.432 32.904 239.624 32.968C239.838 33.0107 239.987 33.0853 240.072 33.192C239.816 33.512 239.55 33.9067 239.272 34.376C239.016 34.8453 238.771 35.3467 238.536 35.88C238.323 36.392 238.152 36.9147 238.024 37.448C237.896 37.9813 237.832 38.472 237.832 38.92C237.832 39.3467 237.907 39.6987 238.056 39.976C238.227 40.2533 238.515 40.392 238.92 40.392C239.326 40.392 239.806 40.168 240.36 39.72C240.936 39.2507 241.48 38.7173 241.992 38.12C241.31 37.5013 240.819 36.8293 240.52 36.104C240.222 35.3573 240.072 34.4613 240.072 33.416C240.072 32.968 240.179 32.456 240.392 31.88C240.627 31.304 240.99 30.8027 241.48 30.376C241.992 29.9493 242.675 29.736 243.528 29.736C244.446 29.736 245.086 29.992 245.448 30.504C245.832 31.016 246.024 31.624 246.024 32.328C246.024 33.1173 245.811 34.0027 245.384 34.984C244.979 35.9653 244.488 36.8933 243.912 37.768C244.168 37.896 244.467 37.96 244.808 37.96C245.128 37.96 245.512 37.8853 245.96 37.736C246.408 37.5867 246.846 37.3413 247.272 37C247.699 36.6373 248.04 36.1573 248.296 35.56L248.872 35.976C248.403 37.064 247.774 37.864 246.984 38.376C246.216 38.8667 245.459 39.112 244.712 39.112C244.435 39.112 244.158 39.0907 243.88 39.048C243.603 38.984 243.347 38.9093 243.112 38.824C242.387 39.6773 241.555 40.424 240.616 41.064C239.678 41.704 238.728 42.024 237.768 42.024ZM242.824 37.096C243.336 36.3493 243.774 35.5493 244.136 34.696C244.499 33.8427 244.68 33.0533 244.68 32.328C244.68 31.8373 244.606 31.4853 244.456 31.272C244.307 31.0373 244.083 30.92 243.784 30.92C243.379 30.92 242.963 31.208 242.536 31.784C242.11 32.36 241.896 33.0853 241.896 33.96C241.896 34.408 241.971 34.952 242.12 35.592C242.291 36.232 242.526 36.7333 242.824 37.096ZM249.099 49.96C248.565 49.96 248.064 49.7893 247.595 49.448C247.146 49.128 246.922 48.6053 246.922 47.88C246.922 47.1973 247.125 46.5787 247.53 46.024C247.936 45.4907 248.459 44.9893 249.099 44.52C249.739 44.072 250.421 43.656 251.147 43.272C251.893 42.9093 252.608 42.568 253.291 42.248C253.525 41.6293 253.781 40.8507 254.059 39.912C254.357 38.952 254.613 38.0667 254.827 37.256C254.165 38.1733 253.461 38.984 252.715 39.688C251.968 40.392 251.136 40.744 250.219 40.744C249.835 40.744 249.429 40.6693 249.003 40.52C248.576 40.3493 248.213 40.072 247.915 39.688C247.637 39.2827 247.498 38.7493 247.498 38.088C247.498 37.5333 247.595 36.8613 247.787 36.072C248 35.2827 248.256 34.5147 248.555 33.768C248.875 33 249.205 32.3707 249.547 31.88C249.888 31.368 250.187 31.112 250.443 31.112C250.571 31.112 250.752 31.1653 250.987 31.272C251.243 31.3573 251.488 31.4853 251.723 31.656C251.957 31.8053 252.107 31.976 252.171 32.168C251.979 32.424 251.765 32.7973 251.531 33.288C251.296 33.7573 251.072 34.2907 250.859 34.888C250.645 35.464 250.464 36.0293 250.315 36.584C250.187 37.1387 250.123 37.6187 250.123 38.024C250.123 38.344 250.187 38.6213 250.315 38.856C250.443 39.0907 250.688 39.208 251.051 39.208C251.52 39.208 252 39.016 252.491 38.632C253.003 38.248 253.493 37.7573 253.963 37.16C254.453 36.5627 254.891 35.9547 255.275 35.336C255.317 35.1867 255.36 34.952 255.403 34.632C255.445 34.312 255.52 33.9813 255.627 33.64C255.733 33.2773 255.915 32.9467 256.171 32.648C256.448 32.3493 256.832 32.2 257.323 32.2C257.493 32.2 257.653 32.2107 257.803 32.232C257.952 32.2533 258.133 32.2853 258.347 32.328C258.347 32.648 258.229 33.2773 257.995 34.216C257.781 35.1333 257.493 36.2 257.131 37.416C256.768 38.632 256.363 39.848 255.915 41.064C256.811 40.7013 257.739 40.104 258.699 39.272C259.68 38.4187 260.469 37.2133 261.067 35.656L261.611 36.104C261.291 37.1707 260.8 38.0987 260.139 38.888C259.499 39.6773 258.773 40.3493 257.963 40.904C257.152 41.4587 256.331 41.9173 255.499 42.28C254.923 43.6667 254.293 44.9467 253.611 46.12C252.949 47.2933 252.245 48.2213 251.499 48.904C250.752 49.608 249.952 49.96 249.099 49.96ZM248.779 48.776C249.184 48.776 249.749 48.3493 250.475 47.496C251.2 46.6427 251.936 45.3627 252.683 43.656C252 43.9973 251.307 44.392 250.603 44.84C249.92 45.3093 249.344 45.8 248.875 46.312C248.405 46.824 248.171 47.3467 248.171 47.88C248.171 48.0933 248.213 48.296 248.299 48.488C248.405 48.68 248.565 48.776 248.779 48.776ZM262.935 41.96C261.996 41.96 261.292 41.6827 260.823 41.128C260.354 40.5733 260.119 39.9013 260.119 39.112C260.119 38.6213 260.204 38.0027 260.375 37.256C260.546 36.5093 260.78 35.7307 261.079 34.92C261.399 34.088 261.762 33.3093 262.167 32.584C262.572 31.8587 263.01 31.272 263.479 30.824C263.948 30.3547 264.418 30.12 264.887 30.12C265.143 30.12 265.367 30.2053 265.559 30.376C265.751 30.5253 265.847 30.7493 265.847 31.048C265.847 31.3253 265.676 31.7413 265.335 32.296C265.015 32.8507 264.631 33.4907 264.183 34.216C263.756 34.9413 263.372 35.6987 263.031 36.488C262.711 37.256 262.551 37.992 262.551 38.696C262.551 39.3787 262.668 39.8373 262.903 40.072C263.159 40.2853 263.522 40.392 263.991 40.392C264.716 40.392 265.506 40.0293 266.359 39.304C267.212 38.5787 268.098 37.3093 269.015 35.496L269.495 36.008C268.748 37.8853 267.799 39.3467 266.647 40.392C265.495 41.4373 264.258 41.96 262.935 41.96ZM266.711 27.528C266.306 27.528 265.932 27.432 265.591 27.24C265.271 27.0267 265.111 26.7067 265.111 26.28C265.111 25.768 265.388 25.3307 265.943 24.968C266.498 24.6053 267.074 24.424 267.671 24.424C268.055 24.424 268.375 24.5093 268.631 24.68C268.908 24.8507 269.047 25.16 269.047 25.608C269.047 26.056 268.802 26.4933 268.311 26.92C267.82 27.3253 267.287 27.528 266.711 27.528ZM278.972 41.64C278.14 41.64 277.5 41.4267 277.052 41C276.625 40.5947 276.411 40.072 276.411 39.432C276.411 39.0053 276.486 38.5573 276.635 38.088C276.785 37.5973 276.934 37.1067 277.084 36.616C277.233 36.1253 277.308 35.656 277.308 35.208C277.308 34.7387 277.19 34.4187 276.956 34.248C276.742 34.056 276.486 33.96 276.188 33.96C275.548 33.96 274.886 34.2267 274.204 34.76C273.542 35.272 272.892 35.9227 272.252 36.712C271.633 37.5013 271.046 38.3227 270.492 39.176C269.937 40.0293 269.457 40.7973 269.052 41.48C268.646 41.48 268.262 41.4053 267.899 41.256C267.537 41.128 267.227 40.8933 266.971 40.552C266.993 40.4453 267.121 40.1253 267.355 39.592C267.569 39.0373 267.814 38.3867 268.091 37.64C268.369 36.872 268.614 36.072 268.828 35.24C269.041 34.408 269.148 33.6507 269.148 32.968C269.297 32.7973 269.521 32.6267 269.82 32.456C270.14 32.2853 270.47 32.2 270.812 32.2C271.558 32.2 271.932 32.52 271.932 33.16C271.932 33.416 271.878 33.8 271.772 34.312C271.686 34.8027 271.558 35.368 271.388 36.008C271.942 35.2613 272.55 34.5573 273.212 33.896C273.873 33.2347 274.556 32.7013 275.26 32.296C275.985 31.8693 276.71 31.656 277.436 31.656C278.353 31.656 279.025 31.9653 279.452 32.584C279.9 33.2027 280.124 33.8853 280.124 34.632C280.124 35.272 280.017 35.8693 279.804 36.424C279.59 36.9787 279.377 37.5013 279.164 37.992C278.972 38.4827 278.876 38.9627 278.876 39.432C278.876 39.7733 278.95 40.0187 279.1 40.168C279.27 40.296 279.452 40.36 279.644 40.36C280.156 40.36 280.689 40.1147 281.244 39.624C281.798 39.1333 282.321 38.5147 282.812 37.768C283.324 37 283.772 36.232 284.156 35.464L284.7 35.912C284.252 36.9573 283.74 37.9173 283.164 38.792C282.609 39.6453 281.98 40.3387 281.276 40.872C280.593 41.384 279.825 41.64 278.972 41.64ZM284.913 49.96C284.379 49.96 283.878 49.8 283.409 49.48C282.96 49.16 282.736 48.6373 282.736 47.912C282.736 47.2293 282.928 46.6107 283.312 46.056C283.718 45.5227 284.241 45.0213 284.881 44.552C285.542 44.104 286.246 43.688 286.993 43.304C287.739 42.92 288.465 42.5573 289.169 42.216C289.403 41.64 289.627 41.0213 289.841 40.36C290.054 39.6987 290.257 38.984 290.449 38.216C289.702 39.1547 288.913 39.9333 288.081 40.552C287.27 41.1707 286.438 41.48 285.585 41.48C284.731 41.48 284.049 41.1813 283.537 40.584C283.046 39.9867 282.8 39.1973 282.8 38.216C282.8 37.0853 283.078 36.0293 283.633 35.048C284.209 34.0453 284.945 33.16 285.841 32.392C286.737 31.6027 287.697 30.9947 288.721 30.568C289.745 30.12 290.726 29.896 291.665 29.896C292.347 29.896 292.859 30.024 293.201 30.28C293.542 30.5147 293.713 30.792 293.713 31.112C293.713 31.368 293.638 31.5707 293.489 31.72C293.339 31.8693 293.243 31.9547 293.201 31.976C292.987 31.7413 292.763 31.592 292.529 31.528C292.315 31.4427 292.059 31.4 291.76 31.4C290.929 31.4 290.129 31.6347 289.361 32.104C288.593 32.5733 287.91 33.1813 287.312 33.928C286.737 34.6533 286.278 35.4107 285.937 36.2C285.595 36.9893 285.424 37.704 285.424 38.344C285.424 38.7707 285.521 39.1013 285.713 39.336C285.905 39.5493 286.139 39.656 286.417 39.656C287.014 39.656 287.739 39.272 288.593 38.504C289.446 37.7147 290.267 36.7653 291.057 35.656C291.099 35.4853 291.131 35.336 291.153 35.208C291.195 35.0587 291.227 34.92 291.249 34.792C291.462 33.9387 291.718 33.3093 292.017 32.904C292.315 32.4987 292.731 32.296 293.265 32.296C293.371 32.296 293.499 32.3067 293.649 32.328C293.819 32.3493 294.001 32.3813 294.193 32.424C294.193 32.808 294.086 33.4373 293.873 34.312C293.659 35.1867 293.371 36.2107 293.009 37.384C292.646 38.536 292.241 39.72 291.793 40.936C292.454 40.6587 293.126 40.2747 293.809 39.784C294.491 39.272 295.121 38.664 295.697 37.96C296.273 37.2347 296.71 36.4347 297.009 35.56L297.585 36.136C297.243 37.1173 296.71 38.0133 295.985 38.824C295.281 39.6347 294.513 40.3387 293.681 40.936C292.849 41.512 292.081 41.96 291.377 42.28C290.801 43.688 290.171 44.968 289.489 46.12C288.827 47.2933 288.113 48.2213 287.345 48.904C286.598 49.608 285.787 49.96 284.913 49.96ZM284.785 48.488C285.169 48.488 285.691 48.1253 286.353 47.4C287.035 46.6747 287.771 45.448 288.561 43.72C287.771 44.104 287.046 44.4987 286.385 44.904C285.723 45.3093 285.19 45.736 284.785 46.184C284.379 46.632 284.177 47.1013 284.177 47.592C284.177 47.8693 284.23 48.0827 284.337 48.232C284.465 48.4027 284.614 48.488 284.785 48.488Z" fill="#4E4E4E"/>
<defs>
<filter id="filter0_d_141_635" x="264" y="139" width="118" height="48" filterUnits="userSpaceOnUse" color-interpolation-filters="sRGB">
<feFlood flood-opacity="0" result="BackgroundImageFix"/>
<feColorMatrix in="SourceAlpha" type="matrix" values="0 0 0 0 0 0 0 0 0 0 0 0 0 0 0 0 0 0 127 0" result="hardAlpha"/>
<feOffset dx="3" dy="3"/>
<feGaussianBlur stdDeviation="2"/>
<feComposite in2="hardAlpha" operator="out"/>
<feColorMatrix type="matrix" values="0 0 0 0 0.639423 0 0 0 0 0.639423 0 0 0 0 0.639423 0 0 0 0.1 0"/>
<feBlend mode="normal" in2="BackgroundImageFix" result="effect1_dropShadow_141_635"/>
<feBlend mode="normal" in="SourceGraphic" in2="effect1_dropShadow_141_635" result="shape"/>
</filter>
<filter id="filter1_d_141_635" x="416" y="139" width="145" height="48" filterUnits="userSpaceOnUse" color-interpolation-filters="sRGB">
<feFlood flood-opacity="0" result="BackgroundImageFix"/>
<feColorMatrix in="SourceAlpha" type="matrix" values="0 0 0 0 0 0 0 0 0 0 0 0 0 0 0 0 0 0 127 0" result="hardAlpha"/>
<feOffset dx="3" dy="3"/>
<feGaussianBlur stdDeviation="2"/>
<feComposite in2="hardAlpha" operator="out"/>
<feColorMatrix type="matrix" values="0 0 0 0 0.639423 0 0 0 0 0.639423 0 0 0 0 0.639423 0 0 0 0.1 0"/>
<feBlend mode="normal" in2="BackgroundImageFix" result="effect1_dropShadow_141_635"/>
<feBlend mode="normal" in="SourceGraphic" in2="effect1_dropShadow_141_635" result="shape"/>
</filter>
<filter id="filter2_d_141_635" x="541" y="74" width="114" height="48" filterUnits="userSpaceOnUse" color-interpolation-filters="sRGB">
<feFlood flood-opacity="0" result="BackgroundImageFix"/>
<feColorMatrix in="SourceAlpha" type="matrix" values="0 0 0 0 0 0 0 0 0 0 0 0 0 0 0 0 0 0 127 0" result="hardAlpha"/>
<feOffset dx="3" dy="3"/>
<feGaussianBlur stdDeviation="2"/>
<feComposite in2="hardAlpha" operator="out"/>
<feColorMatrix type="matrix" values="0 0 0 0 0.639423 0 0 0 0 0.639423 0 0 0 0 0.639423 0 0 0 0.1 0"/>
<feBlend mode="normal" in2="BackgroundImageFix" result="effect1_dropShadow_141_635"/>
<feBlend mode="normal" in="SourceGraphic" in2="effect1_dropShadow_141_635" result="shape"/>
</filter>
<filter id="filter3_d_141_635" x="173" y="74" width="148" height="48" filterUnits="userSpaceOnUse" color-interpolation-filters="sRGB">
<feFlood flood-opacity="0" result="BackgroundImageFix"/>
<feColorMatrix in="SourceAlpha" type="matrix" values="0 0 0 0 0 0 0 0 0 0 0 0 0 0 0 0 0 0 127 0" result="hardAlpha"/>
<feOffset dx="3" dy="3"/>
<feGaussianBlur stdDeviation="2"/>
<feComposite in2="hardAlpha" operator="out"/>
<feColorMatrix type="matrix" values="0 0 0 0 0.639423 0 0 0 0 0.639423 0 0 0 0 0.639423 0 0 0 0.1 0"/>
<feBlend mode="normal" in2="BackgroundImageFix" result="effect1_dropShadow_141_635"/>
<feBlend mode="normal" in="SourceGraphic" in2="effect1_dropShadow_141_635" result="shape"/>
</filter>
<filter id="filter4_d_141_635" x="346" y="74" width="167" height="48" filterUnits="userSpaceOnUse" color-interpolation-filters="sRGB">
<feFlood flood-opacity="0" result="BackgroundImageFix"/>
<feColorMatrix in="SourceAlpha" type="matrix" values="0 0 0 0 0 0 0 0 0 0 0 0 0 0 0 0 0 0 127 0" result="hardAlpha"/>
<feOffset dx="3" dy="3"/>
<feGaussianBlur stdDeviation="2"/>
<feComposite in2="hardAlpha" operator="out"/>
<feColorMatrix type="matrix" values="0 0 0 0 0.639423 0 0 0 0 0.639423 0 0 0 0 0.639423 0 0 0 0.1 0"/>
<feBlend mode="normal" in2="BackgroundImageFix" result="effect1_dropShadow_141_635"/>
<feBlend mode="normal" in="SourceGraphic" in2="effect1_dropShadow_141_635" result="shape"/>
</filter>
</defs>
</svg>
