<svg xmlns="http://www.w3.org/2000/svg" viewBox="0 0 264.48 118.55">
<g>
<path fill="red" d="M55.73,116.2c1.27,3,4.79,2.71,7.29,1.42,3.36-1.72,5.09-4.7,7-7.76,4.86-7.58,9.62-15.22,13.91-23.13,8.45-15.6,15-32.54,16.19-50.4A74.17,74.17,0,0,0,96.45,7c-.48-1.35-3.52-.8-3.5.61a116.59,116.59,0,0,0,14.86,55.54,112.87,112.87,0,0,0,9.07,13.74c.91,1.19,4.15,0,3.19-1.51C112.78,64,97.83,61.89,85.39,61.73c-8.62-.11-17.29.36-25.89.93q-13.76.92-27.44,2.64-15.42,2-30.71,4.94c-1.76.34-1.89,2.56.15,2.38Q27.3,70.42,53,67.38t51.33-6.91Q130,56.6,155.41,51.91t50.78-10.18q25.31-5.5,50.43-11.82L263,28.28c.67-.17,1.65-.8,1.43-1.61s-1.39-.86-2-.69q-25,6.39-50.13,12T161.53,48.36q-25.34,4.77-50.82,8.71t-51,7.08Q34,67.29,8.15,69.6l-6.32.55L2,72.54a459.23,459.23,0,0,1,52.62-7.08q13.16-1,26.36-1.25a74.3,74.3,0,0,1,19,1.69c6.77,1.68,13,5,16.88,11l3.19-1.51a114.7,114.7,0,0,1-22.26-52A112.4,112.4,0,0,1,96.47,7.35L93,8c5.41,15.45,4.66,32.26.42,47.9-4.33,16-12.37,30.73-21,44.74q-3.65,5.9-7.42,11.71c-.71,1.11-4.61,5.68-5.75,3-.63-1.51-4.08-.51-3.47.93Z" />
<path fill="red" d="M186.18,25.1,185,19.38c-.24-1.12-3.44-.3-3.48.69-.65,17.82-1.3,35.69,0,53.5.32,4.46.76,8.91,1.36,13.35.54,4,1,8.16,2.91,11.79a12.47,12.47,0,0,0,7.35,6.46c3.58,1,7.47,0,10.55-2,7-4.43,11.6-12.6,13-20.63.23-1.3-3.27-.71-3.47.45a30.24,30.24,0,0,1-9.84,17.84c-2.51,2.14-5.56,3.66-8.81,2.2-3.08-1.39-5.11-4.35-6.23-7.44a51.9,51.9,0,0,1-2.15-11.06q-.78-6.16-1.21-12.38c-.57-8.12-.74-16.27-.7-24.41.06-9.38.4-18.75.74-28.12l-3.47.69L182.7,26c.24,1.15,3.74.28,3.48-.93Z" />
<path fill="red" d="M189.92,2.85a78.9,78.9,0,0,0-18.36,16.94l2.8-.15A71.08,71.08,0,0,1,180.71.89l-2.7.54c4.33,4.74,4.83,12.4,10.7,15.84a8.45,8.45,0,0,0,8,.2c2.26-1.08,4.12-3.14,3.76-5.78-.13-1-3-.31-2.9.77a3.9,3.9,0,0,1-3.23,4.26c-2.3.39-4.51-1.46-5.88-3.09-3.37-4-4.23-9.46-7.77-13.34-.56-.6-2.35-.16-2.7.54A73.12,73.12,0,0,0,171.46,20c-.24,1.27,2.43.3,2.8-.16A74.82,74.82,0,0,1,191.71,3.71c.44-.29.81-.76.26-1.13a2.3,2.3,0,0,0-2.05.27Z" />
<path fill="red" d="M108.34,44a33.52,33.52,0,0,1,2.55,13.15c0,1.9,3.33,1.4,3.53-.23a29.91,29.91,0,0,1,5.5-14l-3.21-.1,6.69,17a1.67,1.67,0,0,0,2.08.8c.63-.17,1.72-.91,1.4-1.73l-6.69-17c-.49-1.25-2.5-1.07-3.21-.1a32.92,32.92,0,0,0-6.09,15.32l3.53-.23a35.38,35.38,0,0,0-2.6-13.86,1.68,1.68,0,0,0-2.08-.79c-.62.17-1.73.91-1.4,1.73Z" />
<path fill="red" d="M159.94,34.6a33.57,33.57,0,0,1,2.55,13.16c0,1.9,3.33,1.4,3.53-.23a30,30,0,0,1,5.5-14l-3.21-.09,6.69,17a1.67,1.67,0,0,0,2.08.79c.63-.17,1.72-.9,1.4-1.72l-6.69-17c-.49-1.25-2.5-1.07-3.21-.1a32.92,32.92,0,0,0-6.09,15.32l3.53-.23a35.38,35.38,0,0,0-2.6-13.86,1.66,1.66,0,0,0-2.07-.79c-.63.17-1.74.9-1.41,1.72Z" />
<path fill="red" d="M135.48,20.48a23.68,23.68,0,0,0,5.62,26.13,2.1,2.1,0,0,0,2.11.21c.47-.17,1.49-.72,1.24-1.39-1.49-3.92-6.14-4.85-9.81-3.85s-8.29,3.94-9.32,7.79a4.57,4.57,0,0,0,1.36,4.7c1.62,1.31,3.88,1.16,5.79.73a43.7,43.7,0,0,0,12.82-5.58c.58-.36.91-1.09.25-1.54a2.55,2.55,0,0,0-2.47.28,43.71,43.71,0,0,1-8.78,4.13c-1.16.4-2.73,1.1-4,.71a2.87,2.87,0,0,1-1.62-3.13c.29-2.71,3.45-4.94,5.79-5.85A4.9,4.9,0,0,1,141,46.36l3.34-1.19a22.37,22.37,0,0,1-5.56-24.48c.7-1.68-2.77-1.41-3.27-.21Z" />
<path fill="red" d="M152.49,37.4a9.76,9.76,0,0,0-8.11,5.77,8.58,8.58,0,0,0-.7,4.58,6.31,6.31,0,0,0,.66,2.12c.34.65.93.67,1.59.74s1,.09,1.55.1c4.16.09,9-1.14,11.33-4.87,1.76-2.76,1.89-7-1.32-8.81-3.05-1.69-8.48-.62-9.49,3.1-.21.77,1.05.87,1.52.81.7-.1,1.75-.44,2-1.22a2.09,2.09,0,0,1,.33-.74s.16-.22.06-.09.12-.12.12-.12l.16-.15c.19-.2-.15.09,0,0s.59-.28.15-.11l.22-.09c.24-.12-.05.09-.13,0s.46-.12.46-.12-.4.06-.12,0l.36,0c-.38,0,0,0,.16,0s.54.07.21,0l.48.1.29.08c.13,0-.15-.06.07,0a3.16,3.16,0,0,1,1.49,1.17,5.21,5.21,0,0,1,.37,4.78,6.42,6.42,0,0,1-1.25,2.06c-.14.15-.29.29-.44.43a2.48,2.48,0,0,1-.4.32c-.2.13-.4.26-.61.38,0,0-.28.15-.08,0-.15.08-.32.15-.48.22l-.33.14c-.3.12.06,0-.13,0s-.57.17-.86.24l-.21.05-.29,0c-.3,0-.6.08-.9.1a11.24,11.24,0,0,1-1.57,0c-.6,0-1.21-.07-1.81-.15l1.08.57A7.24,7.24,0,0,1,150,40.2l.12-.09.4-.25c.37-.23-.16.06.15-.08l.37-.16c.41-.18-.38.1,0,0l.39-.11c.4-.11-.31,0,.07,0l.55,0c.66,0,1.82-.47,2-1.22s-1-.84-1.52-.81Z" />
</g>
</svg>