<svg width="120" height="50" viewBox="0 0 120 50" fill="none" xmlns="http://www.w3.org/2000/svg">
<path fill-rule="evenodd" clip-rule="evenodd" d="M103.419 37.6419C103.152 37.5424 102.935 37.534 102.719 37.5015C97.7358 36.7589 92.7219 35.5909 87.6652 33.8284C79.8884 31.1175 73.0719 27.0463 67.164 21.755C64.7865 19.6253 62.8827 17.3242 61.4293 14.9261C60.3806 13.1952 59.8407 11.5044 60.0414 9.92348C60.0792 9.62594 60.1482 9.33646 60.3838 9.1313C60.5017 9.02781 60.6464 8.95057 60.8978 9.03792C61.1565 9.12791 61.2475 9.295 61.3175 9.46938C61.5362 10.0146 61.7891 10.5625 61.9747 11.1047C62.8561 13.6784 64.6342 16.1173 66.9658 18.4771C69.9524 21.5003 73.4839 24.0838 77.3926 26.3768C82.4851 29.3643 87.8139 31.4065 93.3044 32.858C96.1247 33.6035 98.9285 34.2501 101.694 34.6137C101.835 34.632 101.974 34.6432 102.113 34.6548C102.13 34.6564 102.139 34.6369 102.156 34.6238C102.059 34.506 101.903 34.4653 101.773 34.4003C99.3968 33.2196 97.0356 32.0144 94.788 30.6164C94.1984 30.2497 93.6464 29.8496 93.151 29.4036C92.9222 29.1978 92.7154 28.9831 92.5738 28.7492C92.266 28.2394 92.5406 27.9876 93.2052 28.1954C94.279 28.5318 95.3345 28.9614 96.368 29.4619C98.4524 30.4717 100.531 31.495 102.616 32.5032C105.158 33.7323 107.746 34.8125 110.367 35.7753C110.498 35.8234 110.63 35.8727 110.759 35.9287C111.929 36.4365 112.47 37.4008 111.93 38.0124C111.747 38.2181 111.477 38.3501 111.195 38.4709C110.63 38.7123 110.022 38.9064 109.403 39.0865C108.069 39.4743 106.732 39.857 105.391 40.2361C104.68 40.436 103.919 40.567 103.1 40.6144C102.511 40.648 101.978 40.7633 101.435 40.8652C101.093 40.9295 100.751 40.9946 100.4 41.0452C99.9917 41.104 99.6152 40.9886 99.3252 40.7329C99.0361 40.4778 98.9391 40.1425 99.0894 39.8822C99.2249 39.6475 99.4529 39.4747 99.7451 39.3644C101.011 38.8866 101.958 38.1001 103.322 37.7188C103.354 37.7095 103.371 37.6811 103.419 37.6419Z" fill="black"/>
</svg>
