<svg width="120" height="50" viewBox="0 0 120 50" fill="none" xmlns="http://www.w3.org/2000/svg">
<path fill-rule="evenodd" clip-rule="evenodd" d="M22.0365 35.4706C22.0855 35.5487 22.1993 35.5382 22.2908 35.5523C24.3384 35.8561 26.2604 36.3848 28.2473 36.7976C28.6447 36.8803 29.0094 37.0197 29.291 37.2329C29.5858 37.4569 29.7205 37.7234 29.5173 38.0474C29.3114 38.3752 28.9142 38.5109 28.4557 38.5352C27.6956 38.5754 26.9532 38.5149 26.2074 38.4804C25.2108 38.4341 24.2118 38.4193 23.1991 38.4636C22.0466 38.5136 20.9194 38.4316 19.8032 38.3225C18.0141 38.1468 16.2284 37.9613 14.4446 37.7708C13.65 37.6855 12.8683 37.5681 12.1418 37.3481C11.7955 37.2436 11.4752 37.112 11.2104 36.9267C10.4767 36.4134 10.4609 35.6624 11.1931 35.037C11.4525 34.8149 11.7414 34.6024 12.0519 34.4147C13.3091 33.6535 14.523 32.8528 15.8721 32.1733C17.1675 31.5213 18.388 30.8031 19.5967 30.0729C20.2011 29.7073 20.8207 29.3556 21.468 29.0306C21.7921 28.868 22.1234 28.7147 22.4941 28.6167C23.3064 28.4021 23.8251 28.712 23.6268 29.2986C23.4999 29.6769 23.2003 30.0059 22.8682 30.3219C21.79 31.347 20.5075 32.2386 19.1461 33.0784C19.0079 33.1635 18.8707 33.2489 18.6717 33.3726C18.9975 33.395 19.2331 33.3133 19.4672 33.2657C24.0527 32.3303 28.6382 31.3949 33.2216 30.4536C38.4269 29.3847 43.6229 28.2838 48.7989 27.1125C51.9156 26.4073 54.982 25.5795 57.8998 24.4399C60.8081 23.3037 63.3013 21.8272 65.2008 19.8748C66.5206 18.5181 67.2916 17.026 67.8971 15.5009C68.9986 12.7222 69.1325 9.99425 68.2244 7.32825C68.1018 6.96859 67.9229 6.62482 67.7283 6.28581C67.611 6.08108 67.4976 5.8744 67.4024 5.66301C67.2573 5.34082 67.3521 5.10177 67.6569 4.96713C67.9522 4.8369 68.2314 4.89317 68.5772 5.11644C70.1457 6.13257 70.9292 7.46607 71.2952 8.96139C72.2709 12.951 71.2942 16.8551 68.311 20.6385C66.0876 23.4583 62.739 25.4581 58.7271 26.9353C55.5331 28.1114 52.2066 29.0022 48.8273 29.7507C41.4063 31.3946 33.9842 33.0355 26.5276 34.5567C25.1605 34.8354 23.787 35.0864 22.4169 35.3537C22.2865 35.3791 22.1341 35.3736 22.0365 35.4706Z" fill="black"/>
</svg>
