<svg width="120" height="50" viewBox="0 0 120 50" fill="none" xmlns="http://www.w3.org/2000/svg">
<path fill-rule="evenodd" clip-rule="evenodd" d="M84.4225 37.5087C84.4008 37.3754 84.3805 37.2417 84.3573 37.1082C84.1947 36.1695 84.0505 35.2344 84.0418 34.3319C84.0369 33.8642 84.0761 33.4141 84.2567 33.033C84.3701 32.7943 84.5209 32.5737 84.9019 32.6767C85.2693 32.7756 85.4881 33.0657 85.657 33.3795C85.9637 33.9475 86.1457 34.5192 86.2699 35.0853C86.7575 37.3143 87.155 39.5268 87.3399 41.6974C87.3714 42.0695 87.437 42.4417 87.5632 42.8301C87.7649 43.4537 87.8577 44.0511 87.3549 44.3611C86.8308 44.6843 86.1733 44.4064 85.5299 44.017C84.4009 43.3335 83.3476 42.5027 82.2698 41.7206C81.4215 41.1057 80.5774 40.4845 79.7298 39.8696C79.1586 39.4553 78.6408 38.994 78.2026 38.4415C77.9646 38.1413 77.6858 37.8649 77.4356 37.5719C77.0634 37.1353 76.9534 36.743 77.1122 36.4686C77.2794 36.1795 77.6513 36.1462 78.1719 36.3493C79.5803 36.8979 80.8789 37.7104 82.0751 38.7782C82.2202 38.9077 82.379 39.021 82.5334 39.1392C82.5615 39.1608 82.5979 39.1684 82.6293 39.1823C82.6632 39.1319 82.6284 39.0771 82.5906 39.0273C80.7679 36.6432 79.4898 34.0772 77.8354 31.6379C75.6488 28.4131 73.2763 25.2909 70.4116 22.4538C66.1537 18.2369 61.4875 14.637 56.3889 11.6972C53.4898 10.0254 50.5512 8.57298 47.549 7.42719C46.8295 7.15189 46.1101 6.89112 45.3903 6.7064C45.247 6.66964 45.1054 6.63343 45.0326 6.47333C44.9495 6.29024 45.0374 6.19278 45.1604 6.13078C45.4366 5.9925 45.7802 5.98952 46.1314 6.00816C47.2464 6.06719 48.3908 6.34647 49.5527 6.74789C52.0348 7.60525 54.4607 8.78797 56.8735 10.0848C61.2774 12.4517 65.4137 15.3364 69.3168 18.6577C73.7174 22.4028 77.4077 26.6554 80.5421 31.2827C81.3749 32.5134 82.1631 33.7616 82.9751 35.0014C83.5102 35.8186 83.9864 36.6496 84.4225 37.5087Z" fill="black"/>
</svg>
