<svg width="120" height="50" viewBox="0 0 120 50" fill="none" xmlns="http://www.w3.org/2000/svg">
<path fill-rule="evenodd" clip-rule="evenodd" d="M91.2589 18.9476C92.8499 18.9192 94.3066 18.6672 95.6419 17.9207C96.8416 17.2501 97.6932 16.2551 98.1097 14.9156C98.5078 13.6356 97.8389 12.6278 96.5287 12.4776C95.9648 12.4133 95.4213 12.5075 94.8943 12.7105C93.938 13.0787 93.131 13.6715 92.4288 14.4218C91.3126 15.6146 90.6069 17.0223 90.2969 18.6411C90.2591 18.8393 90.3106 18.9098 90.5025 18.9132C90.7833 18.9183 91.0641 18.9382 91.2589 18.9476ZM108.599 37.2221C108.607 37.1238 108.535 37.0638 108.491 36.9938C107.868 36.0121 107.372 34.9675 106.984 33.8685C106.807 33.3657 106.697 32.8499 106.738 32.3099C106.75 32.1469 106.779 31.9882 106.841 31.8378C107.032 31.3799 107.468 31.2678 107.846 31.5798C108.028 31.7298 108.162 31.9234 108.292 32.1176C108.746 32.792 109.151 33.4976 109.545 34.2093C110.536 35.9968 111.721 37.646 112.972 39.2487C113.09 39.3988 113.222 39.5338 113.371 39.6528C113.513 39.7669 113.643 39.8937 113.751 40.0427C114.156 40.6034 114.059 41.3272 113.517 41.7505C113.162 42.0273 112.745 42.1449 112.315 42.2138C111.693 42.3132 111.065 42.3375 110.438 42.3586C108.979 42.4082 107.537 42.6084 106.091 42.7958C104.803 42.9628 103.503 42.9971 102.204 43C101.995 43.0003 101.785 42.9849 101.584 42.9173C101.297 42.8206 101.094 42.6342 101.034 42.3221C100.972 42.002 101.091 41.7446 101.333 41.5418C101.52 41.3849 101.742 41.2913 101.967 41.2152C103.916 40.5605 105.874 39.945 107.951 39.9031C108.007 39.9019 108.068 39.9109 108.119 39.8673C108.128 39.7937 108.063 39.7913 108.024 39.7763C105.509 38.8406 103.215 37.4536 100.891 36.133C98.8551 34.9762 96.8627 33.7405 94.9648 32.3562C93.246 31.1033 91.6976 29.6642 90.478 27.8888C89.2316 26.0747 88.3952 24.0905 88.1571 21.8689C88.1176 21.5026 88.0903 21.1351 88.0978 20.7666C88.1003 20.6292 88.0548 20.5534 87.924 20.5043C85.397 19.5576 83.5406 17.8051 82.1686 15.481C81.0291 13.5507 80.2761 11.4803 80.0622 9.22427C79.9739 8.29071 79.9561 7.35659 80.1673 6.43345C80.2377 6.12517 80.3507 5.98429 80.5234 6.00139C80.7874 6.02811 80.8161 6.25247 80.8562 6.45395C81.1345 7.85377 81.384 9.26141 81.8213 10.6215C82.4911 12.7047 83.4767 14.6057 84.9931 16.1852C85.8775 17.107 86.9174 17.8008 88.0829 18.2987C88.3286 18.4036 88.3288 18.4013 88.3885 18.135C89.0396 15.2227 90.6342 12.9815 93.0791 11.379C94.2247 10.6278 95.5023 10.2962 96.8774 10.4339C99.5641 10.7027 101.145 13.1283 100.304 15.7495C99.7124 17.5929 98.5047 18.9461 96.8604 19.8696C94.8858 20.9786 92.7445 21.3068 90.5159 21.1151C90.1711 21.0854 90.1648 21.0792 90.2199 21.4369C90.5323 23.4612 91.3801 25.2345 92.6619 26.7972C93.9058 28.3131 95.4074 29.5271 97.0109 30.6161C99.6456 32.4051 102.399 33.9821 105.236 35.4113C106.329 35.9618 107.417 36.5235 108.459 37.172C108.5 37.1975 108.538 37.2373 108.599 37.2221Z" fill="black"/>
</svg>
