<svg width="120" height="50" viewBox="0 0 120 50" fill="none" xmlns="http://www.w3.org/2000/svg">
<path fill-rule="evenodd" clip-rule="evenodd" d="M35.2416 20.2942C35.3285 20.2942 35.4159 20.2936 35.503 20.2942C35.9439 20.2982 35.9548 20.2917 35.8759 19.9408C35.6618 18.9857 35.014 18.2347 34.1596 17.5889C33.6649 17.2151 33.0982 16.928 32.433 16.7934C31.8093 16.6674 31.2869 16.8479 30.9702 17.2885C30.726 17.6279 30.75 17.9813 30.9118 18.3346C31.1546 18.8649 31.6207 19.2462 32.1875 19.5546C33.1108 20.0572 34.1465 20.2537 35.2416 20.2942ZM16.1582 39.8511C16.2813 39.8932 16.3908 39.846 16.4957 39.8233C18.6664 39.3487 20.893 39.162 23.1185 38.967C23.428 38.9398 23.7389 38.9334 24.0424 39.001C24.3726 39.0748 24.6212 39.2284 24.6981 39.5119C24.7753 39.7954 24.6319 40.019 24.3676 40.198C24.1725 40.3302 23.9491 40.4259 23.7164 40.5051C19.8421 41.827 15.8476 42.7655 11.6289 42.9824C11.2027 43.0044 10.7767 43.0178 10.3547 42.9466C9.2247 42.7566 8.68259 41.9201 9.19266 41.105C10.3417 39.2691 11.5127 37.4414 12.7797 35.657C13.6659 34.409 14.7083 33.2441 15.8047 32.1119C16.0265 31.883 16.2634 31.6636 16.5595 31.4947C16.8244 31.3427 17.1131 31.2459 17.4263 31.3894C17.747 31.5361 17.8088 31.791 17.7853 32.0627C17.7573 32.3898 17.6118 32.6909 17.436 32.9811C16.8709 33.9125 16.2227 34.8073 15.6045 35.7155C15.0378 36.5478 14.4617 37.3758 13.8905 38.2063C13.8441 38.274 13.8047 38.345 13.7407 38.4492C13.9093 38.4203 13.9877 38.3387 14.0794 38.2811C16.0919 37.0246 17.9631 35.6288 19.9412 34.3394C22.7202 32.5278 25.5579 30.7753 28.3908 29.0187C30.0854 27.9679 31.743 26.8811 33.1508 25.5683C34.1121 24.6716 34.9297 23.7046 35.4299 22.5778C35.5497 22.3076 35.5514 22.3061 35.1963 22.3073C33.4238 22.3134 31.7733 21.9851 30.333 21.1126C29.1438 20.392 28.3331 19.4628 28.1492 18.2453C27.8101 16.0026 30.2277 14.1819 32.9822 14.5863C33.8847 14.7185 34.7039 15.0182 35.4469 15.4456C37.2057 16.4574 38.414 17.7786 38.8389 19.5213C38.8924 19.7416 38.9978 19.7224 39.1897 19.6419C40.8711 18.9389 41.7237 17.8123 41.7818 16.2894C41.8693 13.9997 41.0587 11.9809 39.0148 10.3413C38.7863 10.1579 38.5339 10.0004 38.2815 9.84096C37.9711 9.64539 37.8808 9.4381 38.004 9.23577C38.1301 9.02969 38.4201 8.94617 38.7922 9.03561C39.5691 9.22284 40.2494 9.56441 40.8247 10.0139C42.6583 11.4472 43.746 13.184 43.9562 15.2596C44.0416 16.1025 44.0162 16.9435 43.7525 17.7657C43.158 19.6187 41.7125 20.8793 39.5502 21.5891C39.0395 21.7568 38.826 21.9716 38.7133 22.406C38.2332 24.257 37.0755 25.8353 35.5906 27.2695C34.2687 28.5462 32.7396 29.6447 31.1197 30.6614C27.9239 32.6667 24.7341 34.6789 21.5124 36.6564C19.8365 37.6849 18.0629 38.6069 16.4044 39.6569C16.3167 39.7122 16.1995 39.7468 16.1582 39.8511Z" fill="black"/>
</svg>
