<svg width="130" height="69" viewBox="0 0 130 69" fill="none" xmlns="http://www.w3.org/2000/svg">
<path d="M41.9375 47.4375C37.625 51.06 36.1875 61.8125 36.1875 61.8125C36.1875 61.8125 46.94 60.375 50.5625 56.0625C52.6037 53.6475 52.575 49.9387 50.3037 47.6962C49.1863 46.6296 47.7142 46.0133 46.1702 45.9656C44.6261 45.9178 43.1188 46.442 41.9375 47.4375Z" stroke="#3F3F3F" stroke-width="4" stroke-linecap="round" stroke-linejoin="round"/>
<path d="M63.5 43.125L54.875 34.5C56.4049 30.5309 58.3313 26.7262 60.625 23.1438C63.9749 17.7876 68.6394 13.3775 74.1749 10.333C79.7103 7.28851 85.9327 5.71082 92.25 5.75C92.25 13.57 90.0075 27.3125 75 37.375C71.3685 39.6713 67.5159 41.5976 63.5 43.125Z" stroke="#3F3F3F" stroke-width="4" stroke-linecap="round" stroke-linejoin="round"/>
<path d="M54.875 34.5H40.5C40.5 34.5 42.0812 25.7888 46.25 23C50.9075 19.895 60.625 23 60.625 23" stroke="#3F3F3F" stroke-width="4" stroke-linecap="round" stroke-linejoin="round"/>
<path d="M63.5 43.125V57.5C63.5 57.5 72.2112 55.9188 75 51.75C78.105 47.0925 75 37.375 75 37.375" stroke="#3F3F3F" stroke-width="4" stroke-linecap="round" stroke-linejoin="round"/>
<path d="M22.128 57.28C20.304 57.28 18.704 56.944 17.328 56.272C15.984 55.632 14.944 54.688 14.208 53.44C13.504 52.224 13.216 50.768 13.344 49.072L13.824 41.44C13.888 39.968 13.616 38.88 13.008 38.176C12.4 37.44 11.2 37.072 9.408 37.072H3.936V32.368H9.408C11.2 32.368 12.4 32.016 13.008 31.312C13.616 30.608 13.888 29.504 13.824 28L13.344 20.32C13.248 18.624 13.552 17.168 14.256 15.952C14.96 14.704 15.984 13.76 17.328 13.12C18.672 12.48 20.272 12.16 22.128 12.16H24.864V16.864H22.56C21.248 16.864 20.224 17.168 19.488 17.776C18.752 18.384 18.416 19.328 18.48 20.608L18.96 28.288C19.088 30.272 18.56 31.856 17.376 33.04C16.192 34.224 14.528 34.816 12.384 34.816V34.576C14.496 34.576 16.144 35.184 17.328 36.4C18.544 37.584 19.088 39.168 18.96 41.152L18.48 48.832C18.448 50.048 18.784 50.976 19.488 51.616C20.224 52.256 21.248 52.576 22.56 52.576H24.864V57.28H22.128Z" fill="#E11D48"/>
<path d="M104.936 57.28V52.576H107.24C108.552 52.576 109.576 52.256 110.312 51.616C111.048 50.976 111.384 50.048 111.32 48.832L110.84 41.152C110.712 39.168 111.24 37.584 112.424 36.4C113.64 35.184 115.304 34.576 117.416 34.576V34.816C115.272 34.816 113.608 34.224 112.424 33.04C111.24 31.856 110.712 30.272 110.84 28.288L111.32 20.608C111.384 19.328 111.048 18.384 110.312 17.776C109.608 17.168 108.584 16.864 107.24 16.864H104.936V12.16H107.672C109.528 12.16 111.128 12.48 112.472 13.12C113.816 13.76 114.84 14.704 115.544 15.952C116.28 17.168 116.584 18.624 116.456 20.32L115.976 28C115.912 29.504 116.184 30.608 116.792 31.312C117.432 32.016 118.632 32.368 120.392 32.368H125.864V37.072H120.392C118.632 37.072 117.432 37.44 116.792 38.176C116.184 38.88 115.912 39.968 115.976 41.44L116.456 49.072C116.584 50.768 116.28 52.224 115.544 53.44C114.84 54.688 113.816 55.632 112.472 56.272C111.128 56.944 109.528 57.28 107.672 57.28H104.936Z" fill="#E11D48"/>
</svg>
